<?xml version="1.0" encoding="utf-8"?>
<!-- Generator: Adobe Illustrator 24.1.2, SVG Export Plug-In . SVG Version: 6.00 Build 0)  -->
<svg version="1.1" id="Слой_1" xmlns="http://www.w3.org/2000/svg" xmlns:xlink="http://www.w3.org/1999/xlink" x="0px" y="0px"
	 viewBox="0 0 2229.8 814.7" style="enable-background:new 0 0 2229.8 814.7;" xml:space="preserve">
<style type="text/css">
	.st0{fill:url(#SVGID_1_);}
	.st1{clip-path:url(#SVGID_4_);}
	.st2{clip-path:url(#SVGID_5_);}
	.st3{opacity:0.35;fill-rule:evenodd;clip-rule:evenodd;fill:#F6F8E2;enable-background:new    ;}
	.st4{opacity:0.57;fill:url(#SVGID_6_);enable-background:new    ;}
	.st5{fill:url(#SVGID_7_);}
	.st6{clip-path:url(#SVGID_9_);}
	.st7{fill:url(#SVGID_10_);}
	.st8{fill:url(#SVGID_11_);}
	.st9{fill:url(#SVGID_12_);}
	.st10{clip-path:url(#SVGID_14_);}
	.st11{fill:url(#SVGID_15_);}
	.st12{fill:url(#SVGID_16_);}
	.st13{fill:url(#SVGID_17_);}
	.st14{fill:url(#SVGID_18_);}
	.st15{fill:url(#SVGID_19_);}
	.st16{fill:url(#SVGID_20_);}
	.st17{fill:url(#SVGID_21_);}
	.st18{fill:url(#SVGID_22_);}
	.st19{fill:url(#SVGID_23_);}
	.st20{fill:url(#SVGID_24_);}
	.st21{fill:url(#SVGID_25_);}
	.st22{fill:url(#SVGID_26_);}
	.st23{fill:url(#SVGID_27_);}
	.st24{fill:url(#SVGID_28_);}
	.st25{fill:url(#SVGID_29_);}
	.st26{fill:url(#SVGID_30_);}
	.st27{fill:url(#SVGID_31_);}
	.st28{fill:url(#SVGID_32_);}
	.st29{fill:url(#SVGID_33_);}
	.st30{fill:url(#SVGID_34_);}
	.st31{fill:url(#SVGID_35_);}
	.st32{fill:url(#SVGID_36_);}
	.st33{fill:url(#SVGID_37_);}
	.st34{fill:url(#SVGID_38_);}
	.st35{fill:url(#SVGID_39_);}
	.st36{fill:url(#SVGID_40_);}
	.st37{fill:url(#SVGID_41_);}
	.st38{opacity:0.26;fill:url(#SVGID_42_);enable-background:new    ;}
	.st39{opacity:0.26;fill:url(#SVGID_43_);enable-background:new    ;}
	.st40{fill:url(#SVGID_44_);}
	.st41{fill:url(#SVGID_45_);}
	.st42{fill:url(#SVGID_46_);}
	.st43{fill:url(#SVGID_47_);}
	.st44{fill:url(#SVGID_48_);}
	.st45{fill:url(#SVGID_49_);}
	.st46{fill:url(#SVGID_50_);}
	.st47{fill:url(#SVGID_51_);}
	.st48{fill:url(#SVGID_52_);}
	.st49{fill:url(#SVGID_53_);}
	.st50{clip-path:url(#SVGID_55_);}
	.st51{opacity:0.15;}
	.st52{fill:url(#SVGID_56_);}
	.st53{fill:url(#SVGID_57_);}
	.st54{fill:url(#SVGID_58_);}
	.st55{fill:url(#SVGID_59_);}
	.st56{fill:url(#SVGID_60_);}
	.st57{fill:url(#SVGID_61_);}
	.st58{fill:url(#SVGID_62_);}
	.st59{fill:url(#SVGID_63_);}
	.st60{fill:url(#SVGID_64_);}
	.st61{clip-path:url(#SVGID_66_);}
	.st62{fill:url(#SVGID_67_);}
	.st63{fill:url(#SVGID_68_);}
	.st64{fill:url(#SVGID_69_);}
	.st65{fill:url(#SVGID_70_);}
	.st66{fill:url(#SVGID_71_);}
	.st67{fill:url(#SVGID_72_);}
	.st68{fill:url(#SVGID_73_);}
	.st69{fill:url(#SVGID_74_);}
	.st70{fill:url(#SVGID_75_);}
	.st71{clip-path:url(#SVGID_77_);}
	.st72{fill:url(#SVGID_78_);}
	.st73{fill:url(#SVGID_79_);}
	.st74{fill:url(#SVGID_80_);}
	.st75{fill:url(#SVGID_81_);}
	.st76{fill:url(#SVGID_82_);}
	.st77{fill:url(#SVGID_83_);}
	.st78{fill:url(#SVGID_84_);}
	.st79{fill:#FFFFFF;}
	.st80{fill:#444444;}
	.st81{fill:#686868;}
	.st82{fill:url(#SVGID_85_);}
	.st83{fill:url(#SVGID_86_);}
	.st84{fill:url(#SVGID_87_);}
	.st85{fill:url(#SVGID_88_);}
	.st86{fill:url(#SVGID_89_);}
	.st87{fill:url(#SVGID_90_);}
	.st88{fill:url(#SVGID_91_);}
	.st89{fill:url(#SVGID_92_);}
	.st90{fill:url(#SVGID_93_);}
	.st91{fill:url(#SVGID_94_);}
	.st92{fill:url(#SVGID_95_);}
	.st93{fill:url(#SVGID_96_);}
	.st94{fill:url(#SVGID_97_);}
	.st95{fill:url(#SVGID_98_);}
	.st96{fill:none;stroke:#444444;stroke-miterlimit:10;}
	.st97{opacity:0.36;fill:#444444;enable-background:new    ;}
</style>
<linearGradient id="SVGID_1_" gradientUnits="userSpaceOnUse" x1="1120.2032" y1="803.53" x2="1115.6533" y2="464.75" gradientTransform="matrix(1 0 0 -1 0 816)">
	<stop  offset="0" style="stop-color:#93D3C3"/>
	<stop  offset="1" style="stop-color:#FBF69B"/>
</linearGradient>
<rect class="st0" width="2229.8" height="814.7"/>
<g>
	<defs>
		<rect id="SVGID_2_" width="2229.8" height="814.7"/>
	</defs>
	<defs>
		<rect id="SVGID_3_" width="2229.8" height="814.7"/>
	</defs>
	<clipPath id="SVGID_4_">
		<use xlink:href="#SVGID_2_"  style="overflow:visible;"/>
	</clipPath>
	<clipPath id="SVGID_5_" class="st1">
		<use xlink:href="#SVGID_3_"  style="overflow:visible;"/>
	</clipPath>
	<g class="st2">
		<path class="st3" d="M191.7,159.3c0,0,64.3-59.3,89.7-67.7s25.4,33.8,67.7,33.8s50.8-42.3,101.5-33.8
			c14.9,2.5,50.1,24.8,75.6,33.3c14.4,4.8,51.1-9.5,62.5,0c41.3,34.4,60.2,34.4,60.2,34.4H191.7z"/>
		<path class="st3" d="M52.2,247c18.2-22.2,31.5-25.8,40.3-24.8c12.6,1.4,16.2,12.1,30.4,12.4c13.9,0.3,15.3-9.7,32.6-12
			c17.6-2.4,32.1,5.8,37.1,8.9c6.7,4.3,12.5,9.8,17,16.4L52.2,247z"/>
		<path class="st3" d="M721.5,120.9c0,0,48-44.2,66.9-50.5s18.9,25.3,50.5,25.3s37.9-31.6,75.7-25.3c11.1,1.9,37.4,18.5,56.4,24.8
			c10.8,3.6,38.2-7.1,46.7,0c30.8,25.7,44.9,25.7,44.9,25.7L721.5,120.9z"/>
		<path class="st3" d="M516.8,213.3c0,0,48-44.2,66.9-50.5s18.9,25.3,50.5,25.3s37.9-31.6,75.8-25.3c11.1,1.9,37.4,18.5,56.4,24.8
			c10.8,3.6,38.1-7.1,46.7,0c30.8,25.7,44.9,25.7,44.9,25.7H516.8z"/>
		<path class="st3" d="M1282.7,256.9c0,0,48-44.2,66.9-50.5s18.9,25.3,50.5,25.3s37.9-31.6,75.7-25.3c11.1,1.9,37.4,18.5,56.4,24.8
			c10.8,3.6,38.2-7.1,46.7,0c30.8,25.7,44.9,25.7,44.9,25.7H1282.7z"/>
		<path class="st3" d="M1816.6,163.4c0,0,48-36,66.9-41.2s18.9,20.6,50.5,20.6s37.9-25.8,75.7-20.6c11.1,1.5,37.4,15.1,56.4,20.3
			c10.8,2.9,38.1-5.8,46.7,0c30.8,20.9,44.9,20.9,44.9,20.9H1816.6z"/>
		
			<linearGradient id="SVGID_6_" gradientUnits="userSpaceOnUse" x1="576.42" y1="418.09" x2="2161.5701" y2="418.09" gradientTransform="matrix(1 0 0 -1 0 816)">
			<stop  offset="0" style="stop-color:#472816"/>
			<stop  offset="1" style="stop-color:#F8B958"/>
		</linearGradient>
		<path class="st4" d="M2161.6,174.3l-103.3-92.8l-71.9-15.7l-75.8-31.4l-39.2-5.2l-36.6,35.3l-69.3,34l-54.9,3.9l-47.9,23.1
			l-17.4-7l-22.7,20.5c-3.6-4.1-7.3-8.1-10.9-12.2l-21.4,18.7l-27.4,13.5l-468.1,202.2l-96.4-48.7l-31.7,16l-49.7-26.2l-52.7,0.9
			c-15.3-1.8-31.3-3.3-47.9-4.4c-29.9-2-58.2-2.4-84.5-1.8L576.4,414.9L1466,766.6L2161.6,174.3z"/>
		
			<linearGradient id="SVGID_7_" gradientUnits="userSpaceOnUse" x1="643.54" y1="526.59" x2="2398.23" y2="526.59" gradientTransform="matrix(1 0 0 -1 0 816)">
			<stop  offset="0" style="stop-color:#472816"/>
			<stop  offset="1" style="stop-color:#F8B958"/>
		</linearGradient>
		<path class="st5" d="M2348.5-87.2c-37.6,35.3-70.9,74.7-99.4,117.7c-12.7,19.2-23.6,37.9-33.1,55.8l-54,17.4l-106.3,33.1
			l-155.2,31.4c-36,2.4-72.1,2.4-108.1,0c-29.2-1.9-58.3-5.4-87.2-10.5l-99.4-3.5l-37.3,10.9l-53.6,2l-22.2,8.5l-64.7,7.8
			l-45.1,25.5l-75.2,25.5l-40.5,5.2l-65.4,25.5l-41.8,4.2l-18.9,12.1l-26.9-1.8L1024,328l-48.4,27.5L643.5,582.3l664.2,34
			L2398.2,666C2381.7,414.9,2365.1,163.9,2348.5-87.2z"/>
		<g>
			<defs>
				<path id="SVGID_8_" d="M2348.5-87.2c-37.6,35.3-70.9,74.7-99.4,117.7c-12.7,19.2-23.6,37.9-33.1,55.8l-54,17.4l-106.3,33.1
					l-155.2,31.4c-36,2.4-72.1,2.4-108.1,0c-29.2-1.9-58.3-5.4-87.2-10.5l-99.4-3.5l-37.3,10.9l-53.6,2l-22.2,8.5l-64.7,7.8
					l-45.1,25.5l-75.2,25.5l-40.5,5.2l-65.4,25.5l-41.8,4.2l-18.9,12.1l-26.9-1.8L1024,328l-48.4,27.5L643.5,582.3l664.2,34
					L2398.2,666C2381.7,414.9,2365.1,163.9,2348.5-87.2z"/>
			</defs>
			<clipPath id="SVGID_9_">
				<use xlink:href="#SVGID_8_"  style="overflow:visible;"/>
			</clipPath>
			<g class="st6">
				
					<linearGradient id="SVGID_10_" gradientUnits="userSpaceOnUse" x1="1920.7819" y1="-158.9994" x2="1579.902" y2="982.9305" gradientTransform="matrix(1 0 0 -1 0 816)">
					<stop  offset="0" style="stop-color:#472816"/>
					<stop  offset="1" style="stop-color:#F8B958"/>
				</linearGradient>
				<path class="st7" d="M2191.3,159.9l-58,5.9l-34.4,39.1l-16.6-7.7l-4.1,13h-10.7l-10.7,17.8l-27.8,19.5l-71.1,36.1l-58.6-21.3
					l-60.4-32l-75.8,34.4l-23.1-8.9l-37.9,18.2l-55.3,33.6l-25.3,0.4l-83.7,51.3l-288.2,272l923.8,41.5l202.5,30.8
					c-30.8-139-61.6-277.9-92.4-416.9l-72.2-60.4C2204.7,204.1,2198,181.9,2191.3,159.9z"/>
			</g>
		</g>
		
			<linearGradient id="SVGID_11_" gradientUnits="userSpaceOnUse" x1="-79.95" y1="797.265" x2="716.76" y2="797.265" gradientTransform="matrix(1 0 0 -1 0 816)">
			<stop  offset="0" style="stop-color:#472816"/>
			<stop  offset="1" style="stop-color:#F8B958"/>
		</linearGradient>
		<path class="st8" d="M716.8,341.7l-6.5-71.9c-13.9-16.1-27.9-32.3-41.8-48.4c-7-42.3-13.9-84.5-20.9-126.8l-39.2-51L565.1,37
			l-52.3-24.8l-17.6,13.7l-45.8-9.8l-21.6,23.5l-42.5-1.3l-5.9-46.4l-17-21.1L348-38.8l-27.9-17.4l-55.8-51.9l-5.7-23.5l-19.2-10.5
			c-3.2-7.4-6.4-14.8-9.6-22.2l-27.5-5.7l-8.7-20.5l-38.6-15c-1.7-16.8-3.5-33.6-5.2-50.3l-46.4-34L70-279l-149.9-25.3
			c2.6,149.3,5.2,298.7,7.8,448L716.8,341.7z"/>
		
			<linearGradient id="SVGID_12_" gradientUnits="userSpaceOnUse" x1="-168.38" y1="597.22" x2="1164.8" y2="597.22" gradientTransform="matrix(1 0 0 -1 0 816)">
			<stop  offset="0" style="stop-color:#472816"/>
			<stop  offset="1" style="stop-color:#F8B958"/>
		</linearGradient>
		<path class="st9" d="M1164.8,602.3c-9.8-15.4-20.9-30-33.1-43.6c-39.1-43.4-75.8-60.8-160.4-109.8c-45.9-26.6-19.8-12.6-90.7-54
			c-81.1-47.4-138.1-79.1-158.7-90.6C575.3,221.4,548.9,179,371.6,68.4c-85.9-53.6-87.1-48.2-176.5-102
			C73.4-106.8-43.2-188-154-276.8c-4.8,330.4-9.6,660.7-14.4,991.1c78.5-12.4,143.1-18.8,188.3-22.2c31.5-2.4,38.3-2.3,168.7-9.2
			c135.9-7.1,127.8-7.2,150.4-7.8c85-2.3,95.7,1.9,211.8,1.3c90.8-0.5,136.2-0.7,159.5-5.2c54.8-10.5,91.9-27.5,167.4-31.4
			c26.5-1.4,41.6-0.3,58.8,0C988.4,640.7,1064.2,634.6,1164.8,602.3z"/>
		<g>
			<defs>
				<path id="SVGID_13_" d="M1164.8,602.3c-9.8-15.4-20.9-30-33.1-43.6c-39.1-43.4-75.8-60.8-160.4-109.8
					c-45.9-26.6-19.8-12.6-90.7-54c-81.1-47.4-138.1-79.1-158.7-90.6C575.3,221.4,548.9,179,371.6,68.4
					c-85.9-53.6-87.1-48.2-176.5-102C73.4-106.8-43.2-188-154-276.8c-4.8,330.4-9.6,660.7-14.4,991.1
					c78.5-12.4,143.1-18.8,188.3-22.2c31.5-2.4,38.3-2.3,168.7-9.2c135.9-7.1,127.8-7.2,150.4-7.8c85-2.3,95.7,1.9,211.8,1.3
					c90.8-0.5,136.2-0.7,159.5-5.2c54.8-10.5,91.9-27.5,167.4-31.4c26.5-1.4,41.6-0.3,58.8,0C988.4,640.7,1064.2,634.6,1164.8,602.3
					z"/>
			</defs>
			<clipPath id="SVGID_14_">
				<use xlink:href="#SVGID_13_"  style="overflow:visible;"/>
			</clipPath>
			<g class="st10">
				
					<linearGradient id="SVGID_15_" gradientUnits="userSpaceOnUse" x1="-137.1042" y1="270.2354" x2="1484.62" y2="270.2354" gradientTransform="matrix(1 0 0 -1 0 816)">
					<stop  offset="0" style="stop-color:#472816"/>
					<stop  offset="1" style="stop-color:#F8B958"/>
				</linearGradient>
				<path class="st11" d="M1484.6,798.7C1357.8,743,1274.3,680,1220.4,630.8c-40.4-36.9-98.4-97.2-199.2-158.9
					c-29.9-18.3-37.7-20.9-76.1-42.5c-56.6-31.9-136.6-80.8-230.6-152.2v42.5l12.3,26.9l6.7,16.8c17.5,20.9,35.1,41.8,52.6,62.7
					c4.5,15.3,9,30.6,13.4,45.9l-76.1-69.4l-64.9-26.9l-35.8-63.8c-33.6-5.5-66.2-16.4-96.3-32.5c-25.8-13.8-49.5-31.1-70.5-51.5
					l-38-2.2l-64.9-47c-4.7,6.5-8.5,13.7-11.2,21.3c-8.3,23.4-3.8,44.4-1.1,53.7c-1.4,7.4-5,31,7.8,56
					c15.7,30.6,44.5,40.6,50.4,42.5L456,398l64.9,75l-95.1-68.3L334,366.6c-17.3-12.3-34.9-25.3-52.6-39.2
					C226.8,284.7,175.5,238,128,187.5l-21.3,15.7c-18-14.3-26.2-14.8-30.2-12.3c-11,6.7-2,41.5,6.7,68.3L188.4,351l104.1,83.9
					c16.4,18.3,32.8,36.6,49.3,54.9l-111.9-79.5c-41.8-17.9-81.9-39.7-119.8-64.9C52.5,306.8,0.5,260.5-44.4,207.7
					c-58.2,34.8-79,71.6-87.3,98.5c-20.7,67.3,23.6,115.2,40.3,277.6c2.3,21.9,3.7,35.7,4.5,56c3.9,98.5-15.6,130.8,2.2,176.8
					c0,0,13,33.5,56,67.2C93.3,979.2,1392.5,810.8,1484.6,798.7z"/>
			</g>
		</g>
		
			<linearGradient id="SVGID_16_" gradientUnits="userSpaceOnUse" x1="320.1308" y1="270.6132" x2="281.8508" y2="398.8532" gradientTransform="matrix(1 0 0 -1 0 816)">
			<stop  offset="0" style="stop-color:#33431C"/>
			<stop  offset="1" style="stop-color:#FCEE5A"/>
		</linearGradient>
		<path class="st12" d="M291.3,521.7c-0.6-2.5-0.1-5.1,1.6-7c4.4-5.3,16.5-8,24.7-5.1c3,1,5.5,2.9,7.2,5.6c4.1-0.5,10-1.1,17.2-1.4
			c19-0.9,31.1-1.5,36.9,2.9c1.1,0.8,6.1,5,1.1,15c1.4,0.3,12.1,2.7,15.6,9.3s-1.3,14.7-12.5,19c6.9,2.2,10.6,7.1,8.8,11.8
			c-1.9,4.9-9.3,8.3-17.5,7.9c-2.4,3.8-5.9,6.8-10.1,8.5c-10.8,5-27,4.5-41-1.2c-12.1,9.1-30.9,11.5-43.9,6.7
			c-12.2-4.5-14.6-13.6-15-15c-9.6-2.4-15.8-8.1-15.5-14.1c0.3-6.4,8-10.3,9.1-10.9c-0.5-0.5-5.2-5.6-1.4-11.4
			c3.4-5,10.8-6.6,11.9-6.8c-1.2-2.3-1.1-5.1,0.4-7.3C272.3,523.6,281.3,520.8,291.3,521.7z"/>
		
			<linearGradient id="SVGID_17_" gradientUnits="userSpaceOnUse" x1="216.8959" y1="240.5588" x2="178.6159" y2="368.7888" gradientTransform="matrix(1 0 0 -1 0 816)">
			<stop  offset="0" style="stop-color:#33431C"/>
			<stop  offset="1" style="stop-color:#FCEE5A"/>
		</linearGradient>
		<path class="st13" d="M188.1,551.8c-0.6-2.4,0-5,1.6-6.9c4.4-5.3,16.5-8,24.8-5.2c3,0.9,5.5,2.9,7.2,5.6c4.1-0.5,10-1.1,17.3-1.4
			c19-0.9,31.1-1.5,36.9,2.9c1.1,0.8,6.1,5,1.1,15c1.4,0.3,12.1,2.7,15.6,9.3s-1.3,14.7-12.5,19c6.9,2.2,10.6,7.1,8.8,11.8
			c-1.9,4.9-9.3,8.4-17.5,7.9c-2.4,3.8-5.9,6.7-10.1,8.5c-10.8,5-27,4.5-41-1.2c-12.1,9.1-30.9,11.5-43.9,6.7
			c-12.2-4.5-14.6-13.6-15-15c-9.6-2.4-15.8-8.2-15.5-14.1c0.3-6.4,7.9-10.3,9.1-10.9c-0.5-0.5-5.2-5.6-1.4-11.4
			c3.4-5,10.8-6.6,11.9-6.9c-1.2-2.3-1.1-5.1,0.4-7.3C169,553.7,178,550.9,188.1,551.8z"/>
		
			<linearGradient id="SVGID_18_" gradientUnits="userSpaceOnUse" x1="368.359" y1="308.2097" x2="330.079" y2="436.4497" gradientTransform="matrix(1 0 0 -1 0 816)">
			<stop  offset="0" style="stop-color:#33431C"/>
			<stop  offset="1" style="stop-color:#FCEE5A"/>
		</linearGradient>
		<path class="st14" d="M339.6,484.1c-0.6-2.4,0-5,1.6-6.9c4.4-5.3,16.5-8,24.7-5.1c3,1,5.5,2.9,7.2,5.6c4.1-0.5,10-1.1,17.2-1.4
			c19-0.9,31.1-1.5,36.9,2.9c1.1,0.8,6.1,5,1.1,15c1.4,0.3,12.1,2.7,15.6,9.3s-1.3,14.7-12.5,19c6.9,2.2,10.6,7.1,8.8,11.8
			c-1.9,4.9-9.3,8.4-17.5,7.9c-2.4,3.8-5.9,6.8-10.1,8.5c-10.8,5-27,4.5-41-1.2c-12.1,9.1-30.9,11.5-43.9,6.7
			c-12.2-4.5-14.6-13.6-15-15c-9.6-2.4-15.8-8.2-15.5-14.1c0.3-6.4,8-10.3,9.1-10.9c-0.5-0.5-5.2-5.6-1.4-11.4
			c3.4-5,10.8-6.6,11.9-6.9c-1.2-2.3-1.1-5.1,0.4-7.3C320.5,486,329.5,483.2,339.6,484.1z"/>
		
			<linearGradient id="SVGID_19_" gradientUnits="userSpaceOnUse" x1="398.1389" y1="267.6297" x2="359.8589" y2="395.8697" gradientTransform="matrix(1 0 0 -1 0 816)">
			<stop  offset="0" style="stop-color:#33431C"/>
			<stop  offset="1" style="stop-color:#FCEE5A"/>
		</linearGradient>
		<path class="st15" d="M369.4,524.7c-0.6-2.4,0-5,1.6-6.9c4.4-5.3,16.5-8,24.8-5.2c3,0.9,5.5,2.9,7.2,5.6c4.1-0.5,10-1.1,17.3-1.4
			c19-0.9,31.1-1.5,36.9,2.9c1.1,0.8,6.1,5,1.1,15c1.4,0.3,12.1,2.7,15.6,9.3s-1.3,14.7-12.5,19c6.9,2.2,10.6,7.1,8.8,11.8
			c-1.9,4.9-9.3,8.4-17.5,7.9c-2.4,3.8-5.9,6.8-10.1,8.5c-10.8,5-27,4.5-41-1.2c-12.1,9.1-30.9,11.5-43.9,6.7
			c-12.2-4.5-14.6-13.6-15-15c-9.6-2.4-15.8-8.2-15.5-14.1c0.3-6.4,8-10.3,9.1-10.9c-0.5-0.5-5.2-5.6-1.4-11.4
			c3.4-5,10.8-6.6,11.9-6.9c-1.2-2.3-1.1-5.1,0.4-7.3C350.3,526.6,359.3,523.8,369.4,524.7z"/>
		
			<linearGradient id="SVGID_20_" gradientUnits="userSpaceOnUse" x1="477.4023" y1="257.0466" x2="439.1123" y2="385.2766" gradientTransform="matrix(1 0 0 -1 0 816)">
			<stop  offset="0" style="stop-color:#33431C"/>
			<stop  offset="1" style="stop-color:#FCEE5A"/>
		</linearGradient>
		<path class="st16" d="M448.6,535.3c-0.6-2.4,0-5,1.6-6.9c4.4-5.3,16.5-8,24.8-5.2c3,0.9,5.5,2.9,7.2,5.6c4.1-0.5,10-1.1,17.2-1.4
			c19-0.9,31.1-1.5,36.9,2.9c1.1,0.8,6.2,5,1.1,15c1.4,0.3,12.1,2.7,15.7,9.3s-1.3,14.7-12.5,19c6.9,2.2,10.6,7.1,8.8,11.8
			c-1.8,4.9-9.3,8.4-17.5,7.9c-2.4,3.8-5.9,6.7-10,8.5c-10.8,5-27,4.5-41-1.2c-12.1,9.1-30.9,11.5-43.9,6.7
			c-12.2-4.5-14.6-13.6-15-15c-9.6-2.4-15.8-8.2-15.5-14.1c0.3-6.4,7.9-10.3,9.1-10.9c-0.5-0.5-5.2-5.6-1.4-11.4
			c3.4-5,10.8-6.6,11.9-6.9c-1.2-2.3-1.1-5.1,0.4-7.3C429.5,537.2,438.5,534.4,448.6,535.3z"/>
		
			<linearGradient id="SVGID_21_" gradientUnits="userSpaceOnUse" x1="2507.9536" y1="218.7941" x2="2490.5637" y2="277.0341" gradientTransform="matrix(-1 0 0 -1 3909.9299 816)">
			<stop  offset="0" style="stop-color:#33431C"/>
			<stop  offset="1" style="stop-color:#FCEE5A"/>
		</linearGradient>
		<path class="st17" d="M1415.1,586.5c0.3-1.1,0-2.3-0.7-3.2c-2-2.4-7.5-3.7-11.2-2.3c-1.3,0.4-2.5,1.3-3.3,2.5
			c-1.9-0.2-4.6-0.5-7.8-0.6c-8.6-0.4-14.1-0.7-16.8,1.3c-0.5,0.4-2.8,2.3-0.5,6.8c-0.7,0.1-5.5,1.2-7.1,4.2s0.6,6.7,5.7,8.6
			c-3.2,1-4.8,3.2-4,5.3s4.2,3.8,7.9,3.6c1.1,1.7,2.7,3.1,4.6,3.9c4.9,2.2,12.3,2,18.6-0.5c5.5,4.1,14,5.2,19.9,3
			c5.5-2,6.6-6.2,6.8-6.8c4.4-1.1,7.2-3.7,7-6.4c-0.1-2.9-3.6-4.7-4.1-4.9c0.2-0.2,2.4-2.6,0.6-5.2c-1.5-2.3-4.9-3-5.4-3.1
			c0.5-1,0.5-2.3-0.2-3.3C1423.7,587.3,1419.7,586.1,1415.1,586.5z"/>
		
			<linearGradient id="SVGID_22_" gradientUnits="userSpaceOnUse" x1="3571.3459" y1="214.4888" x2="3533.0659" y2="342.7188" gradientTransform="matrix(-1 0 0 -1 3909.9299 816)">
			<stop  offset="0" style="stop-color:#33431C"/>
			<stop  offset="1" style="stop-color:#FCEE5A"/>
		</linearGradient>
		<path class="st18" d="M367.4,577.8c0.6-2.4,0-5-1.6-6.9c-4.4-5.3-16.5-8-24.7-5.2c-3,1-5.5,2.9-7.2,5.6c-4.1-0.5-10-1.1-17.2-1.4
			c-19-0.9-31.1-1.5-36.9,2.9c-1.1,0.8-6.1,5-1.1,15c-1.4,0.3-12.1,2.7-15.6,9.3s1.3,14.7,12.5,19c-6.9,2.2-10.6,7.1-8.8,11.8
			c1.9,4.9,9.3,8.4,17.5,7.9c2.4,3.8,5.9,6.8,10.1,8.5c10.8,5,27,4.5,41-1.2c12.1,9.1,30.9,11.5,43.9,6.7c12.2-4.5,14.6-13.6,15-15
			c9.6-2.4,15.8-8.2,15.5-14.1c-0.3-6.4-8-10.3-9.1-10.9c0.5-0.5,5.2-5.6,1.4-11.4c-3.4-5-10.8-6.6-11.9-6.9
			c1.2-2.3,1.1-5.1-0.4-7.3C386.4,579.8,377.5,577,367.4,577.8z"/>
		
			<linearGradient id="SVGID_23_" gradientUnits="userSpaceOnUse" x1="834.9401" y1="255.22" x2="796.6601" y2="383.45" gradientTransform="matrix(-1 0 0 -1 1579.6899 816)">
			<stop  offset="0" style="stop-color:#33431C"/>
			<stop  offset="1" style="stop-color:#FCEE5A"/>
		</linearGradient>
		<path class="st19" d="M773.5,537.1c0.6-2.5,0.1-5.1-1.6-7c-4.4-5.3-16.5-8-24.7-5.2c-3,1-5.5,2.9-7.2,5.6
			c-4.1-0.5-10-1.1-17.2-1.4c-19-0.9-31.1-1.5-36.9,2.9c-1.1,0.8-6.2,5-1.1,15c-1.4,0.3-12.1,2.7-15.6,9.3s1.3,14.7,12.5,19
			c-6.9,2.2-10.6,7.1-8.8,11.8c1.8,4.9,9.3,8.4,17.5,7.9c2.4,3.8,5.9,6.8,10.1,8.5c10.8,5,27,4.5,41-1.2
			c12.1,9.1,30.9,11.5,43.9,6.7c12.2-4.5,14.6-13.6,15-15c9.6-2.4,15.8-8,15.5-14c-0.3-6.4-8-10.3-9.1-10.9
			c0.5-0.5,5.2-5.6,1.3-11.4c-3.4-5-10.8-6.6-11.9-6.9c1.2-2.3,1.1-5.1-0.3-7.3C792.6,539,783.6,536.2,773.5,537.1z"/>
		
			<linearGradient id="SVGID_24_" gradientUnits="userSpaceOnUse" x1="720.3538" y1="242.5912" x2="682.0739" y2="370.8311" gradientTransform="matrix(-1 0 0 -1 1579.6899 816)">
			<stop  offset="0" style="stop-color:#33431C"/>
			<stop  offset="1" style="stop-color:#FCEE5A"/>
		</linearGradient>
		<path class="st20" d="M888.1,549.7c0.6-2.4,0-5-1.6-6.9c-4.4-5.3-16.5-8-24.7-5.2c-3,1-5.5,2.9-7.2,5.5c-4.1-0.5-10-1.1-17.2-1.4
			c-19-0.9-31.1-1.5-36.9,2.9c-1.1,0.8-6.2,5-1.1,15c-1.4,0.3-12.1,2.7-15.6,9.3s1.3,14.7,12.5,19c-6.9,2.2-10.6,7.1-8.8,11.8
			c1.8,4.9,9.3,8.4,17.5,7.9c2.4,3.8,5.9,6.8,10.1,8.5c10.8,5,27,4.5,41-1.2c12.1,9.1,30.9,11.5,43.9,6.7c12.2-4.5,14.6-13.6,15-15
			c9.6-2.4,15.8-8.1,15.5-14.1c-0.3-6.4-8-10.3-9.1-10.9c0.5-0.5,5.2-5.7,1.3-11.4c-3.4-5-10.8-6.6-11.9-6.8
			c1.2-2.3,1.1-5.1-0.3-7.3C907.2,551.7,898.2,548.9,888.1,549.7z"/>
		
			<linearGradient id="SVGID_25_" gradientUnits="userSpaceOnUse" x1="925.2205" y1="293.1842" x2="886.9405" y2="421.4242" gradientTransform="matrix(-1 0 0 -1 1579.6899 816)">
			<stop  offset="0" style="stop-color:#33431C"/>
			<stop  offset="1" style="stop-color:#FCEE5A"/>
		</linearGradient>
		<path class="st21" d="M683.2,499.1c0.6-2.4,0-5-1.6-6.9c-4.4-5.3-16.5-8-24.8-5.1c-3,0.9-5.5,2.9-7.2,5.6
			c-4.1-0.5-10-1.1-17.2-1.4c-19-0.9-31.1-1.5-36.9,2.9c-1.1,0.8-6.2,5-1.1,15c-1.4,0.3-12.1,2.7-15.7,9.3s1.3,14.7,12.5,19
			c-6.9,2.2-10.6,7.1-8.8,11.8c1.8,4.9,9.3,8.4,17.5,7.9c2.4,3.8,6,6.8,10.1,8.6c10.8,5,27,4.5,41-1.2c12.1,9.1,30.9,11.5,43.9,6.7
			c12.2-4.5,14.6-13.6,15-15c9.6-2.4,15.8-8.2,15.5-14.1c-0.3-6.4-7.9-10.3-9.1-10.9c0.5-0.5,5.2-5.7,1.4-11.4
			c-3.4-5-10.8-6.6-11.9-6.9c1.2-2.3,1.1-5.1-0.3-7.3C702.3,501.1,693.3,498.3,683.2,499.1z"/>
		
			<linearGradient id="SVGID_26_" gradientUnits="userSpaceOnUse" x1="912.9635" y1="252.231" x2="874.6835" y2="380.471" gradientTransform="matrix(-1 0 0 -1 1579.6899 816)">
			<stop  offset="0" style="stop-color:#33431C"/>
			<stop  offset="1" style="stop-color:#FCEE5A"/>
		</linearGradient>
		<path class="st22" d="M695.5,540.1c0.6-2.4,0-5-1.6-6.9c-4.4-5.3-16.5-8-24.7-5.2c-3,1-5.5,2.9-7.2,5.5c-4.1-0.5-10-1.1-17.2-1.4
			c-19-0.9-31.1-1.5-36.9,2.9c-1.1,0.8-6.2,5-1.1,15c-1.4,0.3-12.1,2.7-15.6,9.3s1.3,14.7,12.5,19c-6.9,2.2-10.6,7.1-8.8,11.8
			c1.8,4.9,9.3,8.4,17.5,7.9c2.4,3.8,5.9,6.8,10.1,8.5c10.8,5,27,4.5,41-1.2c12.1,9.1,30.9,11.5,43.9,6.7c12.2-4.5,14.6-13.6,15-15
			c9.6-2.4,15.8-8.1,15.5-14.1c-0.3-6.4-8-10.3-9.1-10.9c0.5-0.5,5.2-5.7,1.4-11.4c-3.4-5-10.8-6.6-11.9-6.8
			c1.2-2.3,1.1-5.1-0.3-7.3C714.6,542,705.6,539.2,695.5,540.1z"/>
		
			<linearGradient id="SVGID_27_" gradientUnits="userSpaceOnUse" x1="1028.5743" y1="264.3783" x2="990.2943" y2="392.6083" gradientTransform="matrix(-1 0 0 -1 1579.6899 816)">
			<stop  offset="0" style="stop-color:#33431C"/>
			<stop  offset="1" style="stop-color:#FCEE5A"/>
		</linearGradient>
		<path class="st23" d="M579.9,528c0.6-2.5,0.1-5.1-1.6-7c-4.4-5.3-16.5-8-24.8-5.2c-3,1-5.5,2.9-7.2,5.6c-4.1-0.5-10-1.1-17.3-1.4
			c-19-0.9-31.1-1.5-36.9,2.9c-1.1,0.8-6.1,5-1.1,15c-1.4,0.3-12.1,2.7-15.6,9.3s1.3,14.7,12.5,19c-6.9,2.2-10.6,7.1-8.8,11.8
			c1.9,4.9,9.3,8.4,17.5,7.9c2.4,3.8,5.9,6.8,10,8.5c10.8,5,27,4.5,41-1.2c12.1,9.1,30.9,11.5,43.9,6.7c12.2-4.5,14.6-13.6,15-15
			c9.6-2.4,15.8-8.2,15.5-14.1c-0.3-6.4-8-10.3-9.1-10.9c0.5-0.5,5.2-5.6,1.4-11.4c-3.4-5-10.8-6.6-11.9-6.9
			c1.2-2.3,1.1-5.1-0.3-7.3C599,529.9,590,527.1,579.9,528z"/>
		
			<linearGradient id="SVGID_28_" gradientUnits="userSpaceOnUse" x1="3056.5012" y1="199.0814" x2="3018.2212" y2="327.3214" gradientTransform="matrix(1 0 0 -1 -2330.24 816)">
			<stop  offset="0" style="stop-color:#33431C"/>
			<stop  offset="1" style="stop-color:#FCEE5A"/>
		</linearGradient>
		<path class="st24" d="M697.5,593.2c-0.6-2.4,0-5,1.6-6.9c4.4-5.3,16.5-8,24.8-5.2c3,1,5.5,2.9,7.1,5.6c4.1-0.5,10-1.1,17.3-1.4
			c19-0.9,31.1-1.5,36.9,2.9c1.1,0.8,6.2,5,1.1,15c1.4,0.3,12.1,2.7,15.7,9.3s-1.3,14.7-12.5,19c6.9,2.2,10.6,7.1,8.8,11.8
			c-1.8,4.9-9.3,8.4-17.5,7.9c-2.4,3.8-5.9,6.8-10,8.5c-10.8,5-27,4.5-41-1.2c-12.1,9.1-30.9,11.5-43.9,6.7
			c-12.2-4.5-14.6-13.6-15-15c-9.6-2.4-15.8-8.2-15.5-14.1c0.3-6.4,8-10.3,9.1-10.9c-0.5-0.5-5.2-5.7-1.4-11.4
			c3.4-5,10.8-6.6,11.9-6.9c-1.2-2.3-1.1-5.1,0.3-7.3C678.4,595.2,687.4,592.4,697.5,593.2z"/>
		
			<linearGradient id="SVGID_29_" gradientUnits="userSpaceOnUse" x1="1373.3708" y1="268.5303" x2="1335.0908" y2="396.7603" gradientTransform="matrix(1 0 0 -1 0 816)">
			<stop  offset="0" style="stop-color:#33431C"/>
			<stop  offset="1" style="stop-color:#FCEE5A"/>
		</linearGradient>
		<path class="st25" d="M1344.6,523.8c-0.6-2.4,0-5,1.6-7c4.4-5.3,16.5-8,24.7-5.1c3,1,5.5,2.9,7.2,5.6c4.1-0.5,10-1.1,17.2-1.4
			c19-0.9,31.1-1.5,36.9,2.9c1.1,0.8,6.2,5,1.1,15c1.4,0.3,12.1,2.7,15.6,9.3s-1.3,14.7-12.4,19c6.9,2.2,10.6,7.1,8.8,11.8
			c-1.8,4.9-9.3,8.4-17.4,7.9c-2.4,3.8-5.9,6.8-10.1,8.5c-10.8,5-27,4.5-41-1.2c-12.1,9.1-30.9,11.5-43.9,6.7
			c-12.2-4.5-14.6-13.6-15-15c-9.6-2.4-15.8-8.2-15.5-14.1c0.3-6.4,8-10.3,9.1-10.9c-0.5-0.5-5.2-5.6-1.3-11.4
			c3.4-5,10.8-6.6,11.9-6.9c-1.2-2.3-1.1-5.1,0.3-7.3C1325.5,525.7,1334.5,522.9,1344.6,523.8z"/>
		
			<linearGradient id="SVGID_30_" gradientUnits="userSpaceOnUse" x1="1270.1503" y1="238.4701" x2="1231.8702" y2="366.7101" gradientTransform="matrix(1 0 0 -1 0 816)">
			<stop  offset="0" style="stop-color:#33431C"/>
			<stop  offset="1" style="stop-color:#FCEE5A"/>
		</linearGradient>
		<path class="st26" d="M1241.4,553.8c-0.6-2.4,0-5,1.6-6.9c4.4-5.3,16.5-8,24.7-5.2c3,1,5.5,2.9,7.2,5.5c4.1-0.5,10-1,17.2-1.4
			c19-0.9,31.1-1.5,36.9,2.9c1.1,0.8,6.2,5,1.1,15c1.4,0.3,12.1,2.7,15.6,9.3s-1.3,14.7-12.4,19c6.9,2.2,10.6,7.1,8.8,11.8
			c-1.8,4.9-9.3,8.4-17.4,7.9c-2.4,3.8-5.9,6.8-10.1,8.5c-10.8,5-27,4.5-41-1.2c-12.1,9.1-30.9,11.5-43.9,6.7
			c-12.2-4.5-14.6-13.6-15-15c-9.6-2.4-15.8-8.2-15.5-14.1c0.3-6.4,8-10.3,9.1-10.9c-0.5-0.5-5.2-5.7-1.4-11.4
			c3.4-5,10.8-6.6,11.9-6.9c-1.2-2.3-1.1-5.1,0.3-7.3C1222.3,555.8,1231.3,553,1241.4,553.8z"/>
		
			<linearGradient id="SVGID_31_" gradientUnits="userSpaceOnUse" x1="1421.6138" y1="306.1211" x2="1383.3337" y2="434.3611" gradientTransform="matrix(1 0 0 -1 0 816)">
			<stop  offset="0" style="stop-color:#33431C"/>
			<stop  offset="1" style="stop-color:#FCEE5A"/>
		</linearGradient>
		<path class="st27" d="M1392.8,486.2c-0.6-2.4,0-5,1.6-7c4.4-5.3,16.5-8,24.7-5.1c3,1,5.5,2.9,7.2,5.5c4.1-0.5,10-1.1,17.2-1.4
			c19-0.9,31.1-1.5,36.9,2.9c1.1,0.8,6.2,5,1.1,15c1.4,0.3,12.1,2.7,15.6,9.3c3.6,6.6-1.3,14.7-12.4,19c6.9,2.2,10.6,7.1,8.8,11.8
			c-1.8,4.9-9.3,8.4-17.4,7.9c-2.4,3.8-5.9,6.8-10.1,8.5c-10.8,5-27,4.5-41-1.2c-12.1,9.1-30.9,11.5-43.9,6.7
			c-12.2-4.5-14.6-13.6-15-15c-9.6-2.4-15.8-8.1-15.5-14.1c0.3-6.4,8-10.3,9.1-10.9c-0.5-0.5-5.2-5.6-1.3-11.4
			c3.4-5,10.8-6.6,11.9-6.9c-1.2-2.3-1.1-5.1,0.3-7.3C1373.8,488.1,1382.7,485.3,1392.8,486.2z"/>
		
			<linearGradient id="SVGID_32_" gradientUnits="userSpaceOnUse" x1="1451.3936" y1="265.541" x2="1413.1135" y2="393.781" gradientTransform="matrix(1 0 0 -1 0 816)">
			<stop  offset="0" style="stop-color:#33431C"/>
			<stop  offset="1" style="stop-color:#FCEE5A"/>
		</linearGradient>
		<path class="st28" d="M1422.6,526.8c-0.6-2.4,0-5,1.6-6.9c4.4-5.3,16.5-8,24.7-5.2c3,1,5.5,2.9,7.2,5.5c4.1-0.5,10-1.1,17.2-1.4
			c19-0.9,31.1-1.5,36.9,2.9c1.1,0.8,6.2,5,1.1,15c1.4,0.3,12.1,2.7,15.6,9.3s-1.3,14.7-12.4,19c6.9,2.2,10.6,7.1,8.8,11.8
			c-1.8,4.9-9.3,8.4-17.4,7.9c-2.4,3.8-5.9,6.8-10.1,8.5c-10.8,5-27,4.5-41-1.2c-12.1,9.1-30.9,11.5-43.9,6.7
			c-12.2-4.5-14.6-13.6-15-15c-9.6-2.4-15.8-8.1-15.5-14.1c0.3-6.4,8-10.3,9.1-10.9c-0.5-0.5-5.2-5.6-1.4-11.4
			c3.4-5,10.8-6.6,11.9-6.8c-1.2-2.3-1.1-5.1,0.3-7.3C1403.5,528.7,1412.5,525.9,1422.6,526.8z"/>
		
			<linearGradient id="SVGID_33_" gradientUnits="userSpaceOnUse" x1="1530.6289" y1="254.9497" x2="1492.3489" y2="383.1897" gradientTransform="matrix(1 0 0 -1 0 816)">
			<stop  offset="0" style="stop-color:#33431C"/>
			<stop  offset="1" style="stop-color:#FCEE5A"/>
		</linearGradient>
		<path class="st29" d="M1501.8,537.4c-0.6-2.4,0-5,1.6-6.9c4.4-5.3,16.5-8,24.8-5.2c3,1,5.5,2.9,7.2,5.5c4.1-0.5,10-1.1,17.3-1.4
			c19-0.9,31.1-1.5,36.9,2.9c1.1,0.8,6.2,5,1.1,15c1.4,0.3,12.1,2.7,15.7,9.3s-1.3,14.7-12.4,19c6.9,2.2,10.6,7.1,8.8,11.8
			c-1.8,4.9-9.3,8.4-17.4,7.9c-2.4,3.8-5.9,6.8-10.1,8.5c-10.8,5-27,4.5-41-1.2c-12.1,9.1-30.9,11.5-43.9,6.7
			c-12.2-4.5-14.6-13.6-15-15c-9.6-2.4-15.8-8.1-15.5-14.1c0.3-6.4,8-10.3,9.1-10.9c-0.5-0.5-5.2-5.7-1.4-11.4
			c3.4-5,10.8-6.6,11.9-6.8c-1.2-2.3-1.1-5.1,0.3-7.3C1482.8,539.3,1491.8,536.5,1501.8,537.4z"/>
		
			<linearGradient id="SVGID_34_" gradientUnits="userSpaceOnUse" x1="2518.1333" y1="212.4099" x2="2479.8533" y2="340.6499" gradientTransform="matrix(-1 0 0 -1 3909.9299 816)">
			<stop  offset="0" style="stop-color:#33431C"/>
			<stop  offset="1" style="stop-color:#FCEE5A"/>
		</linearGradient>
		<path class="st30" d="M1420.6,579.9c0.6-2.4,0-5-1.6-6.9c-4.4-5.3-16.5-8-24.8-5.2c-3,1-5.5,2.9-7.2,5.5c-4.1-0.5-10-1.1-17.3-1.4
			c-19-0.9-31.1-1.5-36.9,2.9c-1.1,0.8-6.2,5-1.1,15c-1.4,0.3-12.1,2.7-15.7,9.3s1.3,14.7,12.4,19c-6.9,2.2-10.6,7.1-8.8,11.8
			c1.8,4.9,9.3,8.4,17.5,7.9c2.4,3.8,5.9,6.8,10,8.5c10.8,5,27,4.5,41-1.2c12.1,9.1,30.9,11.5,43.9,6.7c12.2-4.5,14.6-13.6,15-15
			c9.6-2.4,15.8-8.1,15.5-14.1c-0.3-6.4-8-10.3-9.1-10.9c0.5-0.5,5.2-5.7,1.4-11.4c-3.4-5-10.8-6.6-11.9-6.8
			c1.2-2.3,1.1-5.1-0.3-7.3C1439.7,581.8,1430.7,579,1420.6,579.9z"/>
		
			<linearGradient id="SVGID_35_" gradientUnits="userSpaceOnUse" x1="-218.3112" y1="253.1297" x2="-256.5912" y2="381.3697" gradientTransform="matrix(-1 0 0 -1 1579.6899 816)">
			<stop  offset="0" style="stop-color:#33431C"/>
			<stop  offset="1" style="stop-color:#FCEE5A"/>
		</linearGradient>
		<path class="st31" d="M1826.8,539.2c0.6-2.4,0-5-1.6-6.9c-4.4-5.3-16.5-8-24.7-5.2c-3,1-5.5,2.9-7.2,5.6c-4.1-0.5-10-1.1-17.2-1.4
			c-19-0.9-31.1-1.5-36.9,2.9c-1.1,0.8-6.2,5-1.1,15c-1.4,0.3-12.1,2.7-15.6,9.3s1.3,14.7,12.4,19c-6.9,2.2-10.6,7.1-8.8,11.8
			c1.8,4.9,9.3,8.4,17.4,7.9c2.4,3.8,5.9,6.8,10.1,8.5c10.8,5,27,4.5,41-1.2c12.1,9.1,30.9,11.5,43.9,6.7c12.2-4.5,14.6-13.6,15-15
			c9.6-2.4,15.8-8.2,15.5-14.1c-0.3-6.4-8-10.3-9.1-10.9c0.5-0.5,5.2-5.6,1.4-11.4c-3.4-5-10.8-6.6-11.9-6.9
			c1.2-2.3,1.1-5.1-0.3-7.3C1845.9,541.1,1836.9,538.3,1826.8,539.2z"/>
		
			<linearGradient id="SVGID_36_" gradientUnits="userSpaceOnUse" x1="-14.5843" y1="293.9817" x2="-52.8643" y2="422.2217" gradientTransform="matrix(-1 0 0 -1 1579.6899 816)">
			<stop  offset="0" style="stop-color:#33431C"/>
			<stop  offset="1" style="stop-color:#FCEE5A"/>
		</linearGradient>
		<path class="st32" d="M1623.1,498.3c0.6-2.4,0-5-1.6-7c-4.4-5.3-16.5-8-24.8-5.1c-3,1-5.5,2.9-7.2,5.6c-4.1-0.5-10-1.1-17.2-1.4
			c-19-0.9-31.1-1.5-36.9,2.9c-1.1,0.8-6.2,5-1.1,15c-1.4,0.3-12.1,2.7-15.7,9.3s1.3,14.7,12.5,19c-6.9,2.2-10.6,7.1-8.8,11.8
			c1.8,4.9,9.3,8.3,17.5,7.9c2.4,3.8,5.9,6.8,10.1,8.5c10.8,5,27,4.5,41-1.2c12.1,9.1,30.9,11.5,43.9,6.7c12.2-4.5,14.6-13.6,15-15
			c9.6-2.4,15.8-8.1,15.5-14.1c-0.3-6.4-7.9-10.3-9.1-10.9c0.5-0.5,5.2-5.6,1.4-11.4c-3.4-5-10.8-6.6-11.9-6.8
			c1.2-2.3,1.1-5.1-0.3-7.3C1642.1,500.3,1633.2,497.5,1623.1,498.3z"/>
		
			<linearGradient id="SVGID_37_" gradientUnits="userSpaceOnUse" x1="-127.9952" y1="291.1044" x2="-166.2752" y2="419.3444" gradientTransform="matrix(-1 0 0 -1 1579.6899 816)">
			<stop  offset="0" style="stop-color:#33431C"/>
			<stop  offset="1" style="stop-color:#FCEE5A"/>
		</linearGradient>
		<path class="st33" d="M1736.5,501.2c0.6-2.5,0.1-5.1-1.6-7c-4.4-5.3-16.5-8-24.7-5.1c-3,1-5.5,2.9-7.2,5.6
			c-4.1-0.5-10-1.1-17.2-1.4c-19-0.9-31.1-1.5-36.9,2.9c-1.1,0.8-6.2,5-1.1,15c-1.4,0.3-12.1,2.7-15.6,9.3s1.3,14.7,12.4,19
			c-6.9,2.2-10.6,7.1-8.8,11.8c1.8,4.9,9.3,8.3,17.4,7.9c2.4,3.8,5.9,6.8,10.1,8.5c10.8,5,27,4.5,41-1.2
			c12.1,9.1,30.9,11.5,43.9,6.7c12.2-4.5,14.6-13.6,15-15c9.6-2.4,15.8-8.1,15.5-14.1c-0.3-6.4-8-10.3-9.1-10.9
			c0.5-0.5,5.2-5.6,1.3-11.4c-3.4-5-10.8-6.6-11.9-6.8c1.2-2.3,1.1-5.1-0.3-7.3C1755.6,503.1,1746.6,500.3,1736.5,501.2z"/>
		
			<linearGradient id="SVGID_38_" gradientUnits="userSpaceOnUse" x1="-140.2929" y1="250.1391" x2="-178.5729" y2="378.3791" gradientTransform="matrix(-1 0 0 -1 1579.6899 816)">
			<stop  offset="0" style="stop-color:#33431C"/>
			<stop  offset="1" style="stop-color:#FCEE5A"/>
		</linearGradient>
		<path class="st34" d="M1748.8,542.2c0.6-2.4,0-5-1.6-7c-4.4-5.3-16.5-8-24.8-5.2c-3,1-5.5,2.9-7.2,5.6c-4.1-0.5-10-1.1-17.3-1.4
			c-19-0.9-31.1-1.5-36.9,2.9c-1.1,0.8-6.2,5-1.1,15c-1.4,0.3-12.1,2.7-15.7,9.3s1.3,14.7,12.4,19c-6.9,2.2-10.6,7.1-8.8,11.8
			c1.8,4.9,9.3,8.3,17.4,7.9c2.4,3.8,5.9,6.8,10.1,8.5c10.8,5,27,4.5,41-1.2c12.1,9.1,30.9,11.5,43.9,6.7c12.2-4.5,14.6-13.6,15-15
			c9.6-2.4,15.8-8.1,15.5-14.1c-0.3-6.4-8-10.3-9.1-10.9c0.5-0.5,5.2-5.6,1.4-11.4c-3.4-5-10.8-6.6-11.9-6.8
			c1.2-2.3,1.1-5.1-0.3-7.3C1767.8,544.1,1758.8,541.3,1748.8,542.2z"/>
		
			<linearGradient id="SVGID_39_" gradientUnits="userSpaceOnUse" x1="-24.6629" y1="262.2951" x2="-62.9429" y2="390.5351" gradientTransform="matrix(-1 0 0 -1 1579.6899 816)">
			<stop  offset="0" style="stop-color:#33431C"/>
			<stop  offset="1" style="stop-color:#FCEE5A"/>
		</linearGradient>
		<path class="st35" d="M1633.2,530c0.6-2.4,0-5-1.6-6.9c-4.4-5.3-16.5-8-24.8-5.2c-3,0.9-5.5,2.9-7.2,5.6c-4.1-0.5-10-1.1-17.2-1.4
			c-19-0.9-31.1-1.5-36.9,2.9c-1.1,0.8-6.2,5-1.1,15c-1.4,0.3-12.1,2.7-15.7,9.3s1.3,14.7,12.5,19c-6.9,2.2-10.6,7.1-8.8,11.8
			c1.8,4.9,9.3,8.4,17.5,7.9c2.4,3.8,5.9,6.8,10.1,8.5c10.8,5,27,4.5,41-1.2c12.1,9.1,30.9,11.5,43.9,6.7c12.2-4.5,14.6-13.6,15-15
			c9.6-2.4,15.8-8.2,15.5-14.1c-0.3-6.4-7.9-10.3-9.1-10.9c0.5-0.5,5.2-5.7,1.4-11.4c-3.4-5-10.8-6.6-11.9-6.9
			c1.2-2.3,1.1-5.1-0.3-7.3C1652.2,532,1643.2,529.2,1633.2,530z"/>
		
			<linearGradient id="SVGID_40_" gradientUnits="userSpaceOnUse" x1="4109.79" y1="197.003" x2="4071.5103" y2="325.243" gradientTransform="matrix(1 0 0 -1 -2330.24 816)">
			<stop  offset="0" style="stop-color:#33431C"/>
			<stop  offset="1" style="stop-color:#FCEE5A"/>
		</linearGradient>
		<path class="st36" d="M1750.8,595.3c-0.6-2.5-0.1-5.1,1.6-7c4.4-5.3,16.5-8,24.7-5.2c3,1,5.5,2.9,7.2,5.6c4.1-0.5,10-1.1,17.2-1.4
			c19-0.9,31.1-1.5,36.9,2.9c1.1,0.8,6.2,5,1.1,15c1.4,0.3,12.1,2.7,15.6,9.3s-1.3,14.7-12.4,19c6.9,2.2,10.6,7.1,8.8,11.8
			c-1.8,4.9-9.3,8.3-17.4,7.9c-2.4,3.8-5.9,6.8-10.1,8.5c-10.8,5-27,4.5-41-1.2c-12.1,9.1-30.9,11.5-43.9,6.7
			c-12.2-4.5-14.6-13.6-15-15c-9.6-2.4-15.8-8.1-15.5-14.1c0.3-6.4,8-10.3,9.1-10.9c-0.5-0.5-5.2-5.6-1.4-11.4
			c3.4-5,10.8-6.6,11.9-6.8c-1.2-2.3-1.1-5.1,0.3-7.3C1731.7,597.3,1740.7,594.4,1750.8,595.3z"/>
		
			<linearGradient id="SVGID_41_" gradientUnits="userSpaceOnUse" x1="1136.6897" y1="9364.8789" x2="1150.1598" y2="11829.3291" gradientTransform="matrix(1 0 0 0.33 0 -2393.1401)">
			<stop  offset="0" style="stop-color:#FCEE5A"/>
			<stop  offset="0.52" style="stop-color:#33431C"/>
		</linearGradient>
		<path class="st37" d="M-34,555.5c-9.1,158.7-18.2,317.3-27.3,476l2407.1,3l-11.2-463.3l-480,6.3c-737.1,9.7-881.6,11.6-1073.4,9.3
			C585.4,584.4,306,577.4-34,555.5z"/>
		
			<linearGradient id="SVGID_42_" gradientUnits="userSpaceOnUse" x1="1131.2623" y1="8590.1689" x2="1145.4424" y2="11185.4287" gradientTransform="matrix(1 0 0 0.33 0 -2393.1401)">
			<stop  offset="0" style="stop-color:#FCEE5A"/>
			<stop  offset="0.52" style="stop-color:#33431C"/>
		</linearGradient>
		<path class="st38" d="M-42.6,704.7c-6.2,132.4-12.5,264.8-18.7,397.2l2407.1,3l-11.2-463.3c-51.8,14-105.2,21.5-158.9,22.2
			c-93.4,1.3-135.2-18.8-227.4-20.5c-78.5-1.4-118.6,11.9-186.4,22.7c-146.3,23.3-261.8,9.5-408-8.1
			c-250.5-30-296.8-86.5-424.9-44.7c-44,14.4-142.5,54.8-147.8,43.9c-3-6.1,27.3-21.1,25.7-29.7C801.1,595.8,363,649.1-42.6,704.7z"
			/>
		
			<linearGradient id="SVGID_43_" gradientUnits="userSpaceOnUse" x1="1649.6703" y1="8929.2188" x2="1663.8502" y2="11524.4688" gradientTransform="matrix(1 0 0 0.33 0 -2393.1401)">
			<stop  offset="0" style="stop-color:#FCEE5A"/>
			<stop  offset="0.52" style="stop-color:#33431C"/>
		</linearGradient>
		<path class="st39" d="M475.8,816.1c-6.2,132.4-12.5,264.8-18.7,397.2l2407.1,3L2852.9,753c-51.8,14-105.2,21.5-158.9,22.3
			c-93.4,1.3-135.1-18.8-227.4-20.5c-78.5-1.4-118.6,11.9-186.4,22.7c-146.3,23.3-261.8,9.5-408-8.1
			c-250.5-30.1-296.8-86.5-424.9-44.7c-44,14.4-142.4,54.8-147.8,43.9c-3-6.1,27.3-21.1,25.7-29.7
			C1319.5,707.2,881.4,760.5,475.8,816.1z"/>
		
			<linearGradient id="SVGID_44_" gradientUnits="userSpaceOnUse" x1="311.2688" y1="285.605" x2="489.8088" y2="285.605" gradientTransform="matrix(1 0 0 -1 0 816)">
			<stop  offset="0" style="stop-color:#563114"/>
			<stop  offset="1" style="stop-color:#744D30"/>
		</linearGradient>
		<path class="st40" d="M369.1,572.5c0,0.2,0,0.8-0.1,2.1l-1,22.8c1.3-0.3,2.7-0.4,4-0.4c2.5-0.7,5.2-0.9,7.8-0.5
			c0.1-5.8,0.9-15.5,3.4-32.5c23.7-17.3,35.3-26.5,34.6-27.4c-0.6-1-12.5,5.7-35.7,20c-1-13.6-1.4-27-1.3-40.3V516l22.3-52.7
			l-31.8,56.3c-39.3-19.2-59.4-28.1-60.1-26.7c-0.8,1.4,18.5,13.5,57.8,36.2C369.7,550.6,369.5,564,369.1,572.5z"/>
		
			<linearGradient id="SVGID_45_" gradientUnits="userSpaceOnUse" x1="346.8931" y1="354.2069" x2="317.2431" y2="453.5469" gradientTransform="matrix(1 0 0 -1 0 816)">
			<stop  offset="0" style="stop-color:#33431C"/>
			<stop  offset="1" style="stop-color:#FCEE5A"/>
		</linearGradient>
		<path class="st41" d="M324.6,443.5c-0.5-1.9,0-3.9,1.2-5.4c3.4-4.1,12.8-6.2,19.2-4c2.3,0.7,4.3,2.3,5.6,4.3
			c3.2-0.4,7.8-0.8,13.4-1.1c14.7-0.7,24.1-1.2,28.6,2.3c0.8,0.6,4.8,3.9,0.9,11.6c1.1,0.2,9.3,2.1,12.1,7.2s-1,11.4-9.6,14.7
			c5.4,1.7,8.2,5.5,6.8,9.1c-1.4,3.8-7.2,6.5-13.5,6.1c-1.9,2.9-4.6,5.2-7.8,6.6c-8.4,3.8-20.9,3.5-31.8-0.9c-9.4,7-24,8.9-34,5.2
			c-9.4-3.5-11.3-10.5-11.6-11.6c-7.5-1.9-12.3-6.3-12-11c0.2-5,6.1-8,7-8.4c-0.4-0.4-4-4.4-1.1-8.8c2.6-3.9,8.3-5.1,9.2-5.3
			c-0.9-1.8-0.8-3.9,0.3-5.6C309.8,445,316.8,442.8,324.6,443.5z"/>
		
			<linearGradient id="SVGID_46_" gradientUnits="userSpaceOnUse" x1="390.0573" y1="351.8052" x2="360.3973" y2="451.1452" gradientTransform="matrix(1 0 0 -1 0 816)">
			<stop  offset="0" style="stop-color:#33431C"/>
			<stop  offset="1" style="stop-color:#FCEE5A"/>
		</linearGradient>
		<path class="st42" d="M367.7,445.9c-0.5-1.9,0-3.9,1.2-5.4c3.4-4.1,12.8-6.2,19.2-4c2.3,0.7,4.3,2.3,5.6,4.3
			c3.2-0.4,7.8-0.8,13.4-1.1c14.7-0.7,24.1-1.2,28.6,2.3c0.8,0.6,4.8,3.9,0.9,11.6c1.1,0.2,9.4,2.1,12.1,7.2s-1,11.4-9.6,14.7
			c5.4,1.7,8.2,5.5,6.9,9.1c-1.4,3.8-7.2,6.5-13.5,6.1c-1.9,2.9-4.6,5.2-7.8,6.6c-8.4,3.8-20.9,3.5-31.8-0.9c-9.4,7-24,8.9-34,5.2
			c-9.4-3.5-11.3-10.5-11.6-11.7c-7.5-1.9-12.3-6.3-12-10.9c0.3-5,6.2-8,7-8.4c-0.4-0.4-4-4.4-1-8.8c2.6-3.9,8.3-5.1,9.2-5.3
			c-0.9-1.8-0.8-3.9,0.3-5.6C353,447.4,359.9,445.2,367.7,445.9z"/>
		
			<linearGradient id="SVGID_47_" gradientUnits="userSpaceOnUse" x1="424.9517" y1="274.7935" x2="395.3017" y2="374.1435" gradientTransform="matrix(1 0 0 -1 0 816)">
			<stop  offset="0" style="stop-color:#33431C"/>
			<stop  offset="1" style="stop-color:#FCEE5A"/>
		</linearGradient>
		<path class="st43" d="M402.6,522.9c-0.5-1.9,0-3.9,1.2-5.4c3.4-4.1,12.8-6.2,19.2-4c2.3,0.7,4.3,2.3,5.6,4.3
			c3.2-0.4,7.8-0.8,13.4-1.1c14.7-0.7,24.1-1.2,28.6,2.3c0.8,0.6,4.8,3.9,0.9,11.7c1.1,0.2,9.3,2.1,12.1,7.2s-1,11.4-9.6,14.7
			c5.4,1.7,8.2,5.5,6.8,9.1c-1.4,3.8-7.2,6.5-13.5,6.1c-1.9,2.9-4.6,5.2-7.8,6.6c-8.4,3.8-20.9,3.5-31.8-0.9c-9.4,7-24,8.9-34,5.2
			c-9.4-3.5-11.3-10.5-11.6-11.6c-7.5-1.9-12.3-6.3-12-11c0.2-5,6.1-8,7-8.4c-0.4-0.4-4-4.4-1.1-8.8c2.6-3.9,8.3-5.1,9.2-5.3
			c-0.9-1.8-0.8-3.9,0.3-5.6C387.9,524.4,394.8,522.2,402.6,522.9z"/>
		
			<linearGradient id="SVGID_48_" gradientUnits="userSpaceOnUse" x1="816.868" y1="366.2534" x2="800.778" y2="420.1234" gradientTransform="matrix(1 0 0 -1 0 816)">
			<stop  offset="0" style="stop-color:#33431C"/>
			<stop  offset="1" style="stop-color:#FCEE5A"/>
		</linearGradient>
		<path class="st44" d="M804.8,439.8c-0.3-1,0-2.1,0.7-2.9c1.8-2.2,6.9-3.4,10.4-2.2c1.2,0.4,2.3,1.2,3,2.3c1.7-0.2,4.2-0.4,7.2-0.6
			c8-0.4,13.1-0.6,15.5,1.2c0.4,0.3,2.6,2.1,0.5,6.3c0.6,0.1,5.1,1.1,6.6,3.9s-0.6,6.2-5.2,8c2.9,0.9,4.4,3,3.7,5s-3.9,3.5-7.3,3.3
			c-1,1.6-2.5,2.8-4.2,3.6c-4.5,2.1-11.3,1.9-17.2-0.5c-5.4,3.8-12.2,4.8-18.4,2.8c-5.1-1.9-6.1-5.7-6.3-6.3c-4-1-6.6-3.4-6.5-5.9
			c0.1-2.7,3.3-4.3,3.8-4.6c-0.2-0.2-2.2-2.4-0.6-4.8c1.4-2.1,4.5-2.8,5-2.9c-0.5-1-0.5-2.1,0.2-3
			C796.8,440.6,800.6,439.4,804.8,439.8z"/>
		
			<linearGradient id="SVGID_49_" gradientUnits="userSpaceOnUse" x1="840.2899" y1="364.96" x2="824.21" y2="418.83" gradientTransform="matrix(1 0 0 -1 0 816)">
			<stop  offset="0" style="stop-color:#33431C"/>
			<stop  offset="1" style="stop-color:#FCEE5A"/>
		</linearGradient>
		<path class="st45" d="M828.2,441.1c-0.3-1,0-2.1,0.7-2.9c1.8-2.2,7-3.4,10.4-2.2c1.2,0.4,2.3,1.2,3,2.3c1.7-0.2,4.2-0.4,7.2-0.6
			c8-0.4,13.1-0.6,15.5,1.2c0.5,0.3,2.6,2.1,0.5,6.3c0.6,0.1,5.1,1.1,6.6,3.9s-0.5,6.2-5.2,8c2.9,0.9,4.5,3,3.7,5s-3.9,3.5-7.3,3.3
			c-1,1.6-2.5,2.8-4.2,3.5c-4.5,2.1-11.3,1.9-17.2-0.5c-5.4,3.8-12.2,4.8-18.4,2.8c-5.1-1.9-6.1-5.7-6.3-6.3c-4-1-6.7-3.4-6.5-5.9
			c0.1-2.7,3.3-4.3,3.8-4.6c-0.2-0.2-2.2-2.4-0.6-4.8c1.4-2.1,4.5-2.8,5-2.9c-0.5-1-0.5-2.1,0.1-3
			C820.2,441.9,824,440.7,828.2,441.1z"/>
		
			<linearGradient id="SVGID_50_" gradientUnits="userSpaceOnUse" x1="859.1961" y1="323.1929" x2="843.1161" y2="377.0629" gradientTransform="matrix(1 0 0 -1 0 816)">
			<stop  offset="0" style="stop-color:#33431C"/>
			<stop  offset="1" style="stop-color:#FCEE5A"/>
		</linearGradient>
		<path class="st46" d="M847.1,482.9c-0.3-1,0-2.1,0.7-2.9c1.8-2.2,6.9-3.4,10.4-2.2c1.2,0.4,2.3,1.2,3,2.3c1.7-0.2,4.2-0.5,7.3-0.6
			c8-0.4,13-0.6,15.5,1.2c0.5,0.3,2.6,2.1,0.5,6.3c0.6,0.1,5.1,1.1,6.6,3.9s-0.6,6.2-5.2,8c2.9,0.9,4.4,3,3.7,4.9s-3.9,3.5-7.3,3.3
			c-1,1.6-2.5,2.8-4.2,3.6c-4.5,2.1-11.3,1.9-17.2-0.5c-5.1,3.8-13,4.8-18.5,2.8c-5.1-1.9-6.1-5.7-6.3-6.3c-4-1-6.7-3.4-6.5-5.9
			c0.1-2.7,3.3-4.3,3.8-4.6c-0.2-0.2-2.2-2.4-0.6-4.8c1.4-2.1,4.5-2.8,5-2.9c-0.5-1-0.4-2.1,0.2-3
			C839.1,483.7,842.9,482.5,847.1,482.9z"/>
		
			<linearGradient id="SVGID_51_" gradientUnits="userSpaceOnUse" x1="802.9958" y1="331.5728" x2="786.9058" y2="385.4428" gradientTransform="matrix(1 0 0 -1 0 816)">
			<stop  offset="0" style="stop-color:#33431C"/>
			<stop  offset="1" style="stop-color:#FCEE5A"/>
		</linearGradient>
		<path class="st47" d="M790.9,474.5c-0.3-1,0-2.1,0.7-2.9c1.8-2.2,6.9-3.4,10.4-2.2c1.2,0.4,2.3,1.2,3,2.3c1.7-0.2,4.2-0.5,7.2-0.6
			c8-0.4,13.1-0.6,15.5,1.2c0.4,0.3,2.6,2.1,0.5,6.3c0.6,0.1,5.1,1.1,6.6,3.9s-0.6,6.2-5.2,8c2.9,0.9,4.4,3,3.7,4.9
			s-3.9,3.5-7.3,3.3c-1,1.6-2.5,2.8-4.2,3.6c-4.5,2.1-11.3,1.9-17.2-0.5c-5.4,3.8-12.2,4.8-18.5,2.8c-5.1-1.9-6.1-5.7-6.3-6.3
			c-4-1-6.6-3.4-6.5-5.9c0.1-2.7,3.3-4.3,3.8-4.6c-0.2-0.2-2.2-2.4-0.6-4.8c1.4-2.1,4.5-2.8,5-2.9c-0.5-1-0.4-2.1,0.2-3
			C782.9,475.3,786.7,474.1,790.9,474.5z"/>
		
			<linearGradient id="SVGID_52_" gradientUnits="userSpaceOnUse" x1="797.559" y1="289.0841" x2="894.369" y2="289.0841" gradientTransform="matrix(1 0 0 -1 0 816)">
			<stop  offset="0" style="stop-color:#563114"/>
			<stop  offset="1" style="stop-color:#744D30"/>
		</linearGradient>
		<path class="st48" d="M836,501.1c-0.6-7.4-0.8-14.7-0.7-21.9v-0.2l12.1-28.6l-17.3,30.5c-21.3-10.4-32.2-15.2-32.6-14.5
			c-0.4,0.7,10.1,7.3,31.3,19.6c0.3,11.7,0.2,18.9,0,23.6c0,0.1,0,0.4,0,1.1l-0.7,16.5c0,0.3,0,0.6,0,0.9
			c-0.3,5.9-0.5,11.9-0.8,17.8c0,0.4,0,0.7,0,1.1c-0.2,4.5-0.4,9-0.6,13.5c0,0.6,0,1.2-0.1,1.8l-0.7,15.3c0,0.6,0,1.2-0.1,1.8
			c0,1.1-0.3,7-0.3,7.5c-0.4,4.6-1.1,9.2-2.3,13.8c1.9,1.4,4.1,2.3,6.4,2.5c1.4,0.1,2.7-0.1,4.1-0.5c0.1-8.1,0.2-14.5,0.2-19
			c0.1-6.8,0.2-13.9,0.3-21c0-0.3,0-0.6,0-0.9c0.1-5.9,0.1-11.8,0.2-17.5c0-0.5,0-0.9,0-1.4c0-2.2,0-4.3,0.1-6.4c0-0.5,0-1,0-1.4
			c0-3.7,0.1-7.3,0.1-10.7c0-0.7,0-1,0-1.1c0.2-6.1,0.9-12.1,1.9-18.1c12.9-9.4,19.1-14.4,18.8-14.9S848.6,493.4,836,501.1z"/>
		
			<linearGradient id="SVGID_53_" gradientUnits="userSpaceOnUse" x1="2101.3003" y1="438.7661" x2="2287.1143" y2="438.7661" gradientTransform="matrix(1 0 0 -1 0 816)">
			<stop  offset="0" style="stop-color:#563114"/>
			<stop  offset="1" style="stop-color:#744D30"/>
		</linearGradient>
		<path class="st49" d="M2287,170.1c2,0.9-22.2,64.3-72.7,190.4c-0.6,113-1.2,225.9-1.7,338.9c-3.9,4.6-9.5,7.4-15.6,7.8
			c-5.5,0.2-10.9-1.6-15.1-5.2l8.5-55.8c2.7-70.1,3.3-140.3,1.8-210.5c-1.9-49.1-3.8-98.2-5.7-147.2c-10.8-19.5-27-48.5-47.4-83.7
			c-24.7-42.8-38.4-65.1-37.6-65.6s15.8,20.7,82.5,122.6c-2.7-31.5-5.4-62.9-8.1-94.4c-3.4-40-6.9-80-10.4-120.1
			c9,43.8,17.4,89.8,24.9,137.9c8.2,53.2,14.5,104.3,19.3,153C2259.2,225.3,2285,169.3,2287,170.1z"/>
		<g>
			<defs>
				<path id="SVGID_54_" d="M2287,170.1c2,0.9-22.2,64.3-72.7,190.4c-0.6,113-1.2,225.9-1.7,338.9c-3.9,4.6-9.5,7.4-15.6,7.8
					c-5.5,0.2-10.9-1.6-15.1-5.2l8.5-55.8c2.7-70.1,3.3-140.3,1.8-210.5c-1.9-49.1-3.8-98.2-5.7-147.2c-10.8-19.5-27-48.5-47.4-83.7
					c-24.7-42.8-38.4-65.1-37.6-65.6s15.8,20.7,82.5,122.6c-2.7-31.5-5.4-62.9-8.1-94.4c-3.4-40-6.9-80-10.4-120.1
					c9,43.8,17.4,89.8,24.9,137.9c8.2,53.2,14.5,104.3,19.3,153C2259.2,225.3,2285,169.3,2287,170.1z"/>
			</defs>
			<clipPath id="SVGID_55_">
				<use xlink:href="#SVGID_54_"  style="overflow:visible;"/>
			</clipPath>
			<g class="st50">
				<g class="st51">
					
						<linearGradient id="SVGID_56_" gradientUnits="userSpaceOnUse" x1="2183.1499" y1="292.7685" x2="2201.4199" y2="292.7685" gradientTransform="matrix(1 0 0 -1 0 816)">
						<stop  offset="0" style="stop-color:#472816"/>
						<stop  offset="1" style="stop-color:#F8B958"/>
					</linearGradient>
					<path class="st52" d="M2189.4,465.6l5.4,24.4c1.8,8,3.8,16.1,4.9,24.3c2,14.9-0.6,29.8-5.9,43.8c-3,7.9-6.8,15.5-11.1,22.7
						c-0.2,0.4,0,0.8,0.4,1c0.3,0.1,0.7,0,0.9-0.2c7.6-12.9,13.9-27,16.5-41.8c1.3-7.3,1.7-14.8,1-22.3c-0.8-8.2-2.7-16.2-4.5-24.2
						l-6.2-28.1C2190.7,464.2,2189.2,464.6,2189.4,465.6L2189.4,465.6z"/>
				</g>
				<g class="st51">
					
						<linearGradient id="SVGID_57_" gradientUnits="userSpaceOnUse" x1="2169.3799" y1="281.9299" x2="2207.27" y2="281.9299" gradientTransform="matrix(1 0 0 -1 0 816)">
						<stop  offset="0" style="stop-color:#472816"/>
						<stop  offset="1" style="stop-color:#F8B958"/>
					</linearGradient>
					<path class="st53" d="M2184.1,399.8c6.5,17.6,11.3,35.7,14.3,54.2c3.1,18.7,5.1,37.5,6,56.4c0.5,9.4,0.9,18.8,1.2,28.2
						c0.1,4.7,0.3,9.5,0.4,14.2c0.1,4.7,0.4,9.5,0.2,14.2c-0.1,4.9-1.1,9.7-2.9,14.2c-1.8,4.2-4.1,8.2-6,12.3
						c-3.9,8.3-5.6,17.2-6.9,26.2c-2.4,15.5-4.4,33.4-16.7,44.7c-1.4,1.3-2.9,2.5-4.6,3.5c-0.8,0.5-0.1,1.8,0.8,1.3
						c13.6-8.6,18.2-25.3,20.6-40.3c1.5-9.2,2.5-18.6,5.4-27.5c2.8-8.7,8.6-16.3,10.8-25.2c1-4.8,1.4-9.6,1.1-14.5
						c-0.1-4.8-0.2-9.7-0.4-14.5c-0.3-9.5-0.6-19.1-1-28.7c-0.8-19.1-2.5-38.1-5.2-56.9c-2.7-18.8-7.1-37.3-13.2-55.2
						c-0.8-2.3-1.6-4.5-2.4-6.8C2185.2,398.5,2183.8,398.9,2184.1,399.8L2184.1,399.8z"/>
				</g>
				<g class="st51">
					
						<linearGradient id="SVGID_58_" gradientUnits="userSpaceOnUse" x1="2185.1101" y1="429.7456" x2="2213.96" y2="429.7456" gradientTransform="matrix(1 0 0 -1 0 816)">
						<stop  offset="0" style="stop-color:#472816"/>
						<stop  offset="1" style="stop-color:#F8B958"/>
					</linearGradient>
					<path class="st54" d="M2184.6,362.6c4.9,13.8,11.9,26.7,20.7,38.4c2.5,3.3,5.1,6.5,7.9,9.6c0.6,0.7,1.7-0.4,1.1-1.1
						c-12.4-13.8-22-29.9-28.2-47.3C2185.7,361.3,2184.3,361.7,2184.6,362.6L2184.6,362.6z"/>
				</g>
				<g class="st51">
					
						<linearGradient id="SVGID_59_" gradientUnits="userSpaceOnUse" x1="2180.3" y1="186.6558" x2="2245.1201" y2="186.6558" gradientTransform="matrix(1 0 0 -1 0 816)">
						<stop  offset="0" style="stop-color:#472816"/>
						<stop  offset="1" style="stop-color:#F8B958"/>
					</linearGradient>
					<path class="st55" d="M2181.2,683.5c16.3-28.2,33-56.2,49.9-84c4.8-7.9,9.6-15.7,14.5-23.5c0.5-0.8-0.8-1.6-1.3-0.8
						c-17.1,27.7-34,55.6-50.5,83.6c-4.7,7.9-9.3,15.9-13.9,23.9c-0.2,0.4-0.1,0.8,0.3,1S2181,683.8,2181.2,683.5L2181.2,683.5z"/>
				</g>
			</g>
		</g>
		
			<linearGradient id="SVGID_60_" gradientUnits="userSpaceOnUse" x1="2030.2365" y1="631.1429" x2="1957.9764" y2="873.1929" gradientTransform="matrix(1 0 0 -1 0 816)">
			<stop  offset="0" style="stop-color:#33431C"/>
			<stop  offset="1" style="stop-color:#FCEE5A"/>
		</linearGradient>
		<path class="st56" d="M1975.9,140.2c-1.2-4.6-0.1-9.5,3-13.1c8.3-10.1,31.2-15.2,46.7-9.7c8.1,2.8,11.9,7.8,13.6,10.5
			c7.7-0.9,18.9-2,32.5-2.7c35.8-1.7,58.7-2.8,69.6,5.5c2,1.5,11.6,9.4,2.1,28.4c2.7,0.6,22.8,5,29.5,17.6s-2.5,27.7-23.5,35.8
			c13.1,4.1,20,13.4,16.7,22.2c-3.5,9.3-17.6,15.8-32.9,14.9c-2.9,4.7-8.5,11.3-19,16.1c-20.4,9.3-50.9,8.4-77.4-2.2
			c-22.9,17.2-58.4,21.7-82.9,12.7c-23-8.5-27.6-25.7-28.3-28.4c-18.2-4.6-29.9-15.4-29.3-26.7c0.6-12.1,15-19.5,17.2-20.5
			c-0.9-0.9-9.8-10.6-2.6-21.4c6.4-9.5,20.3-12.5,22.4-12.9c-1.2-2.6-3.1-8.1,0.7-13.7C1939.9,143.8,1956.9,138.5,1975.9,140.2z"/>
		
			<linearGradient id="SVGID_61_" gradientUnits="userSpaceOnUse" x1="2331.4644" y1="514.5654" x2="2259.2144" y2="756.6154" gradientTransform="matrix(1 0 0 -1 0 816)">
			<stop  offset="0" style="stop-color:#33431C"/>
			<stop  offset="1" style="stop-color:#FCEE5A"/>
		</linearGradient>
		<path class="st57" d="M2277.2,256.7c-1.2-4.6-0.1-9.5,3-13.1c8.3-10.1,31.2-15.2,46.7-9.7c8.1,2.9,11.9,7.8,13.6,10.5
			c7.7-0.9,18.9-2,32.6-2.7c35.8-1.7,58.7-2.8,69.6,5.5c2,1.5,11.6,9.4,2.1,28.4c2.7,0.6,22.8,5,29.5,17.6s-2.5,27.7-23.5,35.9
			c13.1,4.1,20,13.4,16.7,22.2c-3.5,9.3-17.6,15.8-32.9,14.9c-2.9,4.7-8.5,11.3-19,16.1c-20.4,9.3-50.9,8.4-77.4-2.2
			c-22.9,17.2-58.4,21.7-82.9,12.7c-23-8.5-27.6-25.7-28.3-28.4c-18.2-4.6-29.9-15.4-29.3-26.7c0.6-12.1,15-19.5,17.2-20.5
			c-0.9-0.9-9.8-10.6-2.6-21.4c6.4-9.5,20.3-12.5,22.4-12.9c-1.2-2.6-3.1-8.1,0.7-13.7C2241.1,260.4,2258.1,255.1,2277.2,256.7z"/>
		
			<linearGradient id="SVGID_62_" gradientUnits="userSpaceOnUse" x1="2105.5461" y1="795.0159" x2="2033.2961" y2="1037.0658" gradientTransform="matrix(1 0 0 -1 0 816)">
			<stop  offset="0" style="stop-color:#33431C"/>
			<stop  offset="1" style="stop-color:#FCEE5A"/>
		</linearGradient>
		<path class="st58" d="M2051.2-23.7c-1.2-4.6-0.1-9.5,3-13.1c8.3-10.1,31.2-15.2,46.7-9.7c8.1,2.8,11.9,7.8,13.6,10.5
			c7.7-0.9,18.9-2,32.6-2.7c35.8-1.7,58.7-2.8,69.6,5.5c2,1.5,11.6,9.5,2.1,28.4c2.7,0.6,22.8,5.1,29.5,17.6s-2.5,27.7-23.5,35.8
			c13.1,4.1,20,13.4,16.7,22.2c-3.5,9.3-17.6,15.8-32.9,14.9c-2.9,4.7-8.4,11.3-19,16.1c-20.4,9.3-50.9,8.4-77.4-2.2
			c-22.9,17.2-58.4,21.7-82.9,12.7c-23-8.5-27.6-25.7-28.2-28.4c-18.2-4.6-29.9-15.4-29.3-26.7c0.6-12.1,15-19.5,17.2-20.5
			c-0.9-0.9-9.8-10.6-2.6-21.5c6.4-9.5,20.3-12.5,22.4-12.9c-1.2-2.6-3.1-8.1,0.7-13.7C2015.2-20.1,2032.2-25.4,2051.2-23.7z"/>
		
			<linearGradient id="SVGID_63_" gradientUnits="userSpaceOnUse" x1="2248.363" y1="644.402" x2="2176.103" y2="886.452" gradientTransform="matrix(1 0 0 -1 0 816)">
			<stop  offset="0" style="stop-color:#33431C"/>
			<stop  offset="1" style="stop-color:#FCEE5A"/>
		</linearGradient>
		<path class="st59" d="M2194.1,126.9c-1.2-4.6-0.1-9.5,3-13.1c8.3-10.1,31.2-15.2,46.7-9.7c8.1,2.8,11.9,7.8,13.6,10.5
			c7.7-0.9,18.9-2,32.5-2.7c35.8-1.7,58.7-2.8,69.6,5.5c2,1.5,11.6,9.4,2.1,28.4c2.7,0.6,22.8,5,29.5,17.6s-2.5,27.7-23.5,35.8
			c13.1,4.1,20,13.4,16.7,22.2c-3.5,9.3-17.6,15.8-32.9,14.9c-2.9,4.7-8.5,11.3-19,16.1c-20.4,9.3-51,8.4-77.4-2.2
			c-22.9,17.2-58.4,21.7-82.9,12.7c-23-8.5-27.6-25.7-28.2-28.4c-18.2-4.6-29.9-15.4-29.3-26.7c0.6-12.1,15-19.5,17.2-20.5
			c-0.9-0.9-9.8-10.6-2.6-21.4c6.4-9.5,20.3-12.5,22.4-12.9c-1.2-2.6-3.1-8.1,0.7-13.7C2158.1,130.6,2175,125.2,2194.1,126.9z"/>
		
			<linearGradient id="SVGID_64_" gradientUnits="userSpaceOnUse" x1="195.1707" y1="375.7408" x2="380.9888" y2="375.7408" gradientTransform="matrix(1 0 0 -1 0 816)">
			<stop  offset="0" style="stop-color:#563114"/>
			<stop  offset="1" style="stop-color:#744D30"/>
		</linearGradient>
		<path class="st60" d="M380.9,293.6c2,0.6-22.2,45.5-72.7,134.8c-0.6,80-1.1,160-1.7,239.9c-4.4,3.5-9.9,5.4-15.6,5.5
			c-5.3,0.2-10.6-1-15.1-3.7c2.8-13.2,5.7-26.3,8.5-39.5c2.7-49.6,3.3-99.3,1.8-149c-1.9-34.7-3.8-69.5-5.7-104.2
			c-10.8-13.8-27.1-34.4-47.4-59.3c-24.8-30.3-38.4-46.1-37.7-46.4s15.8,14.7,82.5,86.8c-2.7-22.3-5.4-44.6-8.1-66.9
			c-3.4-28.3-6.9-56.7-10.4-85c9,31,17.5,63.6,24.9,97.7c8.2,37.6,14.5,73.8,19.3,108.3C353.2,332.7,379,293,380.9,293.6z"/>
		<g>
			<defs>
				<path id="SVGID_65_" d="M380.9,293.6c2,0.6-22.2,45.5-72.7,134.8c-0.6,80-1.1,160-1.7,239.9c-4.4,3.5-9.9,5.4-15.6,5.5
					c-5.3,0.2-10.6-1-15.1-3.7c2.8-13.2,5.7-26.3,8.5-39.5c2.7-49.6,3.3-99.3,1.8-149c-1.9-34.7-3.8-69.5-5.7-104.2
					c-10.8-13.8-27.1-34.4-47.4-59.3c-24.8-30.3-38.4-46.1-37.7-46.4s15.8,14.7,82.5,86.8c-2.7-22.3-5.4-44.6-8.1-66.9
					c-3.4-28.3-6.9-56.7-10.4-85c9,31,17.5,63.6,24.9,97.7c8.2,37.6,14.5,73.8,19.3,108.3C353.2,332.7,379,293,380.9,293.6z"/>
			</defs>
			<clipPath id="SVGID_66_">
				<use xlink:href="#SVGID_65_"  style="overflow:visible;"/>
			</clipPath>
			<g class="st61">
				<g class="st51">
					
						<linearGradient id="SVGID_67_" gradientUnits="userSpaceOnUse" x1="275.67" y1="304.3931" x2="290.15" y2="304.3931" gradientTransform="matrix(1 0 0 -1 0 816)">
						<stop  offset="0" style="stop-color:#472816"/>
						<stop  offset="1" style="stop-color:#F8B958"/>
					</linearGradient>
					<path class="st62" d="M279.6,476.5c2.8,3.5,4.4,7.8,5.6,12.1c1.3,4.6,2.4,9.2,3.2,13.9c1,5,1,10.1-0.1,15.1
						c-1.2,4.8-3.7,9.3-5.8,13.8l-7.3,15.6c-0.4,0.9,0.9,1.6,1.3,0.8l6.9-14.7c2.1-4.6,4.7-9.2,6.1-14.1c2.8-9.8-0.1-20.3-2.7-29.8
						c-1.3-4.9-3-9.6-6.2-13.6C280,474.7,279,475.7,279.6,476.5L279.6,476.5z"/>
				</g>
				<g class="st51">
					
						<linearGradient id="SVGID_68_" gradientUnits="userSpaceOnUse" x1="267.62" y1="305.5261" x2="300.38" y2="305.5261" gradientTransform="matrix(1 0 0 -1 0 816)">
						<stop  offset="0" style="stop-color:#472816"/>
						<stop  offset="1" style="stop-color:#F8B958"/>
					</linearGradient>
					<path class="st63" d="M273.6,423.5c1,6.5,2.1,13,3.4,19.4c0.6,3.2,1.3,6.4,1.9,9.6c0.5,3,1.3,6,2.4,8.9
						c2.1,5.2,6.4,8.9,9.4,13.4c3,4.6,5.3,9.7,6.6,15.1c3.1,11.9,2.2,24.3,0.2,36.3c-1.1,6.4-2.5,12.7-3.9,19
						c-1.2,6-2.8,11.9-4.7,17.7c-4.5,13-12.9,23.6-21.6,34.1c-0.6,0.7,0.4,1.8,1.1,1.1c7.6-9.2,15.3-18.5,20-29.6
						c2.4-5.8,4.2-11.8,5.6-17.9c1.5-6.3,2.9-12.6,4.1-18.9c2.4-12,3.9-24.5,1.9-36.7c-0.9-5.5-2.5-10.8-4.9-15.7
						c-1.2-2.5-2.7-4.8-4.3-7c-1.8-2.4-3.8-4.5-5.5-6.9c-1.9-2.8-3.2-5.9-3.9-9.1c-0.9-3.6-1.6-7.3-2.3-10.9
						c-1.5-7.4-2.8-14.8-3.9-22.3C274.9,422.1,273.5,422.6,273.6,423.5L273.6,423.5z"/>
				</g>
				<g class="st51">
					
						<linearGradient id="SVGID_69_" gradientUnits="userSpaceOnUse" x1="252.85" y1="287.2745" x2="310.55" y2="287.2745" gradientTransform="matrix(1 0 0 -1 0 816)">
						<stop  offset="0" style="stop-color:#472816"/>
						<stop  offset="1" style="stop-color:#F8B958"/>
					</linearGradient>
					<path class="st64" d="M272.8,410.7c12.1,10.3,20.5,24.4,23.8,40c1,4.4,1.7,8.8,2.7,13.2c1,4.3,2.3,8.6,3.8,12.8
						c1.5,4.2,2.8,8.5,3.9,12.8c1,4.5,1.7,9,2,13.6c0.7,8.7,0.6,17.5,0.5,26.3c0.1,8.2-0.5,16.4-1.5,24.6c-1.1,8-3.4,15.8-7,23
						c-3.9,7.7-9.7,14-15.2,20.5c-11.3,13.7-20.8,28.7-30,43.7l-3.4,5.6c-0.5,0.8,0.8,1.6,1.3,0.8c9.5-15.5,19-31.1,30.3-45.4
						c5.4-6.8,11.5-13,16-20.4c4.2-6.9,7.1-14.5,8.6-22.5c1.5-8,2.3-16.2,2.5-24.4c0.2-8.7,0.3-17.5-0.1-26.2
						c-0.2-9-1.7-18-4.3-26.7c-1.4-4.3-3-8.6-4.3-12.9s-2.1-8.7-3-13.1c-1.6-8.2-3.6-16.2-7.4-23.7c-3.5-7-8.1-13.3-13.6-18.8
						c-1.4-1.4-2.9-2.7-4.3-4C273.2,409,272.1,410.1,272.8,410.7L272.8,410.7z"/>
				</g>
				<g class="st51">
					
						<linearGradient id="SVGID_70_" gradientUnits="userSpaceOnUse" x1="247.33" y1="289.4586" x2="325.79" y2="289.4586" gradientTransform="matrix(1 0 0 -1 0 816)">
						<stop  offset="0" style="stop-color:#472816"/>
						<stop  offset="1" style="stop-color:#F8B958"/>
					</linearGradient>
					<path class="st65" d="M277.7,384c8,3.6,12.9,11.2,16.3,19c1.8,4.2,3.3,8.6,4.7,13c1.8,5.5,3.6,11.1,5.4,16.6
						c7.1,21.8,14.8,43.5,18.3,66.3c1.7,11.7,2.4,23.5,2.3,35.4c0,11.6,0.1,23.5-2.1,34.9c-3.8,20-17.1,36-31.3,50
						s-30,26.8-40.8,43.7c-1.3,2.1-2.6,4.2-3.7,6.4c-0.4,0.8,0.9,1.6,1.3,0.8c9.7-18.4,25.7-32.1,40.5-46.2
						c14.1-13.5,28.2-28.7,33.9-47.8c3.3-11,3.4-22.7,3.6-34.1c0.4-12,0-24-1.3-36c-2.6-23.1-10-45.2-17.2-67.2
						c-3.4-10.5-6.6-21.1-10.5-31.4c-2.9-7.8-6.8-15.9-13.5-21.2c-1.6-1.3-3.4-2.3-5.3-3.2c-0.9-0.4-1.6,0.9-0.8,1.3V384z"/>
				</g>
			</g>
		</g>
		
			<linearGradient id="SVGID_71_" gradientUnits="userSpaceOnUse" x1="125.9051" y1="511.4585" x2="70.7551" y2="696.1985" gradientTransform="matrix(1 0 0 -1 0 816)">
			<stop  offset="0" style="stop-color:#33431C"/>
			<stop  offset="1" style="stop-color:#FCEE5A"/>
		</linearGradient>
		<path class="st66" d="M69.8,272.4c-0.6-1.8-1.3-5.6,3-9.3c8.3-7.1,31.2-10.8,46.7-6.9c8.1,2,11.9,5.5,13.6,7.4
			c7.7-0.6,18.9-1.4,32.6-1.9c35.8-1.2,58.7-2,69.6,3.9c2,1.1,11.6,6.7,2.1,20.1c2.7,0.4,22.8,3.6,29.5,12.4s-2.5,19.6-23.5,25.4
			c13.1,2.9,20,9.5,16.7,15.7c-3.5,6.6-17.6,11.2-32.9,10.5c-2.9,3.3-8.5,8-19,11.4c-20.4,6.6-51,6-77.4-1.5
			c-22.8,12.2-58.4,15.4-82.9,9c-23-6-27.6-18.2-28.3-20.1c-18.2-3.3-29.8-10.9-29.3-18.9c0.6-8.6,15-13.8,17.2-14.5
			c-0.9-0.7-9.8-7.5-2.6-15.2c6.4-6.7,20.3-8.9,22.5-9.2c-1.2-1.9-3.1-5.8,0.7-9.7C33.8,275,50.8,271.2,69.8,272.4z"/>
		
			<linearGradient id="SVGID_72_" gradientUnits="userSpaceOnUse" x1="427.1142" y1="428.9153" x2="371.9642" y2="613.6653" gradientTransform="matrix(1 0 0 -1 0 816)">
			<stop  offset="0" style="stop-color:#33431C"/>
			<stop  offset="1" style="stop-color:#FCEE5A"/>
		</linearGradient>
		<path class="st67" d="M371,354.9c-0.6-1.8-1.3-5.5,3-9.3c8.3-7.1,31.2-10.8,46.7-6.9c8.1,2,11.9,5.5,13.6,7.4
			c7.7-0.6,18.9-1.4,32.5-1.9c35.8-1.2,58.7-2,69.6,3.9c2,1.1,11.6,6.7,2.1,20.1c2.7,0.4,22.8,3.6,29.5,12.4s-2.5,19.6-23.5,25.4
			c13.1,2.9,20,9.5,16.7,15.7c-3.5,6.6-17.6,11.2-32.9,10.5c-2.9,3.4-8.5,8-19,11.4c-20.4,6.6-51,6-77.4-1.5
			c-22.9,12.1-58.4,15.4-82.9,9c-23-6-27.6-18.2-28.3-20.1c-18.2-3.2-29.9-10.9-29.3-18.9c0.6-8.6,15-13.8,17.2-14.5
			c-0.9-0.7-9.8-7.5-2.6-15.2c6.4-6.7,20.3-8.9,22.5-9.2c-1.2-1.9-3.1-5.8,0.7-9.7C335,357.5,352,353.8,371,354.9z"/>
		
			<linearGradient id="SVGID_73_" gradientUnits="userSpaceOnUse" x1="201.2114" y1="627.4774" x2="146.0614" y2="812.2174" gradientTransform="matrix(1 0 0 -1 0 816)">
			<stop  offset="0" style="stop-color:#33431C"/>
			<stop  offset="1" style="stop-color:#FCEE5A"/>
		</linearGradient>
		<path class="st68" d="M145.1,156.4c-0.6-1.8-1.3-5.6,3-9.3c8.3-7.1,31.2-10.8,46.7-6.9c8.1,2,11.9,5.5,13.6,7.4
			c7.7-0.6,18.9-1.4,32.5-1.9c35.8-1.2,58.7-2,69.6,3.9c2,1.1,11.6,6.7,2.1,20.1c2.7,0.4,22.8,3.6,29.5,12.4s-2.5,19.6-23.5,25.4
			c13.1,2.9,20,9.5,16.7,15.7c-3.5,6.6-17.6,11.2-33,10.5c-2.9,3.3-8.5,8-19,11.4c-20.4,6.6-50.9,6-77.4-1.6
			c-22.9,12.2-58.4,15.4-82.9,9c-23-6-27.6-18.2-28.3-20.1c-18.2-3.3-29.9-10.9-29.3-18.9c0.6-8.6,15-13.8,17.2-14.5
			c-0.9-0.7-9.8-7.5-2.6-15.2c6.4-6.7,20.3-8.9,22.5-9.2c-1.2-1.9-3.1-5.8,0.7-9.7C109.1,159,126.1,155.2,145.1,156.4z"/>
		
			<linearGradient id="SVGID_74_" gradientUnits="userSpaceOnUse" x1="344.0578" y1="520.8553" x2="288.9078" y2="705.5953" gradientTransform="matrix(1 0 0 -1 0 816)">
			<stop  offset="0" style="stop-color:#33431C"/>
			<stop  offset="1" style="stop-color:#FCEE5A"/>
		</linearGradient>
		<path class="st69" d="M288,263c-0.6-1.8-1.3-5.6,3-9.3c8.3-7.1,31.2-10.8,46.7-6.9c8.1,2,11.9,5.5,13.6,7.4
			c7.7-0.6,18.9-1.4,32.5-1.9c35.8-1.2,58.7-2,69.6,3.9c2,1.1,11.6,6.7,2.1,20.1c2.7,0.4,22.8,3.6,29.5,12.4s-2.5,19.6-23.5,25.4
			c13.1,2.9,20,9.5,16.7,15.7c-3.5,6.6-17.6,11.2-33,10.5c-2.9,3.3-8.5,8-19,11.4c-20.4,6.6-51,6-77.4-1.5
			c-22.9,12.2-58.4,15.4-82.9,9c-23-6-27.6-18.2-28.3-20.1c-18.2-3.2-29.9-10.9-29.3-18.9c0.6-8.6,15-13.8,17.2-14.5
			c-0.9-0.7-9.8-7.5-2.6-15.2c6.4-6.7,20.3-8.9,22.4-9.2c-1.2-1.9-3.1-5.8,0.7-9.7C251.9,265.6,268.9,261.8,288,263z"/>
		
			<linearGradient id="SVGID_75_" gradientUnits="userSpaceOnUse" x1="1789.2733" y1="511.4111" x2="1954" y2="511.4111" gradientTransform="matrix(1 0 0 -1 0 816)">
			<stop  offset="0" style="stop-color:#563114"/>
			<stop  offset="1" style="stop-color:#744D30"/>
		</linearGradient>
		<path class="st70" d="M1954-60.2c-1.3,13.6-2.8,26.7-4.5,39.4l0,0c-0.2,1.7-0.4,3.4-0.7,5.1l0,0c-2.3,16.7-4.8,32.6-7.6,48
			c-0.3,1.8-0.7,3.6-1,5.4c-2.9,15.3-6,30.1-9.4,44.4l0,0c-0.4,1.8-0.9,3.7-1.3,5.5c-10.7,43.1-24.7,85.2-42,126.1l-1.6,3.8
			c-5.4,12.8-11.2,25.6-17.2,38.6c-0.5,1.1-1,2.2-1.5,3.3c-6.9,14.6-14.2,29.3-21.8,44.4c-0.2,14.2-0.4,29.3-0.6,45
			c0,1.6,0,3.3-0.1,5c-0.2,15.5-0.4,31.6-0.6,48.1c0,2.1,0,4.2-0.1,6.4c-0.1,9.5-0.2,19.2-0.3,28.9c0,2.1-0.1,4.2-0.1,6.4
			c-0.3,26-0.6,52.5-0.9,78.9c0,1.3,0,2.6-0.1,3.9c-0.8,64.4-1.5,127.6-2.1,179.7c-8,5.9-17.8,8.6-27.7,7.7
			c-8.2-0.9-15.9-4.4-22.1-10c9.7-38.8,12.3-58,12.8-68.3c0.1-1.6,0.9-21.8,1.5-33.6l0.4-8.3c1-22.9,2-45.8,3-68.8
			c0.1-2.7,0.2-5.4,0.3-8.1c0.9-20.1,1.7-40.3,2.6-60.4c0.1-1.6,0.2-3.3,0.2-4.9c1.2-26.7,2.3-53.3,3.5-80c0.1-1.3,0.1-2.6,0.2-3.9
			c1.1-24.7,2.1-49.4,3.2-74.2c0.1-1.7,0.1-3.4,0.2-5c0.6-13,1.1-25.9,1.7-38.9c-0.4-2.3-0.9-4.5-1.3-6.8c-0.3-1.5-0.6-3-0.8-4.5
			c-2.1-11.4-4.2-22.8-6.2-34.3c-0.3-1.4-0.5-2.8-0.7-4.2c-2.5-14.3-4.9-28.7-7.2-43.1c-0.3-1.8-0.6-3.5-0.8-5.3
			c-5-32-9.4-64.3-13.4-96.9c-0.1-0.9-0.4-2.6-0.6-4.8c-1-17.4,9.5-33.2,12.1-32.4c1,0.3,0.4,2.9,0.8,5.7c3.7,26.1,7.6,52,11.9,77.8
			c0.4,2.3,0.7,4.5,1.1,6.8c2.9,17.4,5.9,34.7,9.1,51.9c2.2-49.4,4.3-98.9,6.4-148.3c0.2-4.7,0.4-9.5,0.6-14.2l0,0
			c0.7-14.8,1.3-29.7,1.9-44.5c0.1-1.8,0.2-3.5,0.2-5.3c0.7-15.8,1.4-31.6,2.1-47.5c1.8-0.3,3.6-0.7,5.3-1.3c3.3-1.1,7-2.5,9.5-2.7
			c-0.2,22.5-0.5,45.1-0.8,67.6c0,1.3,0,2.6,0,3.9c-0.3,26.8-0.7,53.5-1,80.3c0,1.5,0,2.9-0.1,4.4c-0.3,27.7-0.7,55.3-1,83
			c0,2.4-0.1,4.8-0.1,7.1c-0.4,32-0.8,64-1.2,96v0.3c7.1-11.3,13.8-23.2,20.3-35.6c1.1-2.1,2.1-4.1,3.2-6.2l0,0
			c5.1-10.2,10.1-20.7,14.8-31.6c7.1-16.3,0,0,0,0c1.1-2.5,2.2-5,3.3-7.6l0,0c6.2-14.7,12-29.9,17.5-45.7l0,0c1-2.8,1.9-5.7,2.9-8.5
			l0,0c6.4-19.2,12.2-39,17.4-59.5c0.3-1.3,0.7-2.6,1-3.9c4.3-17.2,8.1-34.8,11.5-52.7c0.2-1.2,0.5-2.5,0.7-3.7
			c2.8-15.5,5.3-31.1,7.4-47L1954-60.2z"/>
		<g>
			<defs>
				<path id="SVGID_76_" d="M1954-60.2c-1.3,13.6-2.8,26.7-4.5,39.4l0,0c-0.2,1.7-0.4,3.4-0.7,5.1l0,0c-2.3,16.7-4.8,32.6-7.6,48
					c-0.3,1.8-0.7,3.6-1,5.4c-2.9,15.3-6,30.1-9.4,44.4l0,0c-0.4,1.8-0.9,3.7-1.3,5.5c-10.7,43.1-24.7,85.2-42,126.1l-1.6,3.8
					c-5.4,12.8-11.2,25.6-17.2,38.6c-0.5,1.1-1,2.2-1.5,3.3c-6.9,14.6-14.2,29.3-21.8,44.4c-0.2,14.2-0.4,29.3-0.6,45
					c0,1.6,0,3.3-0.1,5c-0.2,15.5-0.4,31.6-0.6,48.1c0,2.1,0,4.2-0.1,6.4c-0.1,9.5-0.2,19.2-0.3,28.9c0,2.1-0.1,4.2-0.1,6.4
					c-0.3,26-0.6,52.5-0.9,78.9c0,1.3,0,2.6-0.1,3.9c-0.8,64.4-1.5,127.6-2.1,179.7c-8,5.9-17.8,8.6-27.7,7.7
					c-8.2-0.9-15.9-4.4-22.1-10c9.7-38.8,12.3-58,12.8-68.3c0.1-1.6,0.9-21.8,1.5-33.6l0.4-8.3c1-22.9,2-45.8,3-68.8
					c0.1-2.7,0.2-5.4,0.3-8.1c0.9-20.1,1.7-40.3,2.6-60.4c0.1-1.6,0.2-3.3,0.2-4.9c1.2-26.7,2.3-53.3,3.5-80
					c0.1-1.3,0.1-2.6,0.2-3.9c1.1-24.7,2.1-49.4,3.2-74.2c0.1-1.7,0.1-3.4,0.2-5c0.6-13,1.1-25.9,1.7-38.9c-0.4-2.3-0.9-4.5-1.3-6.8
					c-0.3-1.5-0.6-3-0.8-4.5c-2.1-11.4-4.2-22.8-6.2-34.3c-0.3-1.4-0.5-2.8-0.7-4.2c-2.5-14.3-4.9-28.7-7.2-43.1
					c-0.3-1.8-0.6-3.5-0.8-5.3c-5-32-9.4-64.3-13.4-96.9c-0.1-0.9-0.4-2.6-0.6-4.8c-1-17.4,9.5-33.2,12.1-32.4
					c1,0.3,0.4,2.9,0.8,5.7c3.7,26.1,7.6,52,11.9,77.8c0.4,2.3,0.7,4.5,1.1,6.8c2.9,17.4,5.9,34.7,9.1,51.9
					c2.2-49.4,4.3-98.9,6.4-148.3c0.2-4.7,0.4-9.5,0.6-14.2l0,0c0.7-14.8,1.3-29.7,1.9-44.5c0.1-1.8,0.2-3.5,0.2-5.3
					c0.7-15.8,1.4-31.6,2.1-47.5c1.8-0.3,3.6-0.7,5.3-1.3c3.3-1.1,7-2.5,9.5-2.7c-0.2,22.5-0.5,45.1-0.8,67.6c0,1.3,0,2.6,0,3.9
					c-0.3,26.8-0.7,53.5-1,80.3c0,1.5,0,2.9-0.1,4.4c-0.3,27.7-0.7,55.3-1,83c0,2.4-0.1,4.8-0.1,7.1c-0.4,32-0.8,64-1.2,96v0.3
					c7.1-11.3,13.8-23.2,20.3-35.6c1.1-2.1,2.1-4.1,3.2-6.2l0,0c5.1-10.2,10.1-20.7,14.8-31.6c7.1-16.3,0,0,0,0
					c1.1-2.5,2.2-5,3.3-7.6l0,0c6.2-14.7,12-29.9,17.5-45.7l0,0c1-2.8,1.9-5.7,2.9-8.5l0,0c6.4-19.2,12.2-39,17.4-59.5
					c0.3-1.3,0.7-2.6,1-3.9c4.3-17.2,8.1-34.8,11.5-52.7c0.2-1.2,0.5-2.5,0.7-3.7c2.8-15.5,5.3-31.1,7.4-47L1954-60.2z"/>
			</defs>
			<clipPath id="SVGID_77_">
				<use xlink:href="#SVGID_76_"  style="overflow:visible;"/>
			</clipPath>
			<g class="st71">
				<g class="st51">
					
						<linearGradient id="SVGID_78_" gradientUnits="userSpaceOnUse" x1="1788.8" y1="344.7609" x2="1820.73" y2="344.7609" gradientTransform="matrix(1 0 0 -1 0 816)">
						<stop  offset="0" style="stop-color:#472816"/>
						<stop  offset="1" style="stop-color:#F8B958"/>
					</linearGradient>
					<path class="st72" d="M1810.6,412.9l4.6,13.8c0.8,2.1,1.4,4.3,1.9,6.5c0.4,2.3,0.4,4.7,0.2,7.1c-0.4,4.7-1.2,9.3-1.3,14
						c-0.1,4.5,0.3,9.1,1,13.6c0.8,4.6,2.2,9.1,2.7,13.8c0.5,4.2-0.3,8.4-2.3,12.1c-3.7,6.6-10.2,11-15.9,15.8
						c-6.2,5.2-12.4,11.6-13.1,20.1c-0.1,1,1.4,1,1.5,0c0.6-7.9,6.6-14,12.3-18.8s12-9.1,15.9-15.6c1.9-3.1,3-6.7,3.1-10.4
						c0.1-4.6-1.1-9-2.1-13.5c-1-4.7-1.6-9.5-1.7-14.3c0-4.7,0.3-9.4,1-14.1c0.4-2.6,0.5-5.2,0.4-7.8c-0.2-2.5-0.8-4.9-1.6-7.2
						c-1.7-5.2-3.4-10.4-5.2-15.6C1811.7,411.6,1810.3,412,1810.6,412.9L1810.6,412.9z"/>
				</g>
				<g class="st51">
					
						<linearGradient id="SVGID_79_" gradientUnits="userSpaceOnUse" x1="1784.22" y1="321.6732" x2="1836.96" y2="321.6732" gradientTransform="matrix(1 0 0 -1 0 816)">
						<stop  offset="0" style="stop-color:#472816"/>
						<stop  offset="1" style="stop-color:#F8B958"/>
					</linearGradient>
					<path class="st73" d="M1808.4,364.2c9,15.6,15.3,32.5,20.1,49.8c2.5,8.8,4.6,17.7,6.2,26.7c0.8,4.8,1.2,9.7,1.2,14.6
						c-0.1,4.8-0.7,9.6-1.6,14.4c-1.6,8.8-3.6,17.5-5.6,26.2c-1.9,8.5-3.8,17-5.8,25.4c-4,17-8.9,33.7-14.5,50.2
						c-5.7,16.4-12.8,32.4-21.3,47.5c-1.1,1.9-2.2,3.7-3.3,5.6c-0.2,0.4,0,0.8,0.4,1c0.3,0.1,0.7,0,0.9-0.2
						c9-15,16.5-30.8,22.5-47.2c6.1-16.6,11.2-33.4,15.4-50.6c4.3-17.3,8.1-34.6,11.8-52c2-9.4,3.3-18.7,2.4-28.3
						c-0.9-9.3-3.2-18.4-5.5-27.4c-4.5-17.4-10.3-34.6-18.7-50.5c-1-2-2.1-3.9-3.2-5.8c-0.2-0.4-0.7-0.5-1-0.3
						S1808.3,363.9,1808.4,364.2L1808.4,364.2z"/>
				</g>
				<g class="st51">
					
						<linearGradient id="SVGID_80_" gradientUnits="userSpaceOnUse" x1="1792.98" y1="314.7213" x2="1846.4301" y2="314.7213" gradientTransform="matrix(1 0 0 -1 0 816)">
						<stop  offset="0" style="stop-color:#472816"/>
						<stop  offset="1" style="stop-color:#F8B958"/>
					</linearGradient>
					<path class="st74" d="M1812.1,295.5c0.2,26.5,12.8,50.5,21,75.1c8.9,26.8,11.3,55,12,83c0.7,27.8,1.1,55.8-1.6,83.5
						c-1.3,14-3.8,27.8-7.5,41.3c-3.9,13.6-9.7,26.5-15.6,39.3c-5.8,12.5-11.4,25-15.8,38.1c-4.5,13.3-8,26.9-10.4,40.8
						c-0.6,3.4-1.1,6.9-1.6,10.3c-0.1,1,1.3,1.4,1.4,0.4c3.9-28.2,12.3-55.2,24.1-81c5.8-12.7,11.9-25.2,16.5-38.4
						c4.4-13.1,7.5-26.7,9.3-40.4c3.7-27.3,3.3-55.1,3-82.6c-0.3-27.9-1.6-56.1-8.8-83.1c-6.8-25.8-20.8-49.8-23.8-76.5
						c-0.4-3.2-0.6-6.5-0.6-9.7c0-0.4-0.3-0.8-0.8-0.8S1812.1,295,1812.1,295.5L1812.1,295.5z"/>
				</g>
				<g class="st51">
					
						<linearGradient id="SVGID_81_" gradientUnits="userSpaceOnUse" x1="1813.97" y1="494.9152" x2="1854.67" y2="494.9152" gradientTransform="matrix(1 0 0 -1 0 816)">
						<stop  offset="0" style="stop-color:#472816"/>
						<stop  offset="1" style="stop-color:#F8B958"/>
					</linearGradient>
					<path class="st75" d="M1813.6,255.1c16.4,32.3,28.2,66.6,35.3,102.1c2,10,3.6,20.1,4.8,30.3c0.1,0.9,1.6,1,1.5,0
						c-4.3-36.2-13.6-71.6-27.5-105.3c-3.9-9.4-8.2-18.7-12.8-27.8C1814.4,253.5,1813.1,254.3,1813.6,255.1L1813.6,255.1z"/>
				</g>
			</g>
		</g>
		
			<linearGradient id="SVGID_82_" gradientUnits="userSpaceOnUse" x1="1993.2363" y1="809.0159" x2="1920.9863" y2="1051.0759" gradientTransform="matrix(1 0 0 -1 0 816)">
			<stop  offset="0" style="stop-color:#33431C"/>
			<stop  offset="1" style="stop-color:#FCEE5A"/>
		</linearGradient>
		<path class="st76" d="M1938.9-37.7c-1.2-4.6-0.1-9.5,3-13.1c8.3-10.1,31.2-15.2,46.7-9.7c8.1,2.8,11.9,7.8,13.6,10.5
			c7.7-0.9,18.9-2,32.6-2.7c35.8-1.7,58.7-2.8,69.6,5.5c2,1.5,11.6,9.5,2.1,28.4c2.7,0.6,22.8,5.1,29.5,17.6s-2.5,27.7-23.5,35.8
			c13.1,4.1,20,13.4,16.7,22.2c-3.5,9.3-17.6,15.8-32.9,14.9c-2.9,4.7-8.4,11.3-19,16.1c-20.4,9.3-51,8.4-77.4-2.2
			c-22.8,17.2-58.4,21.7-82.9,12.7c-23-8.5-27.6-25.7-28.2-28.4c-18.2-4.6-29.9-15.4-29.3-26.7c0.6-12.1,15-19.5,17.2-20.5
			c-0.9-0.9-9.8-10.6-2.6-21.5c6.4-9.5,20.3-12.5,22.4-12.9c-1.2-2.6-3.1-8.1,0.7-13.7C1902.9-34.1,1919.9-39.4,1938.9-37.7z"/>
		
			<linearGradient id="SVGID_83_" gradientUnits="userSpaceOnUse" x1="1713.5204" y1="851.9241" x2="1575.6003" y2="1313.9442" gradientTransform="matrix(1 0 0 -1 0 816)">
			<stop  offset="0" style="stop-color:#33431C"/>
			<stop  offset="1" style="stop-color:#FCEE5A"/>
		</linearGradient>
		<path class="st77" d="M1609.8-121.2c-2.3-8.8-0.1-18.1,5.8-25c15.8-19.2,59.6-29,89.2-18.6c15.4,5.4,22.7,14.9,25.9,20
			c14.7-1.7,36.1-3.8,62.1-5.1c68.4-3.3,112-5.4,132.9,10.5c3.8,2.9,22.2,18,4,54.2c5.2,1.1,43.5,9.6,56.4,33.5s-4.8,52.9-44.9,68.4
			c25,7.8,38.1,25.6,31.8,42.4c-6.7,17.8-33.5,30.1-62.9,28.4c-5.6,9-16.2,21.5-36.2,30.7c-38.8,17.8-97.3,16.1-147.8-4.2
			c-43.6,32.8-111.4,41.4-158.2,24.2c-43.8-16.2-52.7-49-53.9-54.2c-34.7-8.7-57-29.3-55.9-50.9c1.2-23.1,28.7-37.2,32.8-39.2
			c-1.7-1.8-18.8-20.3-4.9-40.9c12.2-18.1,38.8-23.9,42.9-24.7c-2.3-5-5.9-15.5,1.3-26.1C1541.1-114.3,1573.5-124.4,1609.8-121.2z"
			/>
		
			<linearGradient id="SVGID_84_" gradientUnits="userSpaceOnUse" x1="1711.4811" y1="644.7744" x2="1639.2311" y2="886.8243" gradientTransform="matrix(1 0 0 -1 0 816)">
			<stop  offset="0" style="stop-color:#33431C"/>
			<stop  offset="1" style="stop-color:#FCEE5A"/>
		</linearGradient>
		<path class="st78" d="M1657.2,126.5c-1.2-4.6-0.1-9.5,3-13.1c8.3-10.1,31.2-15.2,46.7-9.7c8.1,2.8,11.9,7.8,13.6,10.5
			c7.7-0.9,18.9-2,32.6-2.7c35.8-1.7,58.7-2.8,69.6,5.5c2,1.5,11.6,9.4,2.1,28.4c2.7,0.6,22.8,5,29.5,17.6s-2.5,27.7-23.5,35.8
			c13.1,4.1,20,13.4,16.7,22.2c-3.5,9.3-17.6,15.8-32.9,14.9c-2.9,4.7-8.5,11.3-19,16.1c-20.3,9.3-51,8.4-77.4-2.2
			c-22.8,17.2-58.4,21.7-82.9,12.7c-23-8.5-27.6-25.7-28.2-28.4c-18.2-4.6-29.9-15.4-29.3-26.7c0.6-12.1,15-19.5,17.2-20.5
			c-0.9-0.9-9.8-10.6-2.6-21.4c6.4-9.5,20.3-12.5,22.4-12.9c-1.2-2.6-3.1-8.1,0.7-13.7C1621.2,130.2,1638.1,124.9,1657.2,126.5z"/>
		<path class="st79" d="M1872.4,507.4c-21.6-21.7-32.7-32.3-33.1-31.8s12.2,14.8,38.1,43.1C1875.7,515,1874,511.2,1872.4,507.4z"/>
		<path class="st79" d="M2182.4,499.5c9.3-7.9,14.1-11.7,14.4-11.3c0.3,0.3-5,5.9-16,16.7c-18.1,14.3-27.3,21.2-27.4,20.8
			C2153.1,525.2,2163.4,515.7,2182.4,499.5z"/>
		<path class="st80" d="M2181.5,500.7c-26.3,15.8-54.6,27.8-84.3,35.6c-98.2,25.4-180.6-6.8-226.9-31.5l1.9,5.4
			c6.1,10,13.4,19.3,21.6,27.7c0,0,20.9,21,51.8,30.2c31.9,9.5,101.2,7,189.5-18.4L2181.5,500.7z"/>
		<path class="st81" d="M1870.3,504.8c0.6,1.8,1.4,4,2.3,6.4c0,0,0.4,1,1,2.6c0,0,1.1,2.9,2.2,5.6c1.3,3.2,72.7,89.5,175,73.4
			c81.8-12.8,124.7-81.9,131.6-93.4c-27.4,20.6-82.9,55.4-156.8,56.3C1953,556.7,1897.9,524.4,1870.3,504.8z"/>
		<path class="st80" d="M2000.7,566c4.5,2.1,9.3,3.8,14.2,5c17,4.8,35.3,2.1,50.3-7.4c-9,4.2-18.8,6.8-28.7,7.6
			C2024.2,572.1,2012,570.3,2000.7,566z"/>
		<path class="st80" d="M1953.9,561.5c4.8,5.3,10.4,10,16.6,13.8c11.5,7.1,24.9,10.6,38.4,10.1c-10.7-1.5-21.1-4.6-30.9-9.1
			C1969.4,572.3,1961.3,567.4,1953.9,561.5z"/>
		<path class="st80" d="M1810.3,462.9c11.3,4.5,24.1,2.5,33.5-5.2c-0.2,4.6-0.4,9.3-0.5,14.1c-0.1,3.1-0.1,6.3-0.2,9.3
			c-2.2,1.5-4.6,2.7-7.2,3.4c-2.4,0.7-4.9,0.9-7.4,0.8c-7.9-0.2-15.1-3.6-18.2-5.2c-0.2-2.4-0.3-4.9-0.3-7.6
			C1810,469.1,1810.1,465.9,1810.3,462.9z"/>
		<path class="st80" d="M2192.7,484.4c0.1,0.2,4,6,10.7,5.7c5.1-0.3,9.4-3.7,11-8.5c0.2,1.8,0.3,3.7,0.3,5.5c0,2.6-0.3,5.2-0.8,7.8
			c-2.3,2.7-5.7,4.5-9.3,4.8c-7.2,0.6-11.7-5-12-5.5c0-1.6-0.1-3.7-0.1-6.2C2192.6,486.6,2192.6,485.4,2192.7,484.4z"/>
		
			<linearGradient id="SVGID_85_" gradientUnits="userSpaceOnUse" x1="301.3086" y1="152.0246" x2="255.1086" y2="306.7846" gradientTransform="matrix(1 0 0 -1 0 816)">
			<stop  offset="0" style="stop-color:#33431C"/>
			<stop  offset="1" style="stop-color:#FCEE5A"/>
		</linearGradient>
		<path class="st82" d="M292.7,691.7h96c-0.7-4.2-4.8-8.1-11.1-10c13.4-5.2,19.3-15,15-22.9s-17.2-10.9-18.9-11.2
			c0.9-3.9,1.8-11-1.4-18.1c-6.4-14.6-25.7-20.4-40.5-17.6c-13.7,2.6-22,12.2-24.8,15.8c-2-3.2-5.1-5.6-8.7-6.7
			c-9.9-3.5-24.6-0.2-29.9,6.2c-2,2.3-2.7,5.4-1.9,8.4c-12.2-1.1-23,2.3-26.7,7.8c-1.7,2.6-1.9,6-0.4,8.8
			c-1.4,0.3-10.3,2.2-14.4,8.3c-4.6,6.9,1.1,13.1,1.6,13.7c-1.4,0.7-10.6,5.4-11,13.1c-0.1,1.6,0.2,3.1,0.9,4.6
			C242,691.8,267.3,691.7,292.7,691.7z"/>
		
			<linearGradient id="SVGID_86_" gradientUnits="userSpaceOnUse" x1="1790.5907" y1="127.1153" x2="1744.3906" y2="281.8853" gradientTransform="matrix(1 0 0 -1 0 816)">
			<stop  offset="0" style="stop-color:#33431C"/>
			<stop  offset="1" style="stop-color:#FCEE5A"/>
		</linearGradient>
		<path class="st83" d="M1781.9,716.5h96c-0.7-4.2-4.8-8.1-11.1-10c13.4-5.2,19.3-15,15-22.9s-17.2-10.9-18.9-11.2
			c0.9-3.9,1.8-11-1.3-18.2c-6.4-14.6-25.7-20.3-40.5-17.6c-13.7,2.6-22,12.2-24.8,15.8c-2-3.2-5.1-5.6-8.7-6.7
			c-9.9-3.5-24.6-0.2-29.9,6.2c-2,2.3-2.7,5.4-1.9,8.4c-12.2-1-23,2.3-26.8,7.9c-1.7,2.6-1.9,6-0.4,8.8c-1.4,0.3-10.3,2.2-14.3,8.3
			c-4.7,6.9,1.1,13.1,1.6,13.7c-1.4,0.7-10.6,5.4-11,13.1c-0.1,1.6,0.2,3.1,0.8,4.6C1731.2,716.7,1756.6,716.5,1781.9,716.5z"/>
		
			<linearGradient id="SVGID_87_" gradientUnits="userSpaceOnUse" x1="1714.6504" y1="208.0071" x2="1692.6204" y2="281.7871" gradientTransform="matrix(1 0 0 -1 0 816)">
			<stop  offset="0" style="stop-color:#33431C"/>
			<stop  offset="1" style="stop-color:#FCEE5A"/>
		</linearGradient>
		<path class="st84" d="M1710.5,621.2h45.8c-0.3-2-2.3-3.8-5.3-4.8c6.4-2.5,9.2-7.1,7.2-10.9s-8.2-5.2-9-5.3
			c0.7-2.9,0.5-5.9-0.7-8.7c-3-7-12.2-9.7-19.3-8.4c-4.7,1-8.9,3.7-11.8,7.5c-1-1.5-2.4-2.7-4.1-3.2c-4.7-1.7-11.7-0.1-14.2,3
			c-0.9,1.1-1.3,2.6-0.9,4c-5.8-0.5-11,1.1-12.8,3.7c-0.8,1.3-0.9,2.9-0.2,4.2c-0.7,0.1-4.9,1-6.8,3.9c-2.2,3.3,0.5,6.3,0.8,6.5
			c-0.7,0.3-5.1,2.6-5.2,6.3c0,0.8,0.1,1.5,0.4,2.2C1686.3,621.2,1698.4,621.2,1710.5,621.2z"/>
		
			<linearGradient id="SVGID_88_" gradientUnits="userSpaceOnUse" x1="1322.3978" y1="231.3044" x2="1276.1978" y2="386.0744" gradientTransform="matrix(-1 0 0 -1 1774.7 816)">
			<stop  offset="0" style="stop-color:#33431C"/>
			<stop  offset="1" style="stop-color:#FCEE5A"/>
		</linearGradient>
		<path class="st85" d="M461,612.4h-96c0.7-4.2,4.8-8.1,11.1-10c-13.4-5.2-19.3-15-15-22.9s17.2-10.9,18.9-11.2
			c-0.9-3.9-1.8-11,1.3-18.2c6.4-14.6,25.7-20.3,40.5-17.6c13.7,2.6,22,12.2,24.8,15.8c2-3.2,5.1-5.5,8.7-6.7
			c9.9-3.5,24.6-0.2,29.9,6.2c1.9,2.3,2.6,5.5,1.8,8.4c12.2-1,23,2.3,26.8,7.9c1.7,2.6,1.9,6,0.4,8.8c1.4,0.3,10.3,2.2,14.4,8.3
			c4.6,6.9-1.1,13.1-1.6,13.7c1.4,0.7,10.6,5.4,11,13.1c0.1,1.6-0.2,3.1-0.8,4.6C511.7,612.5,486.3,612.4,461,612.4z"/>
		
			<linearGradient id="SVGID_89_" gradientUnits="userSpaceOnUse" x1="946.1384" y1="249.2046" x2="899.9384" y2="403.9646" gradientTransform="matrix(1 0 0 -1 0 816)">
			<stop  offset="0" style="stop-color:#33431C"/>
			<stop  offset="1" style="stop-color:#FCEE5A"/>
		</linearGradient>
		<path class="st86" d="M937.5,594.5h96c-0.7-4.2-4.8-8.1-11.1-10c13.4-5.2,19.3-15,15-22.9s-17.2-10.9-18.9-11.2
			c0.9-3.9,1.8-11-1.3-18.1c-6.4-14.6-25.7-20.4-40.5-17.6c-13.7,2.6-22,12.2-24.8,15.8c-2-3.2-5.1-5.6-8.7-6.7
			c-9.9-3.5-24.6-0.2-29.9,6.2c-2,2.3-2.7,5.4-1.9,8.4c-12.2-1.1-23,2.3-26.7,7.8c-1.7,2.6-1.9,6-0.4,8.8
			c-1.4,0.3-10.3,2.2-14.4,8.3c-4.6,6.9,1.1,13.1,1.6,13.7c-1.4,0.7-10.6,5.4-11,13.1c-0.1,1.6,0.2,3.1,0.8,4.6
			C886.8,594.6,912.1,594.5,937.5,594.5z"/>
		
			<linearGradient id="SVGID_90_" gradientUnits="userSpaceOnUse" x1="574.0274" y1="223.4403" x2="527.8274" y2="378.2003" gradientTransform="matrix(1 0 0 -1 0 816)">
			<stop  offset="0" style="stop-color:#33431C"/>
			<stop  offset="1" style="stop-color:#FCEE5A"/>
		</linearGradient>
		<path class="st87" d="M565.3,620.2h96c-0.7-4.2-4.8-8.1-11.1-10c13.4-5.2,19.3-15,15-22.9s-17.1-10.9-18.8-11.3
			c0.9-3.9,1.8-11-1.3-18.1c-6.4-14.6-25.7-20.4-40.5-17.6c-13.8,2.6-22,12.2-24.8,15.8c-2-3.2-5.1-5.6-8.7-6.7
			c-9.9-3.5-24.6-0.2-29.9,6.2c-2,2.3-2.7,5.4-1.9,8.4c-12.2-1.1-23,2.3-26.8,7.8c-1.7,2.6-1.9,6-0.4,8.8
			c-1.4,0.3-10.3,2.2-14.4,8.3c-4.6,6.9,1.1,13.1,1.6,13.7c-1.4,0.7-10.6,5.4-11,13.1c-0.1,1.6,0.2,3.1,0.9,4.6
			C514.7,620.3,540,620.2,565.3,620.2z"/>
		
			<linearGradient id="SVGID_91_" gradientUnits="userSpaceOnUse" x1="117.5745" y1="270.43" x2="311.4145" y2="270.43" gradientTransform="matrix(1 0 0 -1 0 816)">
			<stop  offset="0" style="stop-color:#563114"/>
			<stop  offset="1" style="stop-color:#744D30"/>
		</linearGradient>
		<path class="st88" d="M173.2,605.5c-0.3,12.1-0.8,23.9-1.5,35.4c1.5-1.7,3.6-3,5.8-3.6c5.7-1.5,10.3,1.8,10.9,2.3
			c-2-16.3-4.1-32.5-6.1-48.8c34.7-24.4,51.7-37.1,51-38.1s-18.8,9.5-54.3,31.6c0-14.9-0.1-29.8-0.1-44.8
			c14.3-29.8,28.6-59.6,42.8-89.4l-45.5,86.6c-38.1-35.8-57.6-53.3-58.6-52.3c-1,1,17.5,21.3,55.5,60.9
			C173.7,564.6,173.8,584.7,173.2,605.5z"/>
		
			<linearGradient id="SVGID_92_" gradientUnits="userSpaceOnUse" x1="105.2265" y1="276.999" x2="63.0465" y2="418.289" gradientTransform="matrix(1 0 0 -1 0 816)">
			<stop  offset="0" style="stop-color:#33431C"/>
			<stop  offset="1" style="stop-color:#FCEE5A"/>
		</linearGradient>
		<path class="st89" d="M73.5,512.9c-0.7-2.7,0-5.5,1.8-7.6c4.8-5.9,18.2-8.9,27.3-5.7c3.3,1,6.1,3.2,7.9,6.1c4.5-0.5,11-1.2,19-1.5
			c20.9-1,34.2-1.6,40.6,3.2c1.2,0.9,6.8,5.5,1.2,16.6c1.6,0.3,13.3,2.9,17.2,10.3s-1.5,16.2-13.7,20.9c7.6,2.4,11.7,7.8,9.7,13
			c-2,5.4-10.3,9.2-19.2,8.7c-2.7,4.2-6.5,7.4-11.1,9.4c-11.9,5.5-29.7,4.9-45.2-1.3c-13.3,10-34.1,12.7-48.4,7.4
			c-13.4-4.9-16.1-15-16.5-16.6c-10.6-2.7-17.4-9-17.1-15.6c0.4-7.1,8.8-11.4,10-12c-0.5-0.5-5.7-6.2-1.5-12.5
			c3.7-5.5,11.9-7.3,13.1-7.6c-1.3-2.5-1.2-5.6,0.4-8C52.5,515,62.4,512,73.5,512.9z"/>
		
			<linearGradient id="SVGID_93_" gradientUnits="userSpaceOnUse" x1="137.2373" y1="184.9973" x2="91.0373" y2="339.7572" gradientTransform="matrix(1 0 0 -1 0 816)">
			<stop  offset="0" style="stop-color:#33431C"/>
			<stop  offset="1" style="stop-color:#FCEE5A"/>
		</linearGradient>
		<path class="st90" d="M128.6,658.7h96c-0.7-4.2-4.8-8.1-11.1-10c13.4-5.2,19.3-15,15-22.9s-17.2-10.9-18.9-11.2
			c0.9-3.9,1.8-11-1.4-18.1c-6.4-14.6-25.7-20.4-40.5-17.6c-13.8,2.6-22,12.2-24.8,15.8c-2-3.2-5.1-5.6-8.7-6.7
			c-9.9-3.5-24.6-0.2-29.9,6.2c-2,2.3-2.7,5.4-1.9,8.4c-12.2-1.1-23,2.3-26.8,7.8c-1.7,2.6-1.9,6-0.4,8.8
			c-1.3,0.2-10.2,2.2-14.3,8.2c-4.6,6.9,1.1,13.1,1.6,13.7c-1.4,0.7-10.6,5.4-11,13.1c-0.1,1.6,0.2,3.1,0.8,4.6
			C77.9,658.8,103.2,658.7,128.6,658.7z"/>
		
			<linearGradient id="SVGID_94_" gradientUnits="userSpaceOnUse" x1="141.6053" y1="367.9486" x2="99.4253" y2="509.2386" gradientTransform="matrix(1 0 0 -1 0 816)">
			<stop  offset="0" style="stop-color:#33431C"/>
			<stop  offset="1" style="stop-color:#FCEE5A"/>
		</linearGradient>
		<path class="st91" d="M109.9,422c-0.7-2.7,0-5.5,1.8-7.7c4.8-5.9,18.2-8.9,27.3-5.7c3.3,1.1,6.1,3.2,7.9,6.1
			c4.5-0.5,11-1.2,19-1.5c20.9-1,34.3-1.6,40.6,3.2c1.2,0.9,6.8,5.5,1.2,16.6c1.6,0.3,13.3,3,17.2,10.3s-1.5,16.2-13.7,20.9
			c7.6,2.4,11.7,7.8,9.7,13c-2,5.4-10.3,9.2-19.2,8.7c-2.7,4.2-6.5,7.4-11.1,9.4c-11.9,5.5-29.7,4.9-45.2-1.3
			c-13.3,10-34.1,12.7-48.4,7.4c-13.4-4.9-16.1-15-16.5-16.6c-10.6-2.7-17.4-9-17.1-15.6c0.3-7.1,8.8-11.4,10-12
			c-0.5-0.6-5.7-6.3-1.5-12.6c3.7-5.5,11.9-7.3,13.1-7.5c-1.3-2.5-1.2-5.6,0.4-8C88.9,424.1,98.8,421,109.9,422z"/>
		
			<linearGradient id="SVGID_95_" gradientUnits="userSpaceOnUse" x1="202.9922" y1="364.5277" x2="160.8122" y2="505.8277" gradientTransform="matrix(1 0 0 -1 0 816)">
			<stop  offset="0" style="stop-color:#33431C"/>
			<stop  offset="1" style="stop-color:#FCEE5A"/>
		</linearGradient>
		<path class="st92" d="M171.3,425.4c-0.7-2.7,0-5.5,1.8-7.6c4.8-5.9,18.2-8.9,27.3-5.7c3.3,1.1,6.1,3.2,7.9,6.1
			c4.5-0.5,11-1.2,19-1.6c20.9-1,34.3-1.6,40.6,3.2c1.2,0.9,6.8,5.5,1.2,16.6c1.6,0.3,13.3,3,17.2,10.3s-1.5,16.2-13.7,20.9
			c7.6,2.4,11.7,7.8,9.7,13c-2,5.4-10.3,9.2-19.2,8.7c-2.7,4.2-6.6,7.4-11.1,9.4c-11.9,5.5-29.8,4.9-45.2-1.3
			c-13.3,10-34.1,12.7-48.4,7.4c-13.4-4.9-16.1-15-16.5-16.6c-10.6-2.7-17.4-9-17.1-15.6c0.3-7.1,8.8-11.4,10-12
			c-0.5-0.5-5.7-6.2-1.5-12.5c3.7-5.5,11.9-7.3,13.1-7.5c-1.3-2.5-1.2-5.6,0.4-8C150.3,427.5,160.2,424.4,171.3,425.4z"/>
		
			<linearGradient id="SVGID_96_" gradientUnits="userSpaceOnUse" x1="211.4671" y1="56.7651" x2="60.1272" y2="563.7351" gradientTransform="matrix(1 0 0 -1 0 816)">
			<stop  offset="0" style="stop-color:#33431C"/>
			<stop  offset="1" style="stop-color:#FCEE5A"/>
		</linearGradient>
		<path class="st93" d="M19.9,692.1c3.4-13.9,10.7-26.6,21-36.6c20.3-19.3,51.1-25.7,77.3-16.7c18.3,6.3,29.6,18.5,34.8,25.1
			c13.2-12.5,33.2-14.2,47.5-4.3c13,8.9,19,25.7,14.7,41.4c6.2-9.6,17.6-14.5,28.8-12.1c12.3,2.7,21.3,14.1,21.2,27.3
			c-5.2-19.1,6.1-38.7,25.2-43.9c10.7-2.9,22.1-0.7,30.9,6c9.6-14.1,26.8-20.8,42.4-16.7c18,4.7,30.6,22.7,28.8,42.4
			c17.5,1.2,32.2,13,36.4,28.8c4.9,18.7-5.9,39.5-25.8,47c11.1-5.5,42.9-19.5,78.8-9.1c51.5,14.8,87.4,72.8,75.8,98.5
			c-11.5,25.5-77,35.7-289.3-13.3c-4.4,7.2-12.9,17.2-28.9,24.5c-31,14.2-77.6,12.9-117.9-3.3c-34.8,26.1-88.9,33-126.2,19.3
			c-35-12.9-42-39.1-43-43.2c-27.7-7-45.5-23.4-44.6-40.6c0.9-18.4,22.8-29.7,26.1-31.3c-1.3-1.4-15-16.2-3.9-32.7
			c9.7-14.4,30.9-19,34.2-19.7c-2.2-4.4-2.9-9.4-1.9-14.2c0.6-2.4,1.6-4.6,2.9-6.7C-30.1,701.3-9,694.8,19.9,692.1z"/>
		
			<linearGradient id="SVGID_97_" gradientUnits="userSpaceOnUse" x1="353.9336" y1="-43.279" x2="202.5936" y2="463.6911" gradientTransform="matrix(1 0 0 -1 0 816)">
			<stop  offset="0" style="stop-color:#33431C"/>
			<stop  offset="1" style="stop-color:#FCEE5A"/>
		</linearGradient>
		<path class="st94" d="M162.3,792.2c3.4-13.9,10.7-26.6,21-36.6c20.3-19.3,51.1-25.7,77.3-16.7c13.7,4.9,25.8,13.6,34.8,25.1
			c13.2-12.5,33.2-14.2,47.5-4.3c13,8.9,19,25.7,14.7,41.4c6.2-9.6,17.6-14.4,28.8-12.1c12.3,2.7,21.3,14.1,21.2,27.3
			c-5.2-19.1,6.1-38.7,25.2-43.9c10.7-2.9,22.1-0.7,30.9,6c9.6-14.1,26.8-20.8,42.5-16.7c18,4.7,30.6,22.7,28.8,42.4
			c17.5,1.2,32.2,13,36.4,28.8c4.9,18.7-5.9,39.5-25.8,47c11.1-5.5,42.9-19.4,78.8-9.1c51.5,14.9,87.4,72.8,75.8,98.5
			c-11.5,25.5-77,35.7-289.3-13.2c-4.4,7.2-12.9,17.1-28.9,24.5c-31,14.2-77.6,12.8-117.9-3.3c-34.8,26.1-88.9,33-126.2,19.3
			c-35-12.9-42-39.1-43-43.3c-27.7-7-45.5-23.4-44.6-40.6c0.9-18.4,22.8-29.6,26.1-31.3c-1.3-1.4-15-16.2-3.9-32.7
			c9.7-14.4,30.9-19,34.2-19.7c-2.2-4.4-2.9-9.4-1.9-14.2c0.6-2.4,1.6-4.6,2.9-6.6C112.3,801.4,133.5,794.8,162.3,792.2z"/>
		
			<linearGradient id="SVGID_98_" gradientUnits="userSpaceOnUse" x1="2174.293" y1="26.4509" x2="2022.953" y2="533.4109" gradientTransform="matrix(1 0 0 -1 0 816)">
			<stop  offset="0" style="stop-color:#33431C"/>
			<stop  offset="1" style="stop-color:#FCEE5A"/>
		</linearGradient>
		<path class="st95" d="M1982.7,722.4c3.4-13.9,10.7-26.6,21-36.6c20.3-19.3,51.1-25.7,77.3-16.7c18.3,6.3,29.6,18.5,34.8,25
			c13.2-12.5,33.2-14.2,47.5-4.3c13,8.9,19,25.7,14.7,41.4c6.2-9.6,17.6-14.4,28.8-12.1c12.2,2.7,21.3,14.1,21.2,27.3
			c-5.2-19.1,6.1-38.7,25.2-43.9c10.7-2.9,22.1-0.7,30.9,6c9.6-14.1,26.8-20.8,42.4-16.7c18,4.7,30.6,22.6,28.8,42.4
			c17.6,1.2,32.3,13,36.4,28.8c4.9,18.7-5.9,39.5-25.8,47c11.1-5.5,42.9-19.5,78.8-9.1c51.5,14.9,87.4,72.8,75.8,98.5
			c-11.5,25.5-77,35.7-289.3-13.3c-4.4,7.2-12.9,17.2-28.9,24.5c-31,14.2-77.6,12.8-117.9-3.3c-34.8,26.1-88.9,33-126.2,19.3
			c-34.9-12.9-42-39.1-43-43.2c-27.7-7-45.5-23.4-44.6-40.6c0.9-18.4,22.8-29.6,26.2-31.3c-1.3-1.4-15-16.2-3.9-32.6
			c9.7-14.4,30.9-19,34.2-19.7c-2.2-4.4-2.9-9.4-1.9-14.2c0.6-2.4,1.6-4.6,2.9-6.7C1932.7,731.6,1953.8,725.1,1982.7,722.4z"/>
	</g>
</g>
<path class="st96" d="M1843.8,457.7c32.5,5.5,66.2,10.3,101,14.6c83.6,10.1,167.7,15.4,251.9,15.9"/>
<path class="st97" d="M1843.3,465.8h38.6c8.6,8,19.7,12.9,31.4,13.9c9.8,0.8,19.7-1.2,28.4-5.8c12.2,11.4,30.4,13.4,44.8,5
	c1,1.2,11.3,13.2,26.9,11.9c6.6-0.6,12.8-3.4,17.7-7.8c5,5.7,11.8,9.4,19.4,10.5c13.3,1.7,22.7-6.1,24.2-7.4
	c1.8,1.6,10.7,9.5,23.9,8.9c6.6-0.4,13-2.7,18.2-6.7c0.7,0.8,12,13,27.3,10.1c5.9-1.2,11.2-4.3,15.2-8.7l33.4,4.7
	c-22.6,73.1-83.4,125.9-152.4,132.8C1951.4,636.2,1861.4,568.1,1843.3,465.8z"/>
<path class="st96" d="M1843.3,465.8h38.6c8.6,8,19.7,12.9,31.4,13.9c9.8,0.8,19.7-1.2,28.4-5.8c12.2,11.4,30.4,13.4,44.8,5
	c1,1.2,11.3,13.2,26.9,11.9c6.6-0.6,12.8-3.4,17.7-7.8c5,5.7,11.8,9.4,19.4,10.5c13.3,1.7,22.7-6.1,24.2-7.4
	c1.8,1.6,10.7,9.5,23.9,8.9c6.6-0.4,13-2.7,18.2-6.7c0.7,0.8,12,13,27.3,10.1c5.9-1.2,11.2-4.3,15.2-8.7l33.4,4.7
	c-22.6,73.1-83.4,125.9-152.4,132.8C1951.4,636.2,1861.4,568.1,1843.3,465.8z"/>
<path class="st80" d="M1881.1,463.1l-0.1,2.9l1.8,0.7c0.2-1.1,0.4-2.2,0.6-3.3c-0.4-0.2-0.8-0.4-1.2-0.4
	C1881.8,462.9,1881.4,463,1881.1,463.1z"/>
<path class="st80" d="M1940.8,471.2l-0.1,2.9l1.8,0.7c0.2-1.1,0.4-2.2,0.6-3.3c-0.3-0.3-0.8-0.4-1.2-0.5
	C1941.5,471.1,1941.1,471.1,1940.8,471.2z"/>
<path class="st80" d="M1985.9,476.3l-0.2,2.9l1.8,0.7c0.2-1.1,0.4-2.2,0.6-3.3c-0.4-0.2-0.8-0.4-1.2-0.4
	C1986.6,476.1,1986.2,476.1,1985.9,476.3z"/>
<path class="st80" d="M2030.5,480.4c-1.7,49.2-3.4,98.4-5.1,147.6h1.7l5.6-147.3L2030.5,480.4z"/>
<path class="st80" d="M2073.8,483.4l-0.1,2.9l1.8,0.7c0.2-1.1,0.4-2.2,0.6-3.3c-0.4-0.3-0.8-0.4-1.2-0.5
	C2074.5,483.2,2074.2,483.2,2073.8,483.4z"/>
<path class="st80" d="M2116.1,485.9l-0.1,2.9l1.8,0.7c0.2-1.1,0.4-2.2,0.6-3.3c-0.3-0.2-0.8-0.4-1.2-0.4
	C2116.8,485.8,2116.5,485.8,2116.1,485.9z"/>
<path class="st80" d="M2158.9,487.1l-0.1,2.9l1.8,0.7c0.2-1.1,0.4-2.2,0.6-3.3c-0.4-0.2-0.8-0.4-1.2-0.4
	C2159.6,486.9,2159.2,486.9,2158.9,487.1z"/>
</svg>
