<svg id="Слой_1" data-name="Слой 1" xmlns="http://www.w3.org/2000/svg" xmlns:xlink="http://www.w3.org/1999/xlink" viewBox="0 0 2704 1520"><defs><style>.cls-1{fill:url(#Безымянный_градиент_2);}.cls-2,.cls-91{fill:none;}.cls-2{clip-path:url(#clip-path);}.cls-3{fill:url(#Безымянный_градиент_19);}.cls-4{fill:url(#Безымянный_градиент_19-2);}.cls-5{fill:url(#Безымянный_градиент_12);}.cls-6{fill:url(#Безымянный_градиент_12-2);}.cls-7{fill:url(#Безымянный_градиент_12-3);}.cls-8{clip-path:url(#clip-path-2);}.cls-9{fill:#f6f8e2;fill-rule:evenodd;opacity:0.35;}.cls-10{opacity:0.57;fill:url(#Безымянный_градиент_19-3);}.cls-11{clip-path:url(#clip-path-3);}.cls-12{fill:url(#Безымянный_градиент_19-5);}.cls-13{fill:url(#Безымянный_градиент_19-6);}.cls-14{clip-path:url(#clip-path-4);}.cls-15{fill:url(#Безымянный_градиент_19-8);}.cls-16{fill:url(#Безымянный_градиент_7);}.cls-17{fill:url(#Безымянный_градиент_7-2);}.cls-18{fill:url(#Безымянный_градиент_7-3);}.cls-19{fill:url(#Безымянный_градиент_7-4);}.cls-20{fill:url(#Безымянный_градиент_7-5);}.cls-21{fill:url(#Безымянный_градиент_7-6);}.cls-22{fill:url(#Безымянный_градиент_7-7);}.cls-23{fill:url(#Безымянный_градиент_7-8);}.cls-24{fill:url(#Безымянный_градиент_7-9);}.cls-25{fill:url(#Безымянный_градиент_7-10);}.cls-26{fill:url(#Безымянный_градиент_7-11);}.cls-27{fill:url(#Безымянный_градиент_7-12);}.cls-28{fill:url(#Безымянный_градиент_7-13);}.cls-29{fill:url(#Безымянный_градиент_7-14);}.cls-30{fill:url(#Безымянный_градиент_7-15);}.cls-31{fill:url(#Безымянный_градиент_7-16);}.cls-32{fill:url(#Безымянный_градиент_7-17);}.cls-33{fill:url(#Безымянный_градиент_7-18);}.cls-34{fill:url(#Безымянный_градиент_7-19);}.cls-35{fill:url(#Безымянный_градиент_7-20);}.cls-36{fill:url(#Безымянный_градиент_7-21);}.cls-37{fill:url(#Безымянный_градиент_7-22);}.cls-38{fill:url(#Безымянный_градиент_3);}.cls-39,.cls-40{opacity:0.26;}.cls-39{fill:url(#Безымянный_градиент_3-2);}.cls-40{fill:url(#Безымянный_градиент_3-3);}.cls-41{fill:url(#Безымянный_градиент_12-4);}.cls-42{fill:url(#Безымянный_градиент_7-23);}.cls-43{fill:url(#Безымянный_градиент_7-24);}.cls-44{fill:url(#Безымянный_градиент_7-25);}.cls-45{fill:url(#Безымянный_градиент_7-26);}.cls-46{fill:url(#Безымянный_градиент_7-27);}.cls-47{fill:url(#Безымянный_градиент_7-28);}.cls-48{fill:url(#Безымянный_градиент_7-29);}.cls-49{fill:url(#Безымянный_градиент_12-5);}.cls-50{clip-path:url(#clip-path-5);}.cls-51{opacity:0.27;}.cls-52{fill:url(#Безымянный_градиент_19-9);}.cls-53{fill:url(#Безымянный_градиент_19-10);}.cls-54{fill:url(#Безымянный_градиент_19-11);}.cls-55{fill:url(#Безымянный_градиент_19-12);}.cls-56{fill:url(#Безымянный_градиент_7-30);}.cls-57{fill:url(#Безымянный_градиент_7-31);}.cls-58{fill:url(#Безымянный_градиент_7-32);}.cls-59{fill:url(#Безымянный_градиент_7-33);}.cls-60{clip-path:url(#clip-path-6);}.cls-61{opacity:0.15;}.cls-62{fill:url(#Безымянный_градиент_19-13);}.cls-63{fill:url(#Безымянный_градиент_19-14);}.cls-64{fill:url(#Безымянный_градиент_19-15);}.cls-65{fill:url(#Безымянный_градиент_7-34);}.cls-66{fill:url(#Безымянный_градиент_7-35);}.cls-67{fill:url(#Безымянный_градиент_7-36);}.cls-68{fill:url(#Безымянный_градиент_7-37);}.cls-69{clip-path:url(#clip-path-7);}.cls-70{opacity:0.53;}.cls-71{fill:url(#Безымянный_градиент_19-16);}.cls-72{fill:url(#Безымянный_градиент_19-17);}.cls-73{fill:url(#Безымянный_градиент_19-18);}.cls-74{fill:url(#Безымянный_градиент_19-19);}.cls-75{fill:url(#Безымянный_градиент_7-38);}.cls-76{fill:url(#Безымянный_градиент_7-39);}.cls-77{fill:url(#Безымянный_градиент_7-40);}.cls-78{fill:#fff;}.cls-79,.cls-92{fill:#444;}.cls-80{fill:#686868;}.cls-81{fill:url(#Безымянный_градиент_7-41);}.cls-82{fill:url(#Безымянный_градиент_7-42);}.cls-83{fill:url(#Безымянный_градиент_7-43);}.cls-84{fill:url(#Безымянный_градиент_7-44);}.cls-85{fill:url(#Безымянный_градиент_7-45);}.cls-86{fill:url(#Безымянный_градиент_7-46);}.cls-87{fill:url(#Безымянный_градиент_7-47);}.cls-88{fill:url(#Безымянный_градиент_7-48);}.cls-89{fill:url(#Безымянный_градиент_7-49);}.cls-90{fill:url(#Безымянный_градиент_7-50);}.cls-91{stroke:#444;stroke-miterlimit:10;stroke-width:1.87px;}.cls-92{opacity:0.36;}</style><linearGradient id="Безымянный_градиент_2" x1="1361.81" y1="28.96" x2="1353.39" y2="656.16" gradientUnits="userSpaceOnUse"><stop offset="0" stop-color="#93d3c3"/><stop offset="1" stop-color="#fbf69b"/></linearGradient><clipPath id="clip-path"><rect class="cls-1" y="-3.7" width="2704" height="1527.4"/></clipPath><linearGradient id="Безымянный_градиент_19" x1="957.28" y1="672.14" x2="2867.07" y2="672.14" gradientUnits="userSpaceOnUse"><stop offset="0" stop-color="#472816"/><stop offset="1" stop-color="#f8b958"/></linearGradient><linearGradient id="Безымянный_градиент_19-2" x1="-713.04" y1="430.74" x2="1786.55" y2="430.74" xlink:href="#Безымянный_градиент_19"/><linearGradient id="Безымянный_градиент_12" x1="2463.05" y1="703.56" x2="2811.42" y2="703.56" gradientUnits="userSpaceOnUse"><stop offset="0" stop-color="#563114"/><stop offset="1" stop-color="#744d30"/></linearGradient><linearGradient id="Безымянный_градиент_12-2" x1="319.61" y1="857.68" x2="667.99" y2="857.68" xlink:href="#Безымянный_градиент_12"/><linearGradient id="Безымянный_градиент_12-3" x1="1878.02" y1="567.39" x2="2186.98" y2="567.39" xlink:href="#Безымянный_градиент_12"/><clipPath id="clip-path-2"><path class="cls-2" d="M2704,1523.7H0V-3.7H2704Z"/></clipPath><linearGradient id="Безымянный_градиент_19-3" x1="929.7" y1="745.03" x2="2654.96" y2="745.03" xlink:href="#Безымянный_градиент_19"/><clipPath id="clip-path-3"><path class="cls-3" d="M2813,208.85a802.65,802.65,0,0,0-108.15,144.78c-13.82,23.58-25.74,46.61-36.06,68.63L2610,443.71l-115.74,40.76-168.88,38.6a790.09,790.09,0,0,1-117.64,0,793.31,793.31,0,0,1-94.87-12.87l-108.16-4.29-40.55,13.41-58.35,2.41-24.19,10.46-70.45,9.65L1762,573.21l-81.83,31.37L1636.09,611l-71.15,31.37-45.59,5.15-20.59,15-29.23-2.2L1371.4,719.6l-52.66,33.78-361.46,279.1,722.93,41.82,1186.86,61.13Q2840,672.14,2813,208.85Z"/></clipPath><linearGradient id="Безымянный_градиент_19-5" x1="2240.13" y1="1905.55" x2="1664.2" y2="-23.77" xlink:href="#Безымянный_градиент_19"/><linearGradient id="Безымянный_градиент_19-6" x1="-547.16" y1="55.68" x2="946.55" y2="55.68" xlink:href="#Безымянный_градиент_19"/><clipPath id="clip-path-4"><path class="cls-4" d="M1786.55,1149.81a619.62,619.62,0,0,0-62.1-81.71c-73.24-81.38-142-113.91-300.7-205.92-86-49.85-37.14-23.69-170-101.32-152-88.87-259-148.25-297.44-170-275.06-155.32-324.46-234.74-657-442.06C138.35,48.42,136.15,58.46-31.55-42.38a5977.17,5977.17,0,0,1-654.52-456l-27,1858.15c147.25-23.31,268.32-35.15,353-41.67,59-4.55,71.83-4.32,316.23-17.16,254.82-13.4,239.62-13.59,281.91-14.71,159.34-4.24,179.44,3.63,397.12,2.45,170.22-.92,255.34-1.39,299.07-9.81,102.73-19.77,172.25-51.55,313.78-58.83,49.59-2.55,78.07-.55,110.31,0C1455.75,1221.75,1598,1210.39,1786.55,1149.81Z"/></clipPath><linearGradient id="Безымянный_градиент_19-8" x1="-654.31" y1="1043.74" x2="2386.15" y2="1043.74" xlink:href="#Безымянный_градиент_19"/><linearGradient id="Безымянный_градиент_7" x1="21.02" y1="1003.65" x2="-50.75" y2="763.23" gradientUnits="userSpaceOnUse"><stop offset="0" stop-color="#33431c"/><stop offset="1" stop-color="#fcee5a"/></linearGradient><linearGradient id="Безымянный_градиент_7-2" x1="111.46" y1="933.17" x2="39.69" y2="692.74" xlink:href="#Безымянный_градиент_7"/><linearGradient id="Безымянный_градиент_7-3" x1="167.29" y1="1009.25" x2="95.52" y2="768.83" xlink:href="#Безымянный_градиент_7"/><linearGradient id="Безымянный_градиент_7-4" x1="3007.01" y1="1115.97" x2="2974.41" y2="1006.77" gradientTransform="matrix(-1, 0, 0, 1, 4159.02, 0)" xlink:href="#Безымянный_градиент_7"/><linearGradient id="Безымянный_градиент_7-5" x1="1011.65" y1="1032.52" x2="939.88" y2="792.1" gradientTransform="matrix(-1, 0, 0, 1, 1828.77, 0)" xlink:href="#Безымянный_градиент_7"/><linearGradient id="Безымянный_градиент_7-6" x1="841.15" y1="986.84" x2="769.38" y2="746.42" gradientTransform="matrix(-1, 0, 0, 1, 1828.77, 0)" xlink:href="#Безымянный_градиент_7"/><linearGradient id="Безымянный_градиент_7-7" x1="1180.95" y1="961.32" x2="1109.18" y2="720.9" gradientTransform="matrix(-1, 0, 0, 1, 1828.77, 0)" xlink:href="#Безымянный_градиент_7"/><linearGradient id="Безымянный_градиент_7-8" x1="1157.92" y1="1038.12" x2="1086.15" y2="797.69" gradientTransform="matrix(-1, 0, 0, 1, 1828.77, 0)" xlink:href="#Безымянный_градиент_7"/><linearGradient id="Безымянный_градиент_7-9" x1="1374.68" y1="1015.34" x2="1302.91" y2="774.92" gradientTransform="matrix(-1, 0, 0, 1, 1828.77, 0)" xlink:href="#Безымянный_градиент_7"/><linearGradient id="Безымянный_градиент_7-10" x1="2215.41" y1="1152.9" x2="2143.64" y2="912.48" gradientTransform="translate(-2330.24)" xlink:href="#Безымянный_градиент_7"/><linearGradient id="Безымянный_градиент_7-11" x1="1098.34" y1="1022.72" x2="1026.57" y2="782.3" xlink:href="#Безымянный_градиент_7"/><linearGradient id="Безымянный_градиент_7-12" x1="904.82" y1="1079.07" x2="833.05" y2="838.65" xlink:href="#Безымянный_градиент_7"/><linearGradient id="Безымянный_градиент_7-13" x1="1188.78" y1="952.24" x2="1117.01" y2="711.81" xlink:href="#Безымянный_градиент_7"/><linearGradient id="Безымянный_градиент_7-14" x1="1244.61" y1="1028.32" x2="1172.84" y2="787.9" xlink:href="#Безымянный_градиент_7"/><linearGradient id="Безымянный_градиент_7-15" x1="1393.17" y1="1048.17" x2="1321.4" y2="807.75" xlink:href="#Безымянный_градиент_7"/><linearGradient id="Безымянный_градиент_7-16" x1="3026.06" y1="1127.95" x2="2954.29" y2="887.53" gradientTransform="matrix(-1, 0, 0, 1, 4159.02, 0)" xlink:href="#Безымянный_градиент_7"/><linearGradient id="Безымянный_градиент_7-17" x1="-65.67" y1="1051.59" x2="-137.44" y2="811.17" gradientTransform="matrix(-1, 0, 0, 1, 1828.77, 0)" xlink:href="#Безымянный_градиент_7"/><linearGradient id="Безымянный_градиент_7-18" x1="316.28" y1="974.99" x2="244.51" y2="734.57" gradientTransform="matrix(-1, 0, 0, 1, 1828.77, 0)" xlink:href="#Безымянный_градиент_7"/><linearGradient id="Безымянный_градиент_7-19" x1="103.63" y1="980.39" x2="31.86" y2="739.97" gradientTransform="matrix(-1, 0, 0, 1, 1828.77, 0)" xlink:href="#Безымянный_градиент_7"/><linearGradient id="Безымянный_градиент_7-20" x1="80.6" y1="1057.19" x2="8.83" y2="816.76" gradientTransform="matrix(-1, 0, 0, 1, 1828.77, 0)" xlink:href="#Безымянный_градиент_7"/><linearGradient id="Безымянный_градиент_7-21" x1="297.36" y1="1034.41" x2="225.59" y2="793.99" gradientTransform="matrix(-1, 0, 0, 1, 1828.77, 0)" xlink:href="#Безымянный_градиент_7"/><linearGradient id="Безымянный_градиент_7-22" x1="4190.08" y1="1156.82" x2="4118.31" y2="916.39" gradientTransform="translate(-2330.24)" xlink:href="#Безымянный_градиент_7"/><linearGradient id="Безымянный_градиент_3" x1="654.16" y1="-15162.5" x2="679.41" y2="-19782.93" gradientTransform="matrix(1, 0, 0, -0.33, 0, -3699.88)" gradientUnits="userSpaceOnUse"><stop offset="0" stop-color="#fcee5a"/><stop offset="0.52" stop-color="#33431c"/></linearGradient><linearGradient id="Безымянный_градиент_3-2" x1="644.02" y1="-13710.05" x2="670.61" y2="-18575.73" xlink:href="#Безымянный_градиент_3"/><linearGradient id="Безымянный_градиент_3-3" x1="1615.94" y1="-14345.7" x2="1642.52" y2="-19211.37" xlink:href="#Безымянный_градиент_3"/><linearGradient id="Безымянный_градиент_12-4" x1="4.42" y1="975.5" x2="339.16" y2="975.5" xlink:href="#Безымянный_градиент_12"/><linearGradient id="Безымянный_градиент_7-23" x1="71.18" y1="846.95" x2="15.58" y2="660.69" xlink:href="#Безымянный_градиент_7"/><linearGradient id="Безымянный_градиент_7-24" x1="152.11" y1="851.44" x2="96.51" y2="665.19" xlink:href="#Безымянный_градиент_7"/><linearGradient id="Безымянный_градиент_7-25" x1="217.55" y1="995.81" x2="161.95" y2="809.56" xlink:href="#Безымянный_градиент_7"/><linearGradient id="Безымянный_градиент_7-26" x1="55.02" y1="839.5" x2="24.87" y2="738.5" xlink:href="#Безымянный_градиент_7"/><linearGradient id="Безымянный_градиент_7-27" x1="98.91" y1="841.93" x2="68.76" y2="740.94" xlink:href="#Безымянный_градиент_7"/><linearGradient id="Безымянный_градиент_7-28" x1="134.39" y1="920.22" x2="104.24" y2="819.22" xlink:href="#Безымянный_градиент_7"/><linearGradient id="Безымянный_градиент_7-29" x1="29.02" y1="904.51" x2="-1.13" y2="803.51" xlink:href="#Безымянный_градиент_7"/><linearGradient id="Безымянный_градиент_12-5" x1="18.83" y1="984.18" x2="200.34" y2="984.18" xlink:href="#Безымянный_градиент_12"/><clipPath id="clip-path-5"><path class="cls-5" d="M2811.2,315.16q5.73,2.4-136.32,357-1.62,317.67-3.25,635.34c-1.66,2-11.87,13.75-29.21,14.61a41.57,41.57,0,0,1-28.4-9.74L2630,1207.72q7.49-197.18,3.36-394.61l-10.77-276c-20.21-36.5-50.7-91-88.85-157-46.38-80.26-72-122-70.59-122.93s29.54,38.83,154.73,229.92q-7.51-88.49-15.13-177Q2593,197.47,2583.19,85c17,82.11,32.71,168.39,46.66,258.61,15.4,99.68,27.25,195.49,36.22,286.91Q2805.75,312.85,2811.2,315.16Z"/></clipPath><linearGradient id="Безымянный_градиент_19-9" x1="2610.02" y1="945.69" x2="2641.66" y2="945.69" xlink:href="#Безымянный_градиент_19"/><linearGradient id="Безымянный_градиент_19-10" x1="2558.3" y1="974.78" x2="2663.02" y2="974.78" xlink:href="#Безымянный_градиент_19"/><linearGradient id="Безымянный_градиент_19-11" x1="2551.89" y1="1011.16" x2="2689" y2="1011.16" xlink:href="#Безымянный_градиент_19"/><linearGradient id="Безымянный_градиент_19-12" x1="2619.38" y1="641.57" x2="2678.99" y2="641.57" xlink:href="#Безымянный_градиент_19"/><linearGradient id="Безымянный_градиент_7-30" x1="2329.89" y1="342.87" x2="2194.42" y2="-110.93" xlink:href="#Безымянный_градиент_7"/><linearGradient id="Безымянный_градиент_7-31" x1="2894.64" y1="561.43" x2="2759.17" y2="107.63" xlink:href="#Безымянный_градиент_7"/><linearGradient id="Безымянный_градиент_7-32" x1="2471.08" y1="35.63" x2="2335.61" y2="-418.17" xlink:href="#Безымянный_градиент_7"/><linearGradient id="Безымянный_градиент_7-33" x1="2738.85" y1="318.01" x2="2603.38" y2="-135.8" xlink:href="#Безымянный_градиент_7"/><clipPath id="clip-path-6"><path class="cls-6" d="M667.77,582.7q5.72,1.71-136.32,252.77-1.62,224.9-3.25,449.8c-1.66,1.41-11.87,9.74-29.21,10.34a52.27,52.27,0,0,1-28.4-6.89l15.93-74.1Q494,1075,489.87,935.24q-5.37-97.71-10.76-195.42C458.9,714,428.41,675.4,390.26,628.66c-46.39-56.83-72-86.39-70.59-87s29.54,27.49,154.72,162.78q-7.51-62.65-15.13-125.33-9.67-79.69-19.51-159.36c17,58.13,32.72,119.21,46.66,183.09,15.41,70.58,27.25,138.41,36.23,203.13Q662.32,581.06,667.77,582.7Z"/></clipPath><linearGradient id="Безымянный_градиент_19-13" x1="516.42" y1="1025.47" x2="537.23" y2="1025.47" xlink:href="#Безымянный_градиент_19"/><linearGradient id="Безымянный_градиент_19-14" x1="496.75" y1="1063.69" x2="552.87" y2="1063.69" xlink:href="#Безымянный_градиент_19"/><linearGradient id="Безымянный_градиент_19-15" x1="464.68" y1="1049.7" x2="550.16" y2="1049.7" xlink:href="#Безымянный_градиент_19"/><linearGradient id="Безымянный_градиент_7-34" x1="189.75" y1="603.27" x2="86.36" y2="256.9" xlink:href="#Безымянный_градиент_7"/><linearGradient id="Безымянный_градиент_7-35" x1="754.5" y1="758" x2="651.1" y2="411.63" xlink:href="#Безымянный_градиент_7"/><linearGradient id="Безымянный_градиент_7-36" x1="330.94" y1="385.75" x2="227.54" y2="39.38" xlink:href="#Безымянный_градиент_7"/><linearGradient id="Безымянный_градиент_7-37" x1="598.71" y1="585.66" x2="495.31" y2="239.29" xlink:href="#Безымянный_градиент_7"/><clipPath id="clip-path-7"><path class="cls-7" d="M2187-116.61q-3.81,38.19-8.48,73.9v0c-.4,3.23-.84,6.39-1.28,9.59v0c-4.21,31.26-8.92,61.15-14.15,90-.61,3.39-1.23,6.77-1.86,10.12-5.37,28.77-11.27,56.43-17.71,83.3v0c-.84,3.46-1.65,6.84-2.51,10.26-20.75,84.2-46.84,160.45-78.66,236.32-1,2.38-2,4.8-3,7.18-10.19,24.05-21,48.06-32.31,72.3-1,2-2,4.09-2.9,6.13-12.9,27.33-26.56,54.95-41,83.24-.34,26.69-.69,54.94-1,84.38,0,3.09-.08,6.17-.12,9.3-.36,29.07-.72,59.25-1.09,90.18,0,3.94-.1,7.92-.14,11.94q-.33,26.76-.66,54.23c0,3.94-.1,7.92-.14,11.9-.57,48.7-1.17,98.4-1.75,147.84,0,2.46-.06,4.91-.08,7.36-1.41,120.71-2.78,239.3-3.89,337-4.59,3.42-24.37,17.33-51.89,14.38a74.09,74.09,0,0,1-41.38-18.67c18.18-72.7,23.14-108.67,24-128.05.14-3,1.74-40.95,2.75-63,.23-5.21.45-10.37.67-15.58L1914,980.15c.23-5.06.45-10.15.65-15.21q2.48-56.66,4.93-113.3c.14-3,.28-6.1.4-9.15q3.27-74.94,6.52-149.89c.12-2.45.22-4.94.34-7.4q3-69.53,6-139c.14-3.16.28-6.28.39-9.44q1.62-36.47,3.18-72.9c-.83-4.28-1.64-8.51-2.46-12.79-.54-2.79-1.07-5.61-1.59-8.4q-6.08-32.07-11.75-64.39c-.47-2.64-.93-5.27-1.37-7.91q-7-40.21-13.39-80.82c-.54-3.31-1.06-6.62-1.57-10q-14-90-25.07-181.64c-.21-1.75-.83-4.83-1.07-9.07-1.84-32.61,17.86-62.29,22.74-60.71,1.79.59.74,5.43,1.49,10.75q10.29,73.32,22.24,145.8c.69,4.27,1.39,8.51,2.11,12.75q8.13,48.84,17,97.25,6-139,12.08-278c.38-8.89.78-17.73,1.16-26.62v0l3.63-83.42.42-10q1.93-44.49,3.88-89a50.65,50.65,0,0,0,10-2.45c6.26-2.08,13-4.76,17.85-5.13q-.72,63.4-1.47,126.76c0,2.46-.06,4.91-.08,7.36q-.9,75.29-1.83,150.6c0,2.71-.06,5.46-.1,8.21q-.91,77.79-1.9,155.62-.09,6.74-.18,13.42-1.14,90-2.27,180.07v.63Q2004.8,411,2023,376c2-3.83,4-7.66,5.9-11.56l0,0q14.46-28.61,27.83-59.14s0,0,0,0c2.07-4.72,4.09-9.44,6.14-14.28,0,0,0,0,0,0q17.48-41.39,32.84-85.69v0q2.73-8,5.42-16v0q18-54,32.6-111.52c.63-2.42,1.23-4.87,1.85-7.33q12-48.35,21.52-98.77c.42-2.3.86-4.65,1.29-6.95q8-43.5,14-88.18Z"/></clipPath><linearGradient id="Безымянный_градиент_19-16" x1="1969.65" y1="881.85" x2="1988.86" y2="881.85" xlink:href="#Безымянный_градиент_19"/><linearGradient id="Безымянный_градиент_19-17" x1="1953.36" y1="887.97" x2="1994.28" y2="887.97" xlink:href="#Безымянный_градиент_19"/><linearGradient id="Безымянный_градиент_19-18" x1="1928.8" y1="920.14" x2="2032.08" y2="920.14" xlink:href="#Безымянный_градиент_19"/><linearGradient id="Безымянный_градиент_19-19" x1="1843.63" y1="937.82" x2="2001.48" y2="937.82" xlink:href="#Безымянный_градиент_19"/><linearGradient id="Безымянный_градиент_7-38" x1="2260.52" y1="9.38" x2="2125.05" y2="-444.43" xlink:href="#Безымянный_градиент_7"/><linearGradient id="Безымянный_градиент_7-39" x1="1736.09" y1="-71.07" x2="1477.52" y2="-937.27" xlink:href="#Безымянный_градиент_7"/><linearGradient id="Безымянный_градиент_7-40" x1="1732.28" y1="317.31" x2="1596.82" y2="-136.49" xlink:href="#Безымянный_градиент_7"/><linearGradient id="Безымянный_градиент_7-41" x1="755.16" y1="1272.88" x2="668.55" y2="982.73" xlink:href="#Безымянный_градиент_7"/><linearGradient id="Безымянный_градиент_7-42" x1="1880.65" y1="1287.81" x2="1794.04" y2="997.66" xlink:href="#Безымянный_градиент_7"/><linearGradient id="Безымянный_градиент_7-43" x1="1738.19" y1="1136.19" x2="1696.9" y2="997.85" xlink:href="#Безымянный_градиент_7"/><linearGradient id="Безымянный_градиент_7-44" x1="1222.19" y1="1128.47" x2="1135.57" y2="838.31" gradientTransform="matrix(-1, 0, 0, 1, 2023.78, 0)" xlink:href="#Безымянный_градиент_7"/><linearGradient id="Безымянный_градиент_7-45" x1="1194.79" y1="1043.76" x2="1108.17" y2="753.61" xlink:href="#Безымянный_градиент_7"/><linearGradient id="Безымянный_градиент_7-46" x1="1029.96" y1="1143.23" x2="943.34" y2="853.07" xlink:href="#Безымянный_градиент_7"/><linearGradient id="Безымянный_градиент_7-47" x1="192.6" y1="1164.15" x2="105.98" y2="873.99" xlink:href="#Безымянный_градиент_7"/><linearGradient id="Безымянный_градиент_7-48" x1="199.25" y1="1440.96" x2="-84.48" y2="490.49" xlink:href="#Безымянный_градиент_7"/><linearGradient id="Безымянный_градиент_7-49" x1="466.39" y1="1628.53" x2="182.66" y2="678.05" xlink:href="#Безымянный_градиент_7"/><linearGradient id="Безымянный_градиент_7-50" x1="2599.93" y1="1476.58" x2="2316.19" y2="526.1" xlink:href="#Безымянный_градиент_7"/></defs><rect class="cls-1" y="-3.7" width="2704" height="1527.4"/><g class="cls-8"><path class="cls-9" d="M-123.91,222.92s90-82.83,125.48-94.66,35.49,47.33,94.66,47.33,71-59.17,142-47.33C259.11,131.74,308.34,163,344,174.8c20.17,6.72,71.52-13.3,87.49,0,57.76,48.12,84.2,48.12,84.2,48.12Z"/><path class="cls-9" d="M-507.56,396.27s90-82.83,125.48-94.66,35.49,47.33,94.66,47.33,71-59.16,142-47.33c20.89,3.48,70.12,34.69,105.74,46.55,20.17,6.71,71.52-13.31,87.49,0,57.76,48.11,84.2,48.11,84.2,48.11Z"/><path class="cls-9" d="M862.35,330.18s90-82.82,125.47-94.66,35.5,47.33,94.67,47.33,71-59.16,142-47.33c20.89,3.48,70.11,34.7,105.74,46.55,20.17,6.71,71.52-13.31,87.49,0,57.76,48.11,84.2,48.11,84.2,48.11Z"/><path class="cls-9" d="M1929.33,302.59s90-67.57,125.47-77.22S2090.3,264,2149.47,264s71-48.26,142-38.61c20.89,2.84,70.11,28.3,105.74,38,20.17,5.48,71.52-10.85,87.49,0,57.76,39.25,84.19,39.25,84.19,39.25Z"/><path class="cls-10" d="M2655,470q-56.21-57.1-112.42-114.22l-78.27-19.3-82.54-38.61L2339,291.39l-39.85,43.43-75.43,41.83L2164,381.47l-52.18,28.42-19-8.58-24.67,25.2-11.86-15-23.24,23.06-29.88,16.62L1493.72,700l-105-59.92-34.51,19.71-54.07-32.17-57.4,1.07c-16.7-2.2-34.11-4-52.18-5.36a911.53,911.53,0,0,0-92-2.15L929.7,765.94l968.18,432.72Z"/><path class="cls-3" d="M2813,208.85a802.65,802.65,0,0,0-108.15,144.78c-13.82,23.58-25.74,46.61-36.06,68.63L2610,443.71l-115.74,40.76-168.88,38.6a790.09,790.09,0,0,1-117.64,0,793.31,793.31,0,0,1-94.87-12.87l-108.16-4.29-40.55,13.41-58.35,2.41-24.19,10.46-70.45,9.65L1762,573.21l-81.83,31.37L1636.09,611l-71.15,31.37-45.59,5.15-20.59,15-29.23-2.2L1371.4,719.6l-52.66,33.78-361.46,279.1,722.93,41.82,1186.86,61.13Q2840,672.14,2813,208.85Z"/><g class="cls-11"><path class="cls-12" d="M2640.06,520.53l-89.82,10.37q-26.58,34.19-53.17,68.38l-25.66-13.47L2465,608.6h-16.5q-8.23,15.54-16.49,31.08l-43.08,34.2q-55,31.59-110,63.2l-90.74-37.3-93.5-55.95-117.32,60.09-35.74-15.54L1883,720.15l-85.54,58.72-39.11.69-129.54,89.79L1182.7,1345.26l1429.86,72.53L2926,1471.66l-143-729.4L2671.22,636.58Q2655.65,578.56,2640.06,520.53Z"/></g><path class="cls-13" d="M946.55,661.17q-6.13-67.42-12.26-134.83l-78.44-90.7q-19.62-118.89-39.23-237.78l-73.54-95.61L662.19,90,564.13,43.42,531,69.16l-85.8-18.39L404.79,94.9l-79.67-2.45q-5.5-43.52-11-87L282.22-34.21l-27-18L203-84.87,98.37-182.11,87.75-226.23l-36-19.61-18-41.68-51.48-10.62L-34-336.54l-72.32-28.19-9.81-94.38-87-63.74-62.92,20.43-281.09-47.39q7.35,420,14.71,840Z"/><path class="cls-4" d="M1786.55,1149.81a619.62,619.62,0,0,0-62.1-81.71c-73.24-81.38-142-113.91-300.7-205.92-86-49.85-37.14-23.69-170-101.32-152-88.87-259-148.25-297.44-170-275.06-155.32-324.46-234.74-657-442.06C138.35,48.42,136.15,58.46-31.55-42.38a5977.17,5977.17,0,0,1-654.52-456l-27,1858.15c147.25-23.31,268.32-35.15,353-41.67,59-4.55,71.83-4.32,316.23-17.16,254.82-13.4,239.62-13.59,281.91-14.71,159.34-4.24,179.44,3.63,397.12,2.45,170.22-.92,255.34-1.39,299.07-9.81,102.73-19.77,172.25-51.55,313.78-58.83,49.59-2.55,78.07-.55,110.31,0C1455.75,1221.75,1598,1210.39,1786.55,1149.81Z"/><g class="cls-14"><path class="cls-15" d="M2386.15,1518c-237.81-104.31-394.24-222.56-495.26-314.79-75.73-69.13-184.54-182.25-373.54-298-56-34.29-70.7-39.21-142.7-79.75C1268.58,765.72,1118.52,674,942.34,540v79.75l23.09,50.36q6.3,15.74,12.59,31.48l98.63,117.52q12.6,43,25.18,86L959.13,775.06,837.42,724.69,770.26,605.08a583.83,583.83,0,0,1-180.47-60.86,582.93,582.93,0,0,1-132.21-96.53l-71.35-4.2L264.51,355.35a157.15,157.15,0,0,0-21,39.87c-15.49,43.85-7.09,83.17-2.1,100.73C238.75,509.78,232,554,256.12,600.88c29.5,57.29,83.36,76.13,94.43,79.74l107,86,121.71,140.6-178.37-128L228.84,707.91q-48.78-34.54-98.63-73.45A2583.1,2583.1,0,0,1-157.3,372.14l-39.87,29.38c-33.82-26.83-49.12-27.66-56.66-23.09-20.62,12.5-3.84,77.78,12.59,128L-44,678.53,151.19,835.92l92.34,102.83-209.86-149A1393.85,1393.85,0,0,1-190.87,668a1400.73,1400.73,0,0,1-289.6-258.12C-589.6,475.19-628.6,544.09-644.16,594.58-683,720.68-599.94,810.52-568.61,1115c4.22,41,6.89,67,8.39,104.93,7.33,184.78-29.2,245.29,4.2,331.57,0,0,24.33,62.86,104.93,125.92C-222.24,1856.47,2213.39,1540.65,2386.15,1518Z"/></g><path class="cls-16" d="M-32.94,959.26a14.5,14.5,0,0,1,3-13c8.23-10,31-15.09,46.4-9.66,8,2.84,11.82,7.74,13.47,10.42,7.65-.88,18.79-2,32.32-2.64,35.59-1.72,58.27-2.81,69.15,5.45,2,1.52,11.53,9.39,2.09,28.19,2.68.57,22.62,5,29.33,17.44s-2.48,27.52-23.34,35.61c13,4,19.84,13.32,16.56,22.06-3.47,9.25-17.45,15.67-32.73,14.78-2.89,4.69-8.4,11.19-18.85,16-20.22,9.28-50.61,8.38-76.93-2.18-22.7,17-58,21.56-82.31,12.59-22.81-8.41-27.4-25.49-28.06-28.2-18.06-4.55-29.66-15.27-29.11-26.48.59-12,14.9-19.34,17.06-20.4-.88-.93-9.76-10.58-2.55-21.3,6.33-9.41,20.19-12.42,22.3-12.86-1.21-2.6-3.06-8.06.66-13.59C-68.71,962.89-51.86,957.62-32.94,959.26Z"/><path class="cls-17" d="M57.5,888.77a14.5,14.5,0,0,1,3-13c8.23-10,31-15.08,46.4-9.65,8,2.83,11.83,7.73,13.47,10.42,7.65-.89,18.79-2,32.32-2.64,35.59-1.72,58.27-2.82,69.15,5.45,2,1.52,11.53,9.39,2.09,28.19,2.68.56,22.62,5,29.34,17.44s-2.49,27.51-23.35,35.6c13,4.06,19.84,13.32,16.56,22.07-3.47,9.25-17.45,15.66-32.73,14.78-2.89,4.69-8.4,11.18-18.85,16-20.22,9.28-50.61,8.39-76.93-2.17-22.7,17-58,21.56-82.31,12.59-22.81-8.41-27.4-25.5-28.06-28.2-18.06-4.55-29.66-15.27-29.11-26.49.59-12,14.9-19.33,17.06-20.4-.88-.92-9.76-10.58-2.54-21.3C-.68,918,13.18,915,15.3,914.57c-1.22-2.6-3.07-8.07.65-13.6C21.73,892.4,38.58,887.13,57.5,888.77Z"/><path class="cls-18" d="M113.33,964.86a14.5,14.5,0,0,1,3-13c8.23-10,31-15.09,46.4-9.66,8,2.83,11.83,7.73,13.47,10.42,7.65-.88,18.79-2,32.32-2.64,35.59-1.72,58.27-2.82,69.15,5.45,2,1.52,11.53,9.39,2.09,28.19,2.68.56,22.62,5,29.34,17.44s-2.49,27.52-23.35,35.6c13,4.06,19.84,13.33,16.56,22.07-3.47,9.25-17.45,15.67-32.73,14.78-2.89,4.69-8.4,11.18-18.85,16-20.22,9.28-50.61,8.39-76.93-2.17-22.7,17-58,21.56-82.31,12.59-22.81-8.41-27.4-25.5-28.06-28.2-18.06-4.55-29.66-15.27-29.11-26.49.59-12,14.9-19.33,17.06-20.4-.88-.92-9.76-10.57-2.54-21.3,6.32-9.4,20.18-12.41,22.3-12.85-1.22-2.6-3.07-8.07.65-13.59C77.56,968.48,94.41,963.21,113.33,964.86Z"/><path class="cls-19" d="M1176.51,1095.81a6.57,6.57,0,0,0-1.36-5.91c-3.74-4.54-14.07-6.86-21.07-4.39a11.37,11.37,0,0,0-6.12,4.73c-3.47-.4-8.53-.9-14.68-1.2-16.17-.78-26.47-1.28-31.41,2.48-.91.69-5.24,4.26-.95,12.8-1.22.26-10.27,2.28-13.32,7.92s1.13,12.5,10.6,16.18c-5.9,1.84-9,6-7.52,10,1.58,4.2,7.93,7.11,14.86,6.71a19.13,19.13,0,0,0,8.57,7.26c9.18,4.22,23,3.81,34.94-1,10.31,7.75,26.34,9.8,37.39,5.72,10.35-3.82,12.44-11.58,12.74-12.81,8.2-2.06,13.47-6.93,13.22-12-.27-5.46-6.76-8.78-7.75-9.26.4-.42,4.44-4.81,1.16-9.68-2.88-4.27-9.17-5.64-10.13-5.83a6.13,6.13,0,0,0-.3-6.18C1192.76,1097.46,1185.1,1095.06,1176.51,1095.81Z"/><path class="cls-20" d="M871.08,988.13a14.47,14.47,0,0,0-3-13c-8.23-10-31-15.09-46.39-9.66-8,2.83-11.83,7.74-13.47,10.42-7.65-.88-18.79-2-32.33-2.64-35.59-1.72-58.27-2.81-69.14,5.45-2,1.52-11.54,9.39-2.1,28.19-2.68.57-22.62,5-29.33,17.44s2.48,27.52,23.35,35.6c-13,4.06-19.85,13.33-16.57,22.07,3.48,9.25,17.46,15.67,32.73,14.78,2.9,4.69,8.4,11.19,18.86,16,20.21,9.28,50.6,8.39,76.92-2.17,22.7,17,58,21.56,82.31,12.59,22.81-8.41,27.4-25.5,28.06-28.2,18.07-4.55,29.66-15.27,29.11-26.48-.59-12-14.9-19.34-17.06-20.41.88-.92,9.76-10.57,2.55-21.29-6.33-9.41-20.19-12.42-22.3-12.86,1.22-2.6,3.07-8.07-.66-13.59C906.86,991.75,890,986.49,871.08,988.13Z"/><path class="cls-21" d="M1041.58,942.45a14.44,14.44,0,0,0-3-13c-8.23-10-31-15.09-46.39-9.65-8,2.83-11.83,7.73-13.47,10.41-7.65-.88-18.79-2-32.33-2.64-35.59-1.72-58.27-2.81-69.14,5.45-2,1.52-11.54,9.39-2.1,28.19-2.68.57-22.61,5-29.33,17.44s2.48,27.52,23.35,35.61c-13,4-19.84,13.32-16.56,22.06,3.47,9.25,17.45,15.67,32.72,14.78,2.9,4.69,8.4,11.19,18.86,16,20.21,9.28,50.61,8.38,76.92-2.18,22.7,17.06,58,21.56,82.31,12.59,22.81-8.41,27.4-25.49,28.06-28.2,18.07-4.55,29.67-15.27,29.11-26.48-.59-12-14.89-19.34-17.06-20.4.88-.92,9.76-10.58,2.55-21.3-6.33-9.41-20.18-12.42-22.3-12.85,1.22-2.61,3.07-8.07-.66-13.6C1077.36,946.08,1060.5,940.81,1041.58,942.45Z"/><path class="cls-22" d="M701.78,916.93a14.5,14.5,0,0,0-3-13c-8.23-10-31-15.08-46.4-9.65-8,2.83-11.82,7.73-13.47,10.42-7.65-.89-18.79-2-32.32-2.64-35.59-1.72-58.27-2.82-69.15,5.45-2,1.52-11.53,9.39-2.09,28.18-2.68.57-22.62,5-29.33,17.44s2.48,27.52,23.34,35.61c-13,4.06-19.84,13.32-16.56,22.06,3.47,9.26,17.45,15.67,32.73,14.78,2.89,4.69,8.4,11.19,18.85,16,20.22,9.28,50.61,8.38,76.93-2.18,22.7,17.06,58,21.56,82.31,12.59,22.81-8.41,27.4-25.49,28.06-28.19,18.06-4.55,29.66-15.27,29.11-26.49-.59-12-14.9-19.33-17.06-20.4.88-.92,9.76-10.58,2.54-21.3-6.32-9.41-20.18-12.42-22.3-12.85,1.22-2.61,3.07-8.07-.65-13.6C737.55,920.56,720.7,915.29,701.78,916.93Z"/><path class="cls-23" d="M724.81,993.72a14.47,14.47,0,0,0-3-13c-8.23-10-31-15.08-46.4-9.65-8,2.83-11.82,7.73-13.47,10.42-7.64-.89-18.79-2-32.32-2.64-35.59-1.72-58.27-2.82-69.14,5.45-2,1.52-11.54,9.39-2.1,28.18-2.68.57-22.62,5-29.33,17.45s2.48,27.51,23.34,35.6c-13,4.06-19.84,13.32-16.56,22.06,3.47,9.26,17.46,15.67,32.73,14.78,2.9,4.7,8.4,11.19,18.85,16,20.22,9.28,50.61,8.39,76.93-2.17,22.7,17,58,21.56,82.31,12.59,22.81-8.41,27.4-25.5,28.06-28.2,18.06-4.55,29.66-15.27,29.11-26.49-.59-12-14.9-19.33-17.06-20.4.88-.92,9.76-10.58,2.55-21.3C783,1023,769.13,1020,767,1019.52c1.22-2.6,3.06-8.07-.66-13.6C760.59,997.35,743.73,992.08,724.81,993.72Z"/><path class="cls-24" d="M508.05,971a14.5,14.5,0,0,0-3-13c-8.23-10-31-15.08-46.4-9.65-8,2.83-11.83,7.73-13.47,10.42-7.65-.89-18.79-2-32.32-2.64-35.59-1.72-58.27-2.82-69.15,5.45-2,1.52-11.53,9.39-2.09,28.18-2.68.57-22.62,5-29.34,17.44s2.49,27.52,23.35,35.61c-13,4.06-19.84,13.32-16.56,22.06,3.47,9.26,17.45,15.67,32.72,14.78,2.9,4.69,8.41,11.19,18.86,16,20.22,9.28,50.61,8.38,76.93-2.18,22.7,17.06,58,21.56,82.31,12.59,22.81-8.41,27.4-25.49,28.06-28.19,18.06-4.55,29.66-15.27,29.11-26.49-.59-12-14.9-19.33-17.06-20.4.88-.92,9.76-10.58,2.54-21.3-6.32-9.41-20.18-12.42-22.3-12.85,1.22-2.61,3.07-8.07-.65-13.6C543.82,974.58,527,969.31,508.05,971Z"/><path class="cls-25" d="M-168.79,1108.51a14.47,14.47,0,0,1,3-13c8.23-10,31-15.08,46.4-9.65,8,2.83,11.82,7.73,13.46,10.42,7.65-.89,18.8-2,32.33-2.64,35.59-1.72,58.27-2.82,69.14,5.45,2,1.52,11.54,9.38,2.1,28.18,2.68.57,22.62,5,29.33,17.44s-2.48,27.52-23.34,35.61c13,4,19.84,13.32,16.56,22.06-3.48,9.26-17.46,15.67-32.73,14.78-2.9,4.69-8.4,11.19-18.85,16-20.22,9.28-50.61,8.38-76.93-2.18-22.7,17.06-58,21.56-82.31,12.59-22.81-8.41-27.4-25.49-28.06-28.19-18.06-4.55-29.66-15.27-29.11-26.49.59-12,14.9-19.33,17.06-20.4-.88-.92-9.76-10.58-2.55-21.3,6.33-9.41,20.19-12.42,22.3-12.85-1.22-2.61-3.06-8.07.66-13.6C-204.57,1112.14-187.71,1106.87-168.79,1108.51Z"/><path class="cls-26" d="M1044.38,978.33a14.48,14.48,0,0,1,3-13c8.23-10,31-15.09,46.39-9.65,8,2.83,11.83,7.73,13.47,10.41,7.65-.88,18.79-2,32.33-2.64,35.59-1.72,58.27-2.81,69.14,5.45,2,1.52,11.53,9.39,2.09,28.19,2.68.57,22.62,5,29.34,17.44s-2.49,27.52-23.35,35.61c13,4.05,19.84,13.32,16.56,22.06-3.47,9.25-17.45,15.67-32.72,14.78-2.9,4.69-8.4,11.19-18.86,16-20.22,9.28-50.61,8.38-76.92-2.18-22.7,17-58,21.56-82.32,12.59-22.8-8.41-27.39-25.49-28-28.2-18.07-4.55-29.67-15.27-29.12-26.48.59-12,14.9-19.34,17.06-20.4-.88-.93-9.75-10.58-2.54-21.3,6.33-9.41,20.18-12.42,22.3-12.86-1.22-2.6-3.07-8.06.65-13.59C1008.61,982,1025.46,976.69,1044.38,978.33Z"/><path class="cls-27" d="M850.86,1034.68a14.5,14.5,0,0,1,3-13c8.23-10,31-15.09,46.4-9.65,8,2.83,11.82,7.73,13.47,10.42,7.65-.89,18.79-2,32.32-2.65,35.59-1.71,58.27-2.81,69.15,5.45,2,1.53,11.53,9.39,2.09,28.19,2.68.57,22.62,5,29.33,17.44s-2.48,27.52-23.34,35.61c13,4,19.84,13.32,16.56,22.06-3.47,9.25-17.45,15.67-32.73,14.78-2.89,4.69-8.4,11.19-18.85,16-20.22,9.28-50.61,8.38-76.93-2.18-22.7,17.06-58,21.56-82.31,12.59-22.81-8.41-27.4-25.49-28.06-28.19-18.06-4.55-29.66-15.27-29.11-26.49.59-12,14.9-19.33,17.06-20.4-.88-.92-9.76-10.58-2.55-21.3,6.33-9.41,20.19-12.42,22.3-12.85-1.21-2.61-3.06-8.07.66-13.6C815.09,1038.31,831.94,1033,850.86,1034.68Z"/><path class="cls-28" d="M1134.82,907.84a14.48,14.48,0,0,1,3-13c8.23-10,31-15.08,46.39-9.65,8,2.83,11.83,7.73,13.47,10.42,7.65-.89,18.79-2,32.33-2.64,35.59-1.72,58.27-2.82,69.14,5.45,2,1.52,11.53,9.39,2.1,28.19,2.67.56,22.61,5,29.33,17.44s-2.48,27.51-23.35,35.6c13,4.06,19.84,13.32,16.56,22.07-3.47,9.25-17.45,15.66-32.72,14.78-2.9,4.69-8.4,11.18-18.86,16-20.22,9.28-50.61,8.39-76.92-2.17-22.7,17-58,21.56-82.32,12.59-22.8-8.41-27.39-25.5-28-28.2-18.07-4.55-29.67-15.27-29.12-26.49.59-12,14.9-19.33,17.06-20.4-.88-.92-9.75-10.58-2.54-21.3,6.33-9.4,20.18-12.42,22.3-12.85-1.22-2.6-3.07-8.07.66-13.6C1099.05,911.47,1115.91,906.2,1134.82,907.84Z"/><path class="cls-29" d="M1190.65,983.93a14.48,14.48,0,0,1,3-13c8.23-10,31-15.09,46.39-9.66,8,2.83,11.83,7.73,13.47,10.42,7.65-.88,18.79-2,32.33-2.64,35.59-1.72,58.27-2.82,69.14,5.45,2,1.52,11.53,9.39,2.1,28.19,2.67.56,22.61,5,29.33,17.44s-2.48,27.52-23.35,35.6c13,4.06,19.84,13.33,16.56,22.07-3.47,9.25-17.45,15.67-32.72,14.78-2.9,4.69-8.4,11.18-18.86,16-20.22,9.28-50.61,8.39-76.92-2.17-22.7,17.05-58,21.56-82.32,12.59-22.8-8.41-27.39-25.5-28-28.2-18.07-4.55-29.67-15.27-29.12-26.49.59-12,14.9-19.33,17.06-20.4-.88-.92-9.75-10.57-2.54-21.3,6.33-9.4,20.18-12.41,22.3-12.85-1.22-2.6-3.07-8.07.66-13.59C1154.88,987.55,1171.74,982.28,1190.65,983.93Z"/><path class="cls-30" d="M1339.21,1003.78a14.48,14.48,0,0,1,3-13c8.23-10,31-15.08,46.39-9.65,8,2.83,11.83,7.73,13.47,10.42,7.65-.89,18.79-2,32.33-2.64,35.58-1.72,58.27-2.82,69.14,5.45,2,1.52,11.53,9.39,2.09,28.18,2.68.57,22.62,5,29.34,17.44s-2.49,27.52-23.35,35.61c13,4.06,19.84,13.32,16.56,22.06-3.47,9.26-17.45,15.67-32.72,14.78-2.9,4.69-8.41,11.19-18.86,16-20.22,9.28-50.61,8.38-76.93-2.18-22.69,17.06-58,21.56-82.31,12.59-22.8-8.41-27.4-25.49-28-28.19-18.07-4.55-29.67-15.27-29.12-26.49.59-12,14.9-19.33,17.06-20.4-.88-.92-9.76-10.58-2.54-21.3,6.33-9.41,20.18-12.42,22.3-12.85-1.22-2.61-3.07-8.07.65-13.6C1303.44,1007.41,1320.29,1002.14,1339.21,1003.78Z"/><path class="cls-31" d="M1186.91,1083.56a14.5,14.5,0,0,0-3-13c-8.23-10-31-15.09-46.4-9.66-8,2.83-11.82,7.73-13.47,10.42-7.65-.88-18.79-2-32.32-2.64-35.59-1.72-58.27-2.82-69.15,5.45-2,1.52-11.53,9.39-2.09,28.19-2.68.56-22.62,5-29.33,17.44s2.48,27.52,23.34,35.6c-13,4.06-19.84,13.33-16.56,22.07,3.47,9.25,17.46,15.67,32.73,14.78,2.89,4.69,8.4,11.18,18.85,16,20.22,9.28,50.61,8.39,76.93-2.17,22.7,17,58,21.56,82.31,12.59,22.81-8.41,27.4-25.5,28.06-28.2,18.06-4.55,29.66-15.27,29.11-26.49-.59-12-14.9-19.33-17.06-20.4.88-.92,9.76-10.57,2.55-21.3-6.33-9.4-20.19-12.41-22.3-12.85,1.21-2.6,3.06-8.07-.66-13.59C1222.68,1087.18,1205.83,1081.91,1186.91,1083.56Z"/><path class="cls-32" d="M1948.41,1007.2a14.48,14.48,0,0,0-3-13c-8.23-10-31-15.09-46.39-9.66-8,2.83-11.83,7.74-13.47,10.42-7.65-.88-18.79-2-32.33-2.64-35.59-1.72-58.27-2.81-69.14,5.45-2,1.52-11.53,9.39-2.09,28.19-2.68.57-22.62,5-29.34,17.44s2.49,27.52,23.35,35.6c-13,4.06-19.84,13.33-16.56,22.07,3.47,9.25,17.45,15.67,32.72,14.78,2.9,4.69,8.4,11.19,18.86,16,20.22,9.28,50.61,8.39,76.92-2.17,22.7,17,58,21.56,82.32,12.59,22.8-8.41,27.39-25.5,28-28.2,18.07-4.55,29.67-15.27,29.12-26.48-.59-12-14.9-19.34-17.06-20.41.88-.92,9.75-10.57,2.54-21.29-6.33-9.41-20.18-12.42-22.3-12.86,1.22-2.6,3.07-8.07-.65-13.59C1984.18,1010.82,1967.33,1005.56,1948.41,1007.2Z"/><path class="cls-33" d="M1566.46,930.6a14.48,14.48,0,0,0-3-13c-8.23-10-31-15.08-46.39-9.65-8,2.83-11.83,7.73-13.47,10.42-7.65-.89-18.79-2-32.33-2.64-35.59-1.72-58.27-2.82-69.14,5.45-2,1.52-11.53,9.39-2.1,28.18-2.67.57-22.61,5-29.33,17.44s2.49,27.52,23.35,35.61c-13,4.06-19.84,13.32-16.56,22.06,3.47,9.26,17.45,15.67,32.72,14.78,2.9,4.69,8.4,11.19,18.86,16,20.22,9.28,50.61,8.38,76.92-2.18,22.7,17.06,58,21.56,82.32,12.59,22.8-8.41,27.39-25.49,28-28.19,18.07-4.55,29.67-15.27,29.12-26.49-.59-12-14.9-19.33-17.06-20.4.88-.92,9.75-10.58,2.54-21.3-6.33-9.41-20.18-12.42-22.3-12.85,1.22-2.61,3.07-8.07-.65-13.6C1602.23,934.23,1585.37,929,1566.46,930.6Z"/><path class="cls-34" d="M1779.1,936a14.44,14.44,0,0,0-3-13c-8.23-10-31-15.08-46.39-9.65-8,2.83-11.83,7.73-13.47,10.42-7.65-.89-18.79-2-32.33-2.64-35.59-1.72-58.27-2.82-69.14,5.45-2,1.52-11.54,9.39-2.1,28.18-2.68.57-22.61,5-29.33,17.44s2.48,27.52,23.35,35.61c-13,4.06-19.84,13.32-16.56,22.06,3.47,9.26,17.45,15.67,32.72,14.78,2.9,4.69,8.4,11.19,18.86,16,20.21,9.28,50.61,8.38,76.92-2.18,22.7,17.06,58,21.56,82.31,12.59,22.81-8.41,27.4-25.49,28.06-28.19,18.07-4.55,29.67-15.27,29.11-26.49-.59-12-14.89-19.33-17.06-20.4.88-.92,9.76-10.58,2.55-21.3-6.33-9.41-20.18-12.42-22.3-12.85,1.22-2.61,3.07-8.07-.66-13.6C1814.88,939.63,1798,934.36,1779.1,936Z"/><path class="cls-35" d="M1802.14,1012.79a14.48,14.48,0,0,0-3-13c-8.23-10-31-15.08-46.39-9.65-8,2.83-11.83,7.73-13.47,10.42-7.65-.89-18.79-2-32.33-2.64-35.59-1.72-58.27-2.82-69.14,5.45-2,1.52-11.53,9.39-2.1,28.18-2.67.57-22.61,5-29.33,17.45s2.48,27.51,23.35,35.6c-13,4.06-19.84,13.32-16.56,22.06,3.47,9.26,17.45,15.67,32.72,14.78,2.9,4.7,8.4,11.19,18.86,16,20.22,9.28,50.61,8.39,76.92-2.17,22.7,17,58,21.56,82.32,12.59,22.8-8.41,27.39-25.5,28-28.2,18.07-4.55,29.67-15.27,29.12-26.49-.59-12-14.9-19.33-17.07-20.4.89-.92,9.76-10.58,2.55-21.3-6.33-9.4-20.18-12.42-22.3-12.85,1.22-2.6,3.07-8.07-.66-13.6C1837.91,1016.42,1821.05,1011.15,1802.14,1012.79Z"/><path class="cls-36" d="M1585.37,990a14.47,14.47,0,0,0-3-13c-8.23-10-31-15.08-46.39-9.65-8,2.83-11.83,7.73-13.47,10.42-7.65-.89-18.79-2-32.33-2.64-35.59-1.72-58.27-2.82-69.14,5.45-2,1.52-11.54,9.39-2.1,28.18-2.68.57-22.62,5-29.33,17.44s2.48,27.52,23.35,35.61c-13,4.06-19.84,13.32-16.57,22.06,3.48,9.26,17.46,15.67,32.73,14.78,2.9,4.69,8.4,11.19,18.86,16,20.21,9.28,50.6,8.38,76.92-2.18,22.7,17.06,58,21.56,82.31,12.59,22.81-8.41,27.4-25.49,28.06-28.19,18.07-4.55,29.67-15.27,29.11-26.49-.59-12-14.89-19.33-17.06-20.4.88-.92,9.76-10.58,2.55-21.3-6.33-9.41-20.19-12.42-22.3-12.85,1.22-2.61,3.07-8.07-.66-13.6C1621.15,993.65,1604.29,988.38,1585.37,990Z"/><path class="cls-37" d="M1805.88,1112.42a14.5,14.5,0,0,1,3-13c8.23-10,31-15.08,46.4-9.65,8,2.83,11.82,7.73,13.47,10.42,7.65-.89,18.79-2,32.32-2.64,35.59-1.72,58.27-2.82,69.14,5.45,2,1.52,11.54,9.39,2.1,28.18,2.68.57,22.62,5,29.33,17.45s-2.48,27.51-23.34,35.6c13,4.06,19.84,13.32,16.56,22.06-3.47,9.26-17.46,15.67-32.73,14.78-2.89,4.7-8.4,11.19-18.85,16-20.22,9.28-50.61,8.39-76.93-2.17-22.7,17.05-58,21.56-82.31,12.59-22.81-8.41-27.4-25.5-28.06-28.2-18.06-4.55-29.66-15.27-29.11-26.49.59-12,14.9-19.33,17.06-20.4-.88-.92-9.76-10.58-2.55-21.3,6.33-9.4,20.19-12.42,22.3-12.85-1.21-2.6-3.06-8.07.66-13.6C1770.1,1116.05,1787,1110.78,1805.88,1112.42Z"/><path class="cls-38" d="M-1540.3,1037.74q-25.58,446.17-51.16,892.34l4512.86,5.69-21.05-868.68-900,11.78C618.4,1097,347.54,1100.58-12,1096.34-378.89,1092-902.81,1078.78-1540.3,1037.74Z"/><path class="cls-39" d="M-1556.34,1317.52q-17.57,372.36-35.12,744.71l4512.86,5.68-21.05-868.68a1210.14,1210.14,0,0,1-298,41.7c-175.14,2.39-253.37-35.3-426.28-38.36-147.18-2.61-222.34,22.36-349.55,42.63-274.33,43.7-490.78,17.72-764.86-15.17-469.69-56.36-556.46-162.27-796.62-83.86C182.56,1173.11-2,1248.88-12,1228.49c-5.66-11.51,51.12-39.62,48.21-55.76C25.44,1113.26-796,1213.22-1556.34,1317.52Z"/><path class="cls-40" d="M-584.43,1526.4q-17.55,372.35-35.11,744.7l4512.85,5.69-21-868.68a1210.14,1210.14,0,0,1-298,41.7c-175.14,2.39-253.37-35.3-426.28-38.37-147.17-2.6-222.33,22.37-349.54,42.63-274.33,43.7-490.78,17.73-764.87-15.16-469.69-56.37-556.46-162.27-796.61-83.86-82.5,26.93-267.07,102.71-277.1,82.31-5.65-11.5,51.12-39.61,48.21-55.75C997.36,1322.14,175.9,1422.09-584.43,1526.4Z"/><path class="cls-41" d="M112.87,1054.57c0,.28-.06,1.48-.16,3.88q-.93,21.4-1.87,42.82a37.53,37.53,0,0,1,7.46-.75,37.46,37.46,0,0,1,14.64-1c.25-10.91,1.7-29.07,6.4-60.94q66.75-48.76,64.94-51.46t-66.94,37.47q-2.9-38.2-2.4-75.55c0-.14,0-.41,0-.55q20.93-49.38,41.86-98.74Q147,902.47,117.19,955.23,6.55,901.29,4.46,905.18t108.4,67.94C113.93,1013.42,113.53,1038.56,112.87,1054.57Z"/><path class="cls-42" d="M29.38,812.56a11.2,11.2,0,0,1,2.32-10.09c6.37-7.74,24-11.69,35.94-7.48a19.3,19.3,0,0,1,10.43,8.07c5.93-.68,14.56-1.54,25.05-2,27.57-1.33,45.14-2.18,53.56,4.22,1.55,1.18,8.94,7.27,1.63,21.84,2.07.44,17.52,3.88,22.72,13.51s-1.92,21.32-18.09,27.58c10.07,3.14,15.37,10.32,12.83,17.09-2.69,7.17-13.52,12.14-25.35,11.45-2.24,3.64-6.51,8.67-14.61,12.39-15.66,7.19-39.2,6.5-59.59-1.69-17.59,13.22-44.92,16.71-63.77,9.76-17.67-6.52-21.22-19.75-21.73-21.85-14-3.52-23-11.83-22.56-20.52.46-9.31,11.54-15,13.22-15.8-.68-.72-7.56-8.2-2-16.5,4.9-7.29,15.63-9.62,17.27-10A10.43,10.43,0,0,1-2.81,822C1.66,815.37,14.72,811.29,29.38,812.56Z"/><path class="cls-43" d="M110.3,817.05A11.24,11.24,0,0,1,112.62,807c6.38-7.74,24-11.69,35.95-7.48A19.3,19.3,0,0,1,159,807.56c5.93-.69,14.56-1.54,25-2,27.57-1.33,45.15-2.18,53.57,4.23,1.55,1.17,8.93,7.27,1.62,21.83,2.08.44,17.52,3.88,22.73,13.51S260,866.4,243.87,872.67c10.06,3.14,15.37,10.32,12.83,17.09-2.69,7.17-13.52,12.14-25.35,11.45-2.25,3.63-6.51,8.67-14.61,12.38-15.66,7.19-39.21,6.5-59.59-1.68-17.59,13.21-44.93,16.7-63.77,9.75-17.67-6.51-21.23-19.75-21.74-21.84-14-3.53-23-11.83-22.55-20.52.45-9.32,11.54-15,13.21-15.81-.68-.71-7.56-8.19-2-16.5,4.9-7.28,15.64-9.62,17.28-10a10.4,10.4,0,0,1,.51-10.54C82.59,819.86,95.65,815.78,110.3,817.05Z"/><path class="cls-44" d="M175.75,961.42a11.2,11.2,0,0,1,2.31-10.08c6.38-7.75,24-11.69,35.95-7.48a19.3,19.3,0,0,1,10.43,8.07c5.93-.69,14.56-1.54,25-2,27.58-1.33,45.15-2.18,53.57,4.22,1.55,1.18,8.94,7.28,1.62,21.84,2.08.44,17.52,3.88,22.73,13.51s-1.93,21.32-18.09,27.59c10.06,3.14,15.37,10.32,12.83,17.09-2.69,7.17-13.52,12.14-25.35,11.45-2.25,3.63-6.51,8.67-14.61,12.38-15.66,7.19-39.21,6.5-59.59-1.68-17.59,13.21-44.93,16.7-63.77,9.75-17.67-6.51-21.23-19.75-21.74-21.84-14-3.53-23-11.83-22.55-20.52.46-9.32,11.54-15,13.22-15.81-.69-.71-7.56-8.19-2-16.5,4.91-7.28,15.64-9.62,17.28-10a10.4,10.4,0,0,1,.51-10.54C148,964.23,161.09,960.15,175.75,961.42Z"/><path class="cls-45" d="M32.36,820.85a6.08,6.08,0,0,1,1.25-5.47c3.46-4.2,13-6.34,19.49-4.06a10.46,10.46,0,0,1,5.66,4.38c3.22-.37,7.9-.84,13.58-1.11,15-.72,24.48-1.18,29.05,2.29.84.64,4.84,3.94.88,11.84,1.12.24,9.5,2.11,12.32,7.33s-1,11.56-9.81,15c5.46,1.71,8.34,5.6,7,9.27-1.46,3.89-7.33,6.58-13.75,6.21a17.65,17.65,0,0,1-7.92,6.72c-8.49,3.89-21.26,3.52-32.31-.92-9.54,7.17-24.36,9.06-34.58,5.29C13.6,874,11.67,866.86,11.39,865.73,3.8,863.82-1.07,859.31-.84,854.6c.25-5.05,6.26-8.12,7.17-8.57-.37-.39-4.1-4.44-1.07-8.95,2.66-4,8.48-5.21,9.37-5.4A5.65,5.65,0,0,1,14.9,826C17.33,822.37,24.41,820.16,32.36,820.85Z"/><path class="cls-46" d="M76.24,823.29a6.09,6.09,0,0,1,1.26-5.47c3.45-4.2,13-6.34,19.49-4.06a10.47,10.47,0,0,1,5.65,4.38c3.22-.37,7.9-.84,13.58-1.11,14.95-.72,24.48-1.19,29.05,2.29.84.64,4.85,3.94.88,11.84,1.13.24,9.5,2.1,12.32,7.32s-1,11.56-9.81,15c5.46,1.71,8.34,5.6,7,9.27-1.46,3.89-7.33,6.58-13.75,6.21a17.53,17.53,0,0,1-7.92,6.71c-8.49,3.9-21.26,3.53-32.31-.91-9.54,7.16-24.36,9.06-34.58,5.29-9.58-3.53-11.51-10.71-11.79-11.85C47.69,866.25,42.81,861.75,43,857c.25-5,6.26-8.12,7.17-8.57-.37-.39-4.1-4.45-1.07-9,2.66-3.95,8.48-5.22,9.37-5.4a5.64,5.64,0,0,1,.28-5.71C61.21,824.81,68.29,822.6,76.24,823.29Z"/><path class="cls-47" d="M111.72,901.57A6.09,6.09,0,0,1,113,896.1c3.46-4.2,13-6.34,19.49-4.06a10.5,10.5,0,0,1,5.66,4.38c3.21-.37,7.89-.83,13.58-1.11,14.95-.72,24.48-1.18,29,2.29.85.64,4.85,3.95.89,11.84,1.12.24,9.5,2.11,12.32,7.33s-1.05,11.56-9.81,15c5.46,1.7,8.33,5.59,7,9.26-1.46,3.89-7.33,6.59-13.75,6.21a17.71,17.71,0,0,1-7.92,6.72c-8.49,3.9-21.26,3.52-32.32-.92-9.53,7.17-24.36,9.06-34.57,5.29C93,954.76,91,947.58,90.76,946.45c-7.59-1.91-12.46-6.42-12.23-11.13.25-5.05,6.26-8.12,7.17-8.57-.37-.39-4.1-4.44-1.07-9,2.66-3.95,8.48-5.21,9.37-5.39a5.65,5.65,0,0,1,.27-5.72C96.7,903.09,103.78,900.88,111.72,901.57Z"/><path class="cls-48" d="M6.35,885.86a6.09,6.09,0,0,1,1.26-5.47c3.46-4.2,13-6.34,19.49-4.06a10.5,10.5,0,0,1,5.66,4.38c3.21-.37,7.89-.83,13.58-1.11,14.95-.72,24.48-1.18,29,2.29.84.64,4.85,3.94.88,11.84,1.13.24,9.5,2.11,12.33,7.33s-1,11.56-9.81,15c5.45,1.71,8.33,5.6,7,9.27-1.46,3.89-7.34,6.59-13.75,6.21a17.71,17.71,0,0,1-7.92,6.72c-8.5,3.9-21.26,3.52-32.32-.92-9.53,7.17-24.36,9.06-34.58,5.29-9.58-3.53-11.51-10.71-11.78-11.84-7.59-1.91-12.46-6.42-12.23-11.13.25-5.05,6.26-8.12,7.16-8.57-.37-.39-4.09-4.44-1.06-8.95,2.65-4,8.47-5.21,9.36-5.4A5.64,5.64,0,0,1-11.1,891C-8.68,887.38-1.59,885.17,6.35,885.86Z"/><path class="cls-49" d="M90.9,935.81q-1.58-20.71-1.3-41v-.31Q101,867.78,112.3,841L80,898.21Q20,869,18.85,871.07t58.78,36.84c.58,21.86.36,35.49,0,44.17,0,.15,0,.8-.09,2.1q-.67,15.48-1.34,30.94c0,.55,0,1.1-.08,1.65q-.72,16.68-1.45,33.36l-.09,2q-.54,12.61-1.09,25.22l-.15,3.38q-.63,14.35-1.25,28.69l-.15,3.46c-.09,2-.57,13.12-.61,14-.2,4.3-1.1,11.8-4.27,25.79a22.11,22.11,0,0,0,12.06,4.6,21.32,21.32,0,0,0,7.62-.94c.17-15.22.31-27.26.41-35.57.15-12.67.3-26,.46-39.42,0-.54,0-1.09,0-1.64.12-11,.26-22.06.39-32.9,0-.88,0-1.77,0-2.65q.08-6.11.14-12.07c0-.89,0-1.78,0-2.65.09-6.89.17-13.6.25-20.07,0-1.28,0-1.92,0-2.07.08-5.81.81-15.76,3.49-34q36.2-26.43,35.22-27.9T90.9,935.81Z"/><path class="cls-5" d="M2811.2,315.16q5.73,2.4-136.32,357-1.62,317.67-3.25,635.34c-1.66,2-11.87,13.75-29.21,14.61a41.57,41.57,0,0,1-28.4-9.74L2630,1207.72q7.49-197.18,3.36-394.61l-10.77-276c-20.21-36.5-50.7-91-88.85-157-46.38-80.26-72-122-70.59-122.93s29.54,38.83,154.73,229.92q-7.51-88.49-15.13-177Q2593,197.47,2583.19,85c17,82.11,32.71,168.39,46.66,258.61,15.4,99.68,27.25,195.49,36.22,286.91Q2805.75,312.85,2811.2,315.16Z"/><g class="cls-50"><g class="cls-51"><path class="cls-52" d="M2611.45,855c10.45,4.24,18,13.37,22.57,23.46,5.45,12.12,6.4,25.7,6.59,38.81.21,13.79.27,27.67-.77,41.42-1,13.57-3.46,27-8.49,39.7-5.44,13.74-13.34,26.35-21.77,38.43-.55.79.75,1.54,1.3.75,7.75-11.1,15-22.64,20.39-35.1a131.16,131.16,0,0,0,9.71-39.58c1.35-14,1.26-28.21,1.17-42.3-.09-13.54-.68-27.54-5.73-40.27-4.59-11.55-12.82-22-24.57-26.77-.89-.36-1.28,1.09-.4,1.45Z"/></g><g class="cls-51"><path class="cls-53" d="M2617,753.32c14.76,27.7,29.48,55.85,38.07,86.17a172.16,172.16,0,0,1,7,45.35c.14,15.95-2.93,31.46-6.82,46.86-3.8,15.06-8.11,30.08-9.78,45.57-1.77,16.52.54,32.94,1.55,49.42a143.47,143.47,0,0,1-4.4,46.64,177.58,177.58,0,0,1-17.78,41.86c-15.61,27.07-37,50.2-58.63,72.5-2.72,2.81-5.46,5.6-8.2,8.4-.67.69.39,1.75,1.06,1.06,22-22.52,44.25-45.32,61.39-71.92,16.18-25.1,27.83-54,28.43-84.21.33-17-2.66-33.81-2.62-50.78,0-16.44,3.82-32.41,7.89-48.24,3.93-15.29,8-30.64,9.1-46.46a159.21,159.21,0,0,0-3.95-45.68c-6.95-30.68-20.95-59.28-35.5-87q-2.73-5.16-5.47-10.31c-.45-.86-1.75-.1-1.3.75Z"/></g><g class="cls-51"><path class="cls-54" d="M2617.19,674.34c35.23,27.81,56,69.83,58.22,114.46.66,13.06.37,26.16,1.48,39.19,1.07,12.57,3.28,25,5.34,37.43,4.42,26.55,5.91,53,5.75,79.93-.17,26.55-.76,53.1-1.17,79.65-.4,26.25.15,52.77-2.83,78.89a214.66,214.66,0,0,1-55.26,120.76c-15.88,17.18-35.69,30.41-50.54,48.57a119.19,119.19,0,0,0-26.79,75.27.75.75,0,0,0,1.5,0,118.69,118.69,0,0,1,20.39-66.21c13.62-20,33.86-33.71,50.8-50.65A215.46,215.46,0,0,0,2683.44,1118c4.53-25.33,4.23-51.24,4.62-76.87q.63-40.57,1.25-81.16c.39-26.33.46-52.76-3.14-78.9-1.77-12.86-4.27-25.6-6.09-38.45-1.9-13.47-2.45-26.92-2.74-40.5-.27-12.22-.77-24.43-3.06-36.46a152.76,152.76,0,0,0-9.18-30.46,156.12,156.12,0,0,0-34.86-51.41,153,153,0,0,0-12-10.49c-.75-.59-1.82.46-1.06,1.06Z"/></g><g class="cls-51"><path class="cls-55" d="M2619,572.89q12.24,26.58,23.92,53.4t22.79,54q6.28,15.28,12.36,30.65c.35.89,1.8.5,1.45-.4q-10.83-27.32-22.22-54.39T2634,602.46q-6.78-15.21-13.75-30.33c-.4-.87-1.69-.11-1.29.76Z"/></g></g><path class="cls-56" d="M2228,259.08a27.38,27.38,0,0,1,5.65-24.58c15.54-18.86,58.49-28.47,87.58-18.22,15.15,5.34,22.32,14.6,25.42,19.67,14.44-1.67,35.47-3.75,61-5,67.17-3.24,110-5.31,130.51,10.29,3.77,2.87,21.77,17.72,4,53.2,5.06,1.07,42.69,9.46,55.37,32.93s-4.69,51.94-44.07,67.2c24.52,7.66,37.45,25.15,31.26,41.65-6.55,17.46-32.94,29.57-61.77,27.89-5.47,8.86-15.86,21.12-35.59,30.18-38.16,17.51-95.53,15.83-145.2-4.11-42.84,32.19-109.45,40.7-155.37,23.77-43.05-15.87-51.71-48.13-53-53.23-34.1-8.58-56-28.82-55-50,1.12-22.7,28.12-36.49,32.2-38.51-1.66-1.74-18.41-20-4.8-40.2,11.94-17.75,38.1-23.44,42.09-24.26-2.3-4.91-5.79-15.23,1.24-25.66C2160.52,265.92,2192.34,256,2228,259.08Z"/><path class="cls-57" d="M2792.79,477.64a27.35,27.35,0,0,1,5.65-24.58c15.54-18.86,58.49-28.47,87.57-18.22,15.16,5.34,22.33,14.59,25.43,19.67,14.43-1.67,35.46-3.75,61-5,67.18-3.24,110-5.31,130.51,10.29,3.78,2.87,21.77,17.72,4,53.2,5,1.07,42.69,9.46,55.37,32.92s-4.69,51.94-44.07,67.21c24.51,7.66,37.45,25.15,31.26,41.65-6.56,17.46-32.95,29.57-61.77,27.89-5.47,8.86-15.86,21.12-35.6,30.18-38.16,17.51-95.52,15.82-145.19-4.11-42.85,32.19-109.45,40.7-155.37,23.77-43.05-15.88-51.72-48.13-53-53.23-34.1-8.58-56-28.82-55-50,1.11-22.71,28.12-36.49,32.2-38.51-1.66-1.74-18.42-20-4.8-40.2,11.94-17.76,38.09-23.44,42.09-24.26-2.3-4.92-5.79-15.23,1.24-25.66C2725.27,484.48,2757.08,474.54,2792.79,477.64Z"/><path class="cls-58" d="M2369.23-48.16a27.35,27.35,0,0,1,5.65-24.58c15.54-18.86,58.49-28.47,87.57-18.22,15.16,5.35,22.33,14.6,25.43,19.67,14.43-1.67,35.46-3.75,61-5,67.18-3.24,110-5.31,130.51,10.29,3.78,2.87,21.77,17.72,4,53.2,5.06,1.07,42.69,9.46,55.37,32.93s-4.69,51.94-44.07,67.2c24.52,7.66,37.45,25.15,31.26,41.65-6.56,17.46-33,29.57-61.77,27.9-5.47,8.85-15.86,21.11-35.59,30.17-38.17,17.51-95.53,15.83-145.2-4.11-42.85,32.19-109.45,40.7-155.37,23.77-43-15.87-51.72-48.13-53-53.22-34.1-8.59-56-28.83-55-50,1.11-22.7,28.12-36.49,32.2-38.51-1.66-1.74-18.42-20-4.8-40.2C2259.42,7,2285.57,1.35,2289.57.53c-2.3-4.91-5.79-15.23,1.24-25.66C2301.71-41.32,2333.52-51.26,2369.23-48.16Z"/><path class="cls-59" d="M2637,234.21a27.3,27.3,0,0,1,5.65-24.57c15.53-18.86,58.49-28.48,87.57-18.23,15.16,5.35,22.32,14.6,25.42,19.67,14.44-1.67,35.47-3.75,61-5,67.18-3.25,110-5.32,130.51,10.28,3.78,2.87,21.77,17.73,4,53.21,5,1.07,42.69,9.46,55.36,32.92s-4.68,51.94-44.06,67.2c24.51,7.66,37.44,25.15,31.25,41.65-6.55,17.47-32.94,29.58-61.76,27.9-5.47,8.85-15.86,21.11-35.6,30.17-38.16,17.52-95.52,15.83-145.2-4.1-42.84,32.19-109.45,40.69-155.37,23.76-43-15.87-51.71-48.12-52.95-53.22-34.1-8.59-56-28.82-55-50,1.12-22.71,28.13-36.5,32.21-38.51-1.67-1.74-18.42-20-4.81-40.21,12-17.75,38.1-23.44,42.1-24.26-2.3-4.91-5.79-15.23,1.23-25.66C2569.47,241.06,2601.29,231.11,2637,234.21Z"/><path class="cls-6" d="M667.77,582.7q5.72,1.71-136.32,252.77-1.62,224.9-3.25,449.8c-1.66,1.41-11.87,9.74-29.21,10.34a52.27,52.27,0,0,1-28.4-6.89l15.93-74.1Q494,1075,489.87,935.24q-5.37-97.71-10.76-195.42C458.9,714,428.41,675.4,390.26,628.66c-46.39-56.83-72-86.39-70.59-87s29.54,27.49,154.72,162.78q-7.51-62.65-15.13-125.33-9.67-79.69-19.51-159.36c17,58.13,32.72,119.21,46.66,183.09,15.41,70.58,27.25,138.41,36.23,203.13Q662.32,581.06,667.77,582.7Z"/><g class="cls-60"><g class="cls-61"><path class="cls-62" d="M536.38,944.09a125.87,125.87,0,0,0-16.5,30c-2,5.35-4.15,11.07-3.94,16.88a18.15,18.15,0,0,0,1.91,7.51c1.21,2.44,2.84,4.61,4.26,6.92,5.95,9.71,5.26,21.28,3.72,32.11-.78,5.51-1.78,11-2.4,16.52a85.75,85.75,0,0,0-.3,16.8,86.61,86.61,0,0,0,11.16,35.94.75.75,0,0,0,1.29-.76A84.74,84.74,0,0,1,525,1074.13a83.48,83.48,0,0,1-.36-16.65c.43-5.55,1.39-11,2.23-16.53,1.56-10.2,3-21.18-.84-31.07a37.08,37.08,0,0,0-3.6-6.79,35.81,35.81,0,0,1-4-7.05c-2.08-5.68-.47-11.85,1.41-17.35a124.72,124.72,0,0,1,17.86-33.84c.58-.78-.72-1.53-1.29-.76Z"/></g><g class="cls-61"><path class="cls-63" d="M540.82,879.21a116.5,116.5,0,0,0-29.46,63.49c-1.71,13.38-.15,27.31-4.25,40.33-1.92,6.1-5,11.74-7.37,17.67a45.38,45.38,0,0,0-3.48,17.7c.2,12.62,5.15,24.54,8.57,36.51a88.3,88.3,0,0,1,3.55,20.07,134.28,134.28,0,0,1-.87,20.54c-1.43,13.64-3.75,27.21-3.08,41a134.48,134.48,0,0,0,7.15,36.21c8.11,24.1,21.44,46,35.18,67.29,1.74,2.69,3.5,5.38,5.25,8.06.53.81,1.83.06,1.3-.75-13.82-21.1-27.65-42.55-37-66.08a147.14,147.14,0,0,1-9.6-35.93c-1.65-13.16-.51-26.18,1.08-39.28,1.64-13.43,3.38-27.06,1.08-40.52-2.13-12.44-7.36-24.08-9.86-36.43a49.09,49.09,0,0,1-.58-18.86c1.19-6.34,4.07-12.14,6.68-18a67.75,67.75,0,0,0,5.46-17.75c1-6.52,1.07-13.13,1.36-19.71a120.22,120.22,0,0,1,6.76-36A114.23,114.23,0,0,1,536.18,887c1.81-2.31,3.72-4.55,5.7-6.72.65-.71-.41-1.77-1.06-1.06Z"/></g><g class="cls-61"><path class="cls-64" d="M531.73,774.26a200.19,200.19,0,0,0-44,96.1c-3.23,19.89-2.53,40-3.1,60-.6,21.05-3.8,41.81-7.78,62.46-3.88,20.12-8.64,40.15-11.21,60.49a148,148,0,0,0-1,31.34,171.85,171.85,0,0,0,5.22,28.63c5.09,19.42,12.33,38.2,17.58,57.57a399.64,399.64,0,0,1,11.44,61.45c2,18.83,3.37,38.3,10.81,56,5.87,13.93,16,27,29.88,33.63a45.85,45.85,0,0,0,10.34,3.44c.94.19,1.35-1.26.4-1.45-15.9-3.27-28.16-15.16-35.78-29-9.12-16.61-11.35-35.92-13.3-54.46-2.08-19.75-4.85-39.3-9.47-58.63s-11.22-37.73-17-56.6c-5.8-19-10-38.43-8.92-58.45,1.07-20.56,5.87-40.86,9.92-61,3.91-19.44,7.67-39,9.37-58.74,1.77-20.54.46-41.19,2.19-61.73a198.24,198.24,0,0,1,37-99.22q4-5.52,8.41-10.75c.61-.74-.44-1.8-1.06-1.06Z"/></g></g><path class="cls-65" d="M84.61,543c-1.14-3.33-2.47-10.41,5.65-17.4,15.54-13.35,58.49-20.16,87.57-12.9,15.16,3.78,22.33,10.33,25.43,13.92,14.44-1.18,35.47-2.65,61-3.52,67.17-2.3,110-3.77,130.5,7.28,3.78,2,21.78,12.55,4,37.67,5.06.75,42.69,6.69,55.37,23.3s-4.69,36.78-44.07,47.58c24.52,5.42,37.45,17.81,31.26,29.49-6.55,12.36-32.94,20.94-61.77,19.75-5.47,6.27-15.86,15-35.59,21.36-38.16,12.4-95.53,11.21-145.2-2.9-42.85,22.78-109.45,28.81-155.37,16.82-43-11.24-51.71-34.07-53-37.68-34.1-6.08-56-20.41-54.95-35.4,1.11-16.07,28.12-25.83,32.2-27.26-1.66-1.23-18.42-14.13-4.8-28.46C-25.2,582.08,1,578.05,5,577.47,2.65,574-.84,566.69,6.19,559.3,17.09,547.85,48.9,540.81,84.61,543Z"/><path class="cls-66" d="M649.36,697.74c-1.14-3.33-2.48-10.42,5.65-17.4,15.53-13.36,58.49-20.16,87.57-12.9,15.16,3.78,22.32,10.33,25.42,13.92,14.44-1.18,35.47-2.66,61-3.53,67.18-2.3,110-3.76,130.51,7.28,3.78,2,21.77,12.55,4,37.67,5,.76,42.69,6.7,55.36,23.31s-4.69,36.77-44.07,47.58c24.52,5.42,37.45,17.8,31.26,29.48-6.55,12.37-32.94,20.94-61.76,19.75-5.47,6.27-15.86,15-35.6,21.37-38.16,12.4-95.52,11.2-145.2-2.91C720.64,884.15,654,890.17,608.11,878.18c-43-11.23-51.71-34.07-53-37.68-34.1-6.08-56-20.4-55-35.39,1.12-16.08,28.13-25.84,32.21-27.26-1.67-1.24-18.42-14.14-4.81-28.47,11.95-12.57,38.1-16.59,42.1-17.17-2.31-3.48-5.79-10.79,1.23-18.17C581.83,702.58,613.65,695.54,649.36,697.74Z"/><path class="cls-67" d="M225.8,325.48c-1.14-3.33-2.48-10.41,5.65-17.4,15.53-13.35,58.49-20.16,87.57-12.9,15.16,3.79,22.32,10.34,25.42,13.93,14.44-1.19,35.47-2.66,61-3.53,67.18-2.3,110-3.77,130.51,7.28,3.78,2,21.77,12.55,4,37.67,5.05.75,42.69,6.69,55.36,23.3s-4.68,36.78-44.06,47.58c24.51,5.43,37.44,17.81,31.26,29.49-6.56,12.36-33,20.94-61.77,19.75-5.47,6.27-15.86,15-35.6,21.36-38.16,12.4-95.52,11.21-145.2-2.9-42.84,22.79-109.45,28.81-155.36,16.82-43.05-11.24-51.72-34.07-53-37.68-34.1-6.08-56-20.41-55-35.39,1.12-16.08,28.13-25.84,32.21-27.27-1.66-1.23-18.42-14.13-4.81-28.46,11.95-12.57,38.1-16.59,42.1-17.18-2.3-3.48-5.79-10.78,1.23-18.16C158.27,330.33,190.09,323.29,225.8,325.48Z"/><path class="cls-68" d="M493.57,525.4c-1.14-3.33-2.48-10.42,5.65-17.4,15.53-13.36,58.49-20.16,87.57-12.9,15.16,3.78,22.32,10.33,25.42,13.92,14.44-1.18,35.47-2.66,61-3.53,67.17-2.3,110-3.76,130.51,7.28,3.77,2,21.77,12.55,4,37.67,5.06.76,42.69,6.7,55.37,23.31s-4.69,36.77-44.07,47.58c24.52,5.42,37.45,17.8,31.26,29.48-6.55,12.37-32.94,20.94-61.77,19.75-5.47,6.27-15.86,15-35.59,21.37-38.16,12.4-95.53,11.2-145.2-2.91-42.84,22.79-109.45,28.81-155.37,16.82-43-11.23-51.71-34.07-52.95-37.68-34.1-6.08-56-20.4-55-35.39,1.12-16.08,28.12-25.84,32.21-27.26-1.67-1.24-18.42-14.14-4.81-28.47,11.95-12.57,38.1-16.59,42.09-17.17-2.3-3.48-5.79-10.78,1.24-18.17C426,530.24,457.86,523.2,493.57,525.4Z"/><path class="cls-7" d="M2187-116.61q-3.81,38.19-8.48,73.9v0c-.4,3.23-.84,6.39-1.28,9.59v0c-4.21,31.26-8.92,61.15-14.15,90-.61,3.39-1.23,6.77-1.86,10.12-5.37,28.77-11.27,56.43-17.71,83.3v0c-.84,3.46-1.65,6.84-2.51,10.26-20.75,84.2-46.84,160.45-78.66,236.32-1,2.38-2,4.8-3,7.18-10.19,24.05-21,48.06-32.31,72.3-1,2-2,4.09-2.9,6.13-12.9,27.33-26.56,54.95-41,83.24-.34,26.69-.69,54.94-1,84.38,0,3.09-.08,6.17-.12,9.3-.36,29.07-.72,59.25-1.09,90.18,0,3.94-.1,7.92-.14,11.94q-.33,26.76-.66,54.23c0,3.94-.1,7.92-.14,11.9-.57,48.7-1.17,98.4-1.75,147.84,0,2.46-.06,4.91-.08,7.36-1.41,120.71-2.78,239.3-3.89,337-4.59,3.42-24.37,17.33-51.89,14.38a74.09,74.09,0,0,1-41.38-18.67c18.18-72.7,23.14-108.67,24-128.05.14-3,1.74-40.95,2.75-63,.23-5.21.45-10.37.67-15.58L1914,980.15c.23-5.06.45-10.15.65-15.21q2.48-56.66,4.93-113.3c.14-3,.28-6.1.4-9.15q3.27-74.94,6.52-149.89c.12-2.45.22-4.94.34-7.4q3-69.53,6-139c.14-3.16.28-6.28.39-9.44q1.62-36.47,3.18-72.9c-.83-4.28-1.64-8.51-2.46-12.79-.54-2.79-1.07-5.61-1.59-8.4q-6.08-32.07-11.75-64.39c-.47-2.64-.93-5.27-1.37-7.91q-7-40.21-13.39-80.82c-.54-3.31-1.06-6.62-1.57-10q-14-90-25.07-181.64c-.21-1.75-.83-4.83-1.07-9.07-1.84-32.61,17.86-62.29,22.74-60.71,1.79.59.74,5.43,1.49,10.75q10.29,73.32,22.24,145.8c.69,4.27,1.39,8.51,2.11,12.75q8.13,48.84,17,97.25,6-139,12.08-278c.38-8.89.78-17.73,1.16-26.62v0l3.63-83.42.42-10q1.93-44.49,3.88-89a50.65,50.65,0,0,0,10-2.45c6.26-2.08,13-4.76,17.85-5.13q-.72,63.4-1.47,126.76c0,2.46-.06,4.91-.08,7.36q-.9,75.29-1.83,150.6c0,2.71-.06,5.46-.1,8.21q-.91,77.79-1.9,155.62-.09,6.74-.18,13.42-1.14,90-2.27,180.07v.63Q2004.8,411,2023,376c2-3.83,4-7.66,5.9-11.56l0,0q14.46-28.61,27.83-59.14s0,0,0,0c2.07-4.72,4.09-9.44,6.14-14.28,0,0,0,0,0,0q17.48-41.39,32.84-85.69v0q2.73-8,5.42-16v0q18-54,32.6-111.52c.63-2.42,1.23-4.87,1.85-7.33q12-48.35,21.52-98.77c.42-2.3.86-4.65,1.29-6.95q8-43.5,14-88.18Z"/><g class="cls-69"><g class="cls-70"><path class="cls-71" d="M1983.36,785.91a63.82,63.82,0,0,0-13.65,31.55,71.88,71.88,0,0,0,.14,18.42c.82,6.66,2.09,13.27,2.56,20,.95,13.32-.73,26.63-1.72,39.9-1,13-1.08,26,2.08,38.81a193.37,193.37,0,0,0,7,21.22q4.08,10.89,8.18,21.76c.34.9,1.79.51,1.45-.4q-3.6-9.52-7.18-19.07c-2.29-6.09-4.59-12.18-6.45-18.42a95.31,95.31,0,0,1-3.81-19.3,136.25,136.25,0,0,1-.07-19.38c.74-13,2.54-25.93,2.33-39a147.56,147.56,0,0,0-1.87-19.34c-1-6.49-1.88-13-1.59-19.58A62,62,0,0,1,1984.43,787c.6-.75-.46-1.81-1.07-1.06Z"/></g><g class="cls-70"><path class="cls-72" d="M1987.48,741.7c-11,15.35-22.22,31.07-28.62,49a92,92,0,0,0-5.17,28.94c-.27,10.88.4,21.79.55,32.67.31,22-.2,44.07-1,66.1-.76,20.09-.84,41,7.41,59.71a64.5,64.5,0,0,0,7.13,12.37c2.9,3.91,6.23,7.48,9.4,11.17a71.72,71.72,0,0,1,14.44,25.52,70.39,70.39,0,0,1,1.73,6.83c.19,1,1.64.55,1.45-.39a70.09,70.09,0,0,0-10.88-25.75c-5.54-8-13-14.56-18.07-23-10.49-17.41-11.82-38.37-11.37-58.2.24-10.86.83-21.71,1.09-32.57s.36-21.88.3-32.83-.41-21.74-.63-32.61c-.21-10.29.21-20.52,2.89-30.51,5-18.42,15.67-34.64,26.59-50l4.09-5.73c.57-.78-.74-1.53-1.29-.75Z"/></g><g class="cls-51"><path class="cls-73" d="M1987.11,662.64c-16.66,32.07-31.12,65.39-41.43,100.07A403.21,403.21,0,0,0,1933.56,816a464.09,464.09,0,0,0-4.87,57.2c-.59,19.68-.39,39.38-.23,59.06.16,18.73.47,37.49,2.2,56.16,1.7,18.44,4.79,36.83,10.46,54.49a228.35,228.35,0,0,0,20.39,45.09c17,29.22,39,55.11,61.42,80.3q4.2,4.74,8.44,9.47c.64.72,1.7-.34,1.06-1.06-22.41-25.07-44.89-50.35-63.07-78.74a248.13,248.13,0,0,1-23-44.79,228.69,228.69,0,0,1-12.85-52.77c-2.37-18.42-3.08-37-3.36-55.55-.3-19-.45-38-.22-57a554.31,554.31,0,0,1,3.31-58.18,387.05,387.05,0,0,1,10.26-53.57c9.23-35,22.89-68.7,39-101.07q2.92-5.88,6-11.69c.45-.86-.85-1.62-1.29-.76Z"/></g><g class="cls-51"><path class="cls-74" d="M2000.77,565.07c-34.14,35.46-56.78,79.62-74.6,125.08-18.63,47.51-32.78,96.63-51,144.33-10.18,26.75-20.85,53.52-27,81.56-5.76,26.19-6.76,52.89-1.33,79.22,10.83,52.55,42,98,70.51,142.38,29.43,45.78,59.3,96.49,60.89,152.42a161.06,161.06,0,0,1-.71,20c-.1,1,1.4,1,1.5,0,5.26-54.11-18.78-105.13-46-150.26-27.8-46-61.26-89.64-78.32-141.27-8.51-25.78-12-52.7-8.84-79.73,3.25-28.34,12.57-55.57,22.53-82.15,9.26-24.73,18.63-49.36,27.1-74.37,8-23.67,15.74-47.43,24.27-70.92,17-46.72,37.52-93.17,69.75-131.56q5.92-7,12.32-13.68c.67-.69-.39-1.75-1.06-1.06Z"/></g></g><path class="cls-75" d="M2158.67-74.41A27.32,27.32,0,0,1,2164.32-99c15.53-18.86,58.49-28.47,87.57-18.22,15.16,5.34,22.32,14.59,25.42,19.67,14.44-1.67,35.47-3.75,61-5,67.18-3.24,110-5.31,130.51,10.29,3.78,2.87,21.77,17.72,4,53.2,5,1.07,42.69,9.46,55.36,32.92s-4.68,51.94-44.06,67.21c24.51,7.66,37.44,25.15,31.25,41.64-6.55,17.47-32.94,29.58-61.76,27.9-5.47,8.86-15.86,21.12-35.6,30.18-38.16,17.51-95.52,15.82-145.2-4.11-42.84,32.19-109.45,40.7-155.36,23.77-43-15.88-51.72-48.13-53-53.23-34.1-8.59-56-28.82-55-50,1.12-22.71,28.13-36.49,32.21-38.51-1.66-1.74-18.42-20-4.81-40.2,12-17.76,38.1-23.44,42.1-24.26-2.3-4.92-5.79-15.23,1.23-25.66C2091.14-67.57,2123-77.51,2158.67-74.41Z"/><path class="cls-76" d="M1541.69-231c-2.17-9-4.72-28.08,10.79-46.91,29.65-36,111.64-54.35,167.15-34.78,28.93,10.2,42.61,27.86,48.53,37.54,27.56-3.19,67.7-7.16,116.47-9.51,128.22-6.2,209.93-10.15,249.1,19.63,7.21,5.48,41.56,33.83,7.55,101.55,9.66,2.05,81.49,18.06,105.69,62.84C2271-56.1,2238-1.51,2162.85,27.63c46.8,14.61,71.48,48,59.67,79.49-12.51,33.34-62.88,56.46-117.9,53.25-10.44,16.9-30.27,40.31-67.94,57.6-72.84,33.43-182.34,30.21-277.15-7.84-81.78,61.44-208.91,77.68-296.56,45.36-82.16-30.3-98.71-91.86-101.08-101.59C1296.8,137.51,1255,98.89,1257,58.48c2.13-43.34,53.68-69.66,61.47-73.51-3.18-3.32-35.16-38.11-9.17-76.74,22.79-33.88,72.71-44.73,80.34-46.3-4.39-9.38-11.05-29.07,2.36-49C1412.81-217.94,1473.54-236.92,1541.69-231Z"/><path class="cls-77" d="M1630.44,233.52a27.32,27.32,0,0,1,5.65-24.58c15.53-18.86,58.49-28.47,87.57-18.22,15.16,5.34,22.32,14.6,25.42,19.67,14.44-1.67,35.47-3.75,61-5,67.18-3.24,110-5.31,130.51,10.29,3.77,2.87,21.77,17.72,4,53.2,5.06,1.07,42.69,9.46,55.37,32.93s-4.69,51.94-44.07,67.2c24.52,7.66,37.45,25.15,31.26,41.65-6.55,17.46-32.94,29.57-61.77,27.9-5.47,8.85-15.85,21.11-35.59,30.17-38.16,17.51-95.52,15.83-145.2-4.11-42.84,32.19-109.45,40.7-155.37,23.77-43-15.87-51.71-48.13-53-53.22-34.1-8.59-56-28.83-55-50,1.12-22.7,28.12-36.49,32.21-38.51-1.67-1.74-18.42-20-4.81-40.2,12-17.75,38.1-23.44,42.09-24.26-2.3-4.91-5.79-15.23,1.24-25.66C1562.91,240.36,1594.73,230.42,1630.44,233.52Z"/><path class="cls-78" d="M2033.88,947.66q-60.8-60.92-62.13-59.64-1.49,1.43,71.5,80.77Z"/><path class="cls-78" d="M2615.07,932.82q26.07-22.2,26.91-21.27t-29.92,31.24q-51,40.26-51.45,39C2560.28,980.93,2579.55,963.17,2615.07,932.82Z"/><path class="cls-79" d="M2613.37,935c-44.51,26.43-97.43,51-158,66.7-184.1,47.67-338.63-12.83-425.36-59q1.79,5.06,3.58,10.13a289.85,289.85,0,0,0,40.45,51.93s39.22,39.48,97.13,56.62c59.87,17.73,189.65,13.2,355.25-34.44Z"/><path class="cls-80" d="M2030,942.71c1.14,3.33,2.56,7.39,4.27,12,0,0,.72,2,1.83,4.88,0,0,2.05,5.37,4.14,10.57,2.39,5.92,136.36,167.72,328.13,137.67,153.35-24,233.83-153.54,246.71-175-51.4,38.53-155.38,103.94-293.93,105.61C2185,1040.07,2081.83,979.38,2030,942.71Z"/><path class="cls-79" d="M2274.37,1057.52a142.52,142.52,0,0,0,26.55,9.37c10.1,2.47,30.36,7.18,55.7,1.77a120.55,120.55,0,0,0,38.51-15.7,157.41,157.41,0,0,1-53.85,14.25A155.23,155.23,0,0,1,2274.37,1057.52Z"/><path class="cls-79" d="M2186.79,1049.09a143.92,143.92,0,0,0,31,25.81,128.38,128.38,0,0,0,72,18.88,207.62,207.62,0,0,1-57.95-17.06A225.06,225.06,0,0,1,2186.79,1049.09Z"/><path class="cls-79" d="M1917.53,864.08a62.43,62.43,0,0,0,62.83-9.71q-.58,13-.94,26.45c-.16,5.88-.28,11.72-.36,17.49a43.73,43.73,0,0,1-13.43,6.42,45.59,45.59,0,0,1-14,1.58c-14.88-.34-28.26-6.68-34.08-9.76-.31-4.5-.52-9.24-.57-14.21C1917,875.87,1917.15,869.77,1917.53,864.08Z"/><path class="cls-79" d="M2634.37,904.38c.29.45,7.48,11.26,20.13,10.7a23.07,23.07,0,0,0,20.63-16,79.11,79.11,0,0,1,.6,10.35,77,77,0,0,1-1.5,14.6,26.2,26.2,0,0,1-17.34,9c-13.44,1.09-21.87-9.41-22.52-10.24-.09-2.9-.18-6.86-.14-11.53C2634.25,908.68,2634.3,906.34,2634.37,904.38Z"/><path class="cls-81" d="M738.84,1324.79h180c-1.33-7.88-8.93-15.15-20.75-18.84,25.18-9.76,36.24-28,28.18-43s-32.17-20.37-35.41-21c1.62-7.27,3.39-20.56-2.52-34-12-27.35-48.12-38.16-75.92-33-25.77,4.82-41.29,22.82-46.54,29.57-2-3.24-6.57-9.16-16.26-12.57-18.59-6.56-46.06-.41-56,11.65a17.47,17.47,0,0,0-3.61,15.71c-22.83-2-43.18,4.38-50.15,14.72-4.49,6.67-2.26,13.27-.79,16.41-2.55.53-19.27,4.16-26.91,15.51-8.71,12.94,2,24.6,3.07,25.71-2.61,1.29-19.88,10.1-20.59,24.62a20,20,0,0,0,1.59,8.61C643.78,1325,691.31,1324.79,738.84,1324.79Z"/><path class="cls-82" d="M1864.33,1339.72h180c-1.32-7.88-8.93-15.15-20.75-18.84,25.18-9.76,36.24-28.05,28.18-43s-32.17-20.37-35.4-21.05c1.61-7.27,3.38-20.56-2.53-34-12-27.35-48.11-38.16-75.92-33-25.76,4.82-41.29,22.81-46.54,29.57-2-3.24-6.57-9.16-16.26-12.58-18.59-6.55-46.06-.4-56,11.66a17.47,17.47,0,0,0-3.61,15.71c-22.83-2-43.18,4.38-50.15,14.72-4.49,6.67-2.26,13.27-.79,16.41-2.55.53-19.27,4.16-26.91,15.51-8.7,12.94,2,24.59,3.07,25.71-2.61,1.29-19.87,10.1-20.59,24.62a20,20,0,0,0,1.59,8.61C1769.27,1339.91,1816.8,1339.72,1864.33,1339.72Z"/><path class="cls-83" d="M1730.41,1160.93h85.82c-.63-3.75-4.26-7.22-9.89-9,12-4.65,17.27-13.37,13.43-20.49s-15.34-9.71-16.88-10a26.31,26.31,0,0,0-1.2-16.22c-5.73-13-22.94-18.19-36.19-15.71-12.29,2.3-19.69,10.87-22.19,14.09a14.41,14.41,0,0,0-7.75-6c-8.87-3.13-22-.2-26.7,5.55a8.36,8.36,0,0,0-1.72,7.5c-10.88-1-20.58,2.08-23.91,7a7.75,7.75,0,0,0-.37,7.83c-1.22.25-9.19,2-12.83,7.39-4.15,6.17,1,11.73,1.46,12.26-1.24.61-9.48,4.81-9.82,11.74a9.63,9.63,0,0,0,.76,4.1C1685.09,1161,1707.75,1160.93,1730.41,1160.93Z"/><path class="cls-84" d="M817.92,1180.37h-180c1.33-7.87,8.93-15.14,20.75-18.84-25.17-9.75-36.24-28-28.17-43s32.17-20.37,35.4-21c-1.62-7.27-3.38-20.56,2.53-34,12-27.35,48.11-38.16,75.91-33,25.77,4.82,41.29,22.81,46.55,29.57,2-3.24,6.56-9.16,16.25-12.58,18.6-6.55,46.06-.4,56,11.65a17.51,17.51,0,0,1,3.62,15.72c22.83-2,43.17,4.37,50.14,14.72,4.49,6.67,2.26,13.27.79,16.41,2.56.52,19.28,4.16,26.91,15.51,8.71,12.94-2,24.59-3.07,25.71,2.61,1.28,19.88,10.1,20.59,24.62a19.68,19.68,0,0,1-1.59,8.6C913,1180.57,865.44,1180.37,817.92,1180.37Z"/><path class="cls-85" d="M1178.46,1095.67h180c-1.33-7.88-8.93-15.15-20.76-18.84,25.18-9.76,36.24-28,28.18-43s-32.17-20.37-35.4-21c1.62-7.26,3.38-20.55-2.53-34-12-27.35-48.11-38.16-75.91-32.95-25.77,4.82-41.29,22.81-46.55,29.56-2-3.24-6.56-9.15-16.25-12.57-18.6-6.56-46.06-.41-56,11.65a17.48,17.48,0,0,0-3.61,15.71c-22.83-2-43.17,4.38-50.14,14.73-4.5,6.67-2.26,13.26-.79,16.41-2.56.52-19.28,4.15-26.92,15.51-8.7,12.94,2,24.59,3.08,25.7-2.61,1.29-19.88,10.11-20.59,24.62a19.89,19.89,0,0,0,1.58,8.61C1083.4,1095.87,1130.94,1095.67,1178.46,1095.67Z"/><path class="cls-86" d="M1013.64,1195.13h180c-1.33-7.87-8.93-15.14-20.75-18.84,25.18-9.75,36.24-28,28.17-43s-32.16-20.37-35.4-21c1.62-7.27,3.38-20.56-2.53-34-12-27.35-48.11-38.16-75.91-33-25.77,4.82-41.29,22.81-46.55,29.57-2-3.24-6.56-9.16-16.25-12.58-18.6-6.55-46.06-.4-56,11.65a17.51,17.51,0,0,0-3.62,15.72c-22.83-2-43.17,4.37-50.14,14.72-4.49,6.67-2.26,13.27-.79,16.41-2.55.52-19.28,4.16-26.91,15.51-8.71,12.94,2,24.59,3.07,25.71-2.61,1.28-19.88,10.1-20.59,24.62a19.68,19.68,0,0,0,1.59,8.6C918.58,1195.33,966.11,1195.13,1013.64,1195.13Z"/><path class="cls-87" d="M176.27,1216.05h180c-1.33-7.87-8.93-15.14-20.76-18.84,25.18-9.76,36.24-28,28.18-43s-32.17-20.36-35.4-21c1.62-7.26,3.38-20.55-2.53-34-12-27.35-48.11-38.16-75.91-33-25.77,4.82-41.29,22.81-46.55,29.57-2-3.25-6.56-9.16-16.25-12.58-18.6-6.55-46.06-.41-56,11.65a17.49,17.49,0,0,0-3.61,15.72c-22.83-2-43.17,4.37-50.14,14.72-4.5,6.67-2.26,13.27-.79,16.41-2.56.52-19.28,4.16-26.92,15.51-8.7,12.94,2,24.59,3.08,25.7-2.61,1.29-19.88,10.11-20.59,24.63a19.82,19.82,0,0,0,1.58,8.6C81.21,1216.25,128.75,1216.05,176.27,1216.05Z"/><path class="cls-88" d="M-159.95,1315.1c3.77-14.95,13.43-43.93,39.34-68.58,38.1-36.22,95.73-48.22,144.94-31.26,34.36,11.85,55.47,34.67,65.25,47,24.69-23.5,62.2-26.59,89.14-8.13,24.41,16.73,35.65,48.09,27.48,77.67,11.91-18.23,33.6-27.27,54-22.73,23,5.1,39.88,26.41,39.79,51.15a67.07,67.07,0,0,1,105.14-71c18-26.5,50.19-38.94,79.58-31.26,33.72,8.82,57.3,42.47,54,79.57,32.9,2.17,60.45,24.38,68.21,54,9.17,35-11,74.11-48.32,88.1,20.75-10.32,80.45-36.46,147.78-17C803,1490.36,870.23,1599,848.46,1647.23,826.9,1695,704,1714.13,306.15,1622.39c-8.33,13.48-24.14,32.14-54.19,45.93-58.09,26.67-145.42,24.1-221-6.25-65.23,49-166.63,62-236.53,36.18-65.54-24.16-78.73-73.26-80.62-81-51.92-13.07-85.25-43.87-83.66-76.1,1.7-34.57,42.81-55.56,49-58.63-2.53-2.65-28-30.39-7.31-61.2,18.18-27,58-35.68,64.08-36.93-2.57-5.5-6.12-15.43-3.59-26.61a42.37,42.37,0,0,1,5.47-12.46C-253.67,1332.39-214.06,1320.11-159.95,1315.1Z"/><path class="cls-89" d="M107.18,1502.67c3.78-15,13.43-43.94,39.35-68.58,38.09-36.23,95.73-48.23,144.93-31.26,34.37,11.84,55.47,34.66,65.25,47,24.69-23.5,62.2-26.59,89.14-8.13,24.41,16.73,35.66,48.09,27.49,77.67,11.91-18.23,33.59-27.27,54-22.73,23,5.1,39.88,26.41,39.79,51.15a67.08,67.08,0,0,1,105.15-71c18-26.5,50.19-38.94,79.57-31.26,33.73,8.82,57.3,42.47,54,79.58,32.89,2.16,60.45,24.38,68.2,54,9.17,35-11,74.11-48.31,88.1,20.74-10.31,80.44-36.46,147.77-17,96.63,27.85,163.86,136.53,142.1,184.72-21.57,47.74-144.43,66.9-542.32-24.84-8.32,13.48-24.14,32.14-54.18,45.93-58.1,26.67-145.43,24.1-221-6.25-65.23,49-166.62,62-236.53,36.18-65.53-24.16-78.73-73.26-80.62-81-51.91-13.08-85.24-43.88-83.66-76.11,1.7-34.57,42.81-55.56,49-58.63-2.54-2.65-28-30.39-7.32-61.2,18.19-27,58-35.68,64.08-36.93-2.57-5.5-6.12-15.43-3.58-26.61a42.05,42.05,0,0,1,5.47-12.46C13.46,1520,53.07,1507.67,107.18,1502.67Z"/><path class="cls-90" d="M2240.72,1350.72c3.77-15,13.43-43.94,39.34-68.58,38.1-36.23,95.73-48.22,144.94-31.26,34.37,11.85,55.47,34.67,65.25,47,24.69-23.51,62.2-26.6,89.14-8.13,24.41,16.73,35.66,48.08,27.49,77.67,11.9-18.23,33.59-27.27,54-22.74,23,5.1,39.88,26.41,39.79,51.15a67.07,67.07,0,0,1,105.15-71c18-26.5,50.18-38.94,79.57-31.26,33.73,8.82,57.3,42.46,54,79.57,32.9,2.17,60.45,24.38,68.21,54,9.17,35-11,74.11-48.31,88.09,20.74-10.31,80.44-36.46,147.77-17.05,96.63,27.86,163.86,136.54,142.09,184.72-21.56,47.75-144.42,66.9-542.31-24.84-8.33,13.48-24.14,32.15-54.19,45.94-58.09,26.66-145.42,24.09-221-6.25-65.23,49-166.63,62-236.53,36.17-65.53-24.16-78.73-73.26-80.62-81-51.91-13.07-85.25-43.88-83.66-76.11,1.7-34.56,42.81-55.55,49-58.62-2.53-2.65-28-30.4-7.31-61.21,18.18-27,58-35.68,64.08-36.93-2.57-5.49-6.12-15.42-3.59-26.6a42.48,42.48,0,0,1,5.47-12.47C2147,1368,2186.61,1355.73,2240.72,1350.72Z"/></g><path class="cls-91" d="M1980.36,854.37q91.5,15.38,189.32,27.33A4145.13,4145.13,0,0,0,2642,911.55"/><path class="cls-92" d="M1979.45,869.57l72.32-.09c6.29,5.83,27,23.53,58.93,26.13a98.61,98.61,0,0,0,53.22-10.86,70.58,70.58,0,0,0,84,9.4c1.9,2.3,21.11,24.8,50.35,22.3,17.24-1.47,28.86-10.85,33.12-14.67,3,3.48,15.37,16.94,36.27,19.64,25,3.24,42.59-11.43,45.37-13.83,3.34,3.08,20.07,17.85,44.86,16.67A61.68,61.68,0,0,0,2492,911.68c1.26,1.42,22.42,24.48,51.1,19,15.16-2.91,24.75-12.32,28.44-16.39l62.65,8.9c-42.46,137.09-156.45,236-285.75,249.05C2182.12,1189,2013.38,1061.39,1979.45,869.57Z"/><path class="cls-91" d="M1979.45,869.57l72.32-.09c6.29,5.83,27,23.53,58.93,26.13a98.61,98.61,0,0,0,53.22-10.86,70.58,70.58,0,0,0,84,9.4c1.9,2.3,21.11,24.8,50.35,22.3,17.24-1.47,28.86-10.85,33.12-14.67,3,3.48,15.37,16.94,36.27,19.64,25,3.24,42.59-11.43,45.37-13.83,3.34,3.08,20.07,17.85,44.86,16.67A61.68,61.68,0,0,0,2492,911.68c1.26,1.42,22.42,24.48,51.1,19,15.16-2.91,24.75-12.32,28.44-16.39l62.65,8.9c-42.46,137.09-156.45,236-285.75,249.05C2182.12,1189,2013.38,1061.39,1979.45,869.57Z"/><path class="cls-79" d="M2050.16,864.51l-.27,5.41,3.44,1.28q.51-3.06,1-6.1a4.73,4.73,0,0,0-2.23-.83A4.54,4.54,0,0,0,2050.16,864.51Z"/><path class="cls-79" d="M2162.18,879.74l-.27,5.42,3.43,1.27q.52-3,1-6.09a4.65,4.65,0,0,0-4.2-.6Z"/><path class="cls-79" d="M2246.72,889.22l-.26,5.41,3.43,1.28c.35-2,.69-4.07,1-6.1a4.72,4.72,0,0,0-2.22-.83A4.56,4.56,0,0,0,2246.72,889.22Z"/><path class="cls-79" d="M2330.32,897l-9.57,276.69,3.2,0q5.28-138,10.57-276.06Z"/><path class="cls-79" d="M2411.55,902.5l-.27,5.42,3.44,1.27c.34-2,.69-4.06,1-6.1a4.63,4.63,0,0,0-2.22-.83A4.69,4.69,0,0,0,2411.55,902.5Z"/><path class="cls-79" d="M2490.88,907.31l-.26,5.42,3.43,1.27c.35-2,.69-4.07,1-6.1a4.68,4.68,0,0,0-2.22-.83A4.59,4.59,0,0,0,2490.88,907.31Z"/><path class="cls-79" d="M2571,909.45l-.27,5.42,3.44,1.27c.34-2,.69-4.06,1-6.1a4.63,4.63,0,0,0-2.22-.83A4.69,4.69,0,0,0,2571,909.45Z"/></svg>