<svg xmlns="http://www.w3.org/2000/svg" width="632.3" height="309.58" viewBox="0 0 632.3 309.58">
  <defs>
    <style>
      .cls-1 {
        fill: #7f7f7f;
      }

      .cls-2 {
        fill: #404040;
      }

      .cls-3 {
        fill: #2c2c2c;
      }
    </style>
  </defs>
  <title>BugNetManualParts</title>
  <g id="Hammock">
    <path class="cls-1" d="M792,391.86a4.39,4.39,0,0,1-.44.68h0a1.54,1.54,0,0,1-.17.19,2.75,2.75,0,0,1-.26.22h0c-.22.17-.45.34-.69.49a6.58,6.58,0,0,1-1,.53h0l-.49.19a3.64,3.64,0,0,1-.47.14,2.32,2.32,0,0,0-.73.24,1.48,1.48,0,0,0-.26.24,1.83,1.83,0,0,0-.13.24,6,6,0,0,1-.29.51.54.54,0,0,0-.09.12.31.31,0,0,0,0,.19.28.28,0,0,0,.11.15.25.25,0,0,0,.19,0,.19.19,0,0,0,.15-.11l.06-.08.08-.11a2.75,2.75,0,0,0,.17-.29c.06-.11.11-.24.18-.35L788,395l.14-.08a3.43,3.43,0,0,1,.46-.11,4.79,4.79,0,0,0,.64-.21,7,7,0,0,0,1.62-.81c.2-.12.38-.27.57-.41a2.94,2.94,0,0,0,.46-.41,4.91,4.91,0,0,0,.56-.84.26.26,0,0,0-.09-.34l-.12,0a.24.24,0,0,0-.22.12ZM788,395l0,0,0,0Z" transform="translate(-209.55 -307.37)"/>
    <path class="cls-1" d="M788.45,387.78a.27.27,0,0,0,0,.2.33.33,0,0,0,.15.11l.64.25h0l0,0h0a5.64,5.64,0,0,1,.74.36,3.82,3.82,0,0,1,.58.37l.37.31a2.2,2.2,0,0,1,.27.26l.07.1a.26.26,0,0,0,.14.11.27.27,0,0,0,.2,0,.27.27,0,0,0,.09-.35c-.07-.09-.14-.19-.22-.28l-.22-.2a7,7,0,0,0-.69-.53,4,4,0,0,0-.44-.27l-.57-.27-.88-.35h-.06a.25.25,0,0,0-.24.18Zm.86.59h0l0,0,0,0Z" transform="translate(-209.55 -307.37)"/>
    <path class="cls-1" d="M785.63,390.25a4.51,4.51,0,0,0,0,1,2.88,2.88,0,0,0,.2.71,7.59,7.59,0,0,0,.35.77,4.53,4.53,0,0,0,.41.66,3.71,3.71,0,0,0,.5.55,4.38,4.38,0,0,0,.45.41l.34.31a.25.25,0,0,0,.36,0,.24.24,0,0,0,0-.35c-.16-.16-.34-.3-.51-.45a5.76,5.76,0,0,1-.73-.75,6.17,6.17,0,0,1-.67-1.24l0,0a3.52,3.52,0,0,1-.15-.42,3.48,3.48,0,0,1-.1-.41.06.06,0,0,1,0,0v-.05h0a5.06,5.06,0,0,1,0-.87.25.25,0,0,0-.25-.25.25.25,0,0,0-.25.25Zm.51.87h0Z" transform="translate(-209.55 -307.37)"/>
    <path class="cls-1" d="M785.17,392.12a.26.26,0,0,0-.14.11.28.28,0,0,0,0,.2,8.15,8.15,0,0,0,.2.82,3.71,3.71,0,0,0,.64,1.19c.13.16.26.31.4.46l.33.31.28.23.27.16a.25.25,0,0,0,.34-.09.26.26,0,0,0-.09-.34l-.15-.08-.11-.08a3.9,3.9,0,0,1-.38-.33,4.52,4.52,0,0,1-.51-.56,4.1,4.1,0,0,1-.46-.78,6.4,6.4,0,0,1-.28-1,.24.24,0,0,0-.24-.19Zm1.9,2.86,0,0,0,0Z" transform="translate(-209.55 -307.37)"/>
    <path class="cls-1" d="M828.31,376l-1.1.17a10,10,0,0,0-1.11.29c-.43.14-.86.27-1.28.43l-1.11.46.06,0c-.95.39-1.91.74-2.86,1.14l-1.17.51-1.27.56c-.44.2-.88.39-1.32.61s-.72.37-1.1.54-.87.39-1.31.59-.92.41-1.38.62l-2.06.91c-.63.28-1.25.59-1.89.86l.05,0-1.33.53c-.49.19-1,.39-1.44.59l-1.3.56-1.33.62c-.87.41-1.73.83-2.6,1.23l-1.42.64c-.44.19-.89.39-1.32.62s-1,.5-1.44.74l-1.52.73c-.49.24-1,.49-1.48.72l-.78.36-.73.35.05,0a3.15,3.15,0,0,1-.84.26h0a1.71,1.71,0,0,1-.32,0,1.05,1.05,0,0,1-.24-.06l-.12-.07-.08-.08a.75.75,0,0,1-.07-.12l0-.11V391l0-.12.05-.08a1.09,1.09,0,0,1,.19-.18h0l0,0,0,0a2,2,0,0,1,.43-.24h0l.06,0h0l.06,0a.26.26,0,0,0,.15-.12.22.22,0,0,0,0-.19.27.27,0,0,0-.31-.18,2.18,2.18,0,0,0-1,.63,1,1,0,0,0,.42,1.48,1.45,1.45,0,0,0,.41.1,1.68,1.68,0,0,0,.5,0,4.14,4.14,0,0,0,1.07-.38l.57-.28.67-.31c.83-.37,1.64-.79,2.46-1.18l1.12-.55c.38-.2.76-.4,1.15-.59s.87-.41,1.31-.61,1-.43,1.46-.66.85-.4,1.28-.61l1.21-.57,1.34-.62,1.34-.57-.06,0c.46-.19.93-.39,1.4-.57l1.34-.55c.4-.17.79-.36,1.19-.54l1.27-.57,1.3-.58,1.37-.62,1.32-.58c.36-.16.71-.34,1.07-.52.63-.32,1.28-.6,1.92-.88l1.8-.8-.06,0,1.88-.75,1.58-.65h0q.49-.21,1-.39l1.09-.34c.31-.09.62-.16.94-.22l1-.15a.25.25,0,0,0,.17-.31.27.27,0,0,0-.11-.15l-.12,0Zm-37.09,14.8v0Zm-.09.34s0,0,0,.05v-.05Zm.27-.5Zm.43-.24h0l0,0,0,0Z" transform="translate(-209.55 -307.37)"/>
    <path class="cls-1" d="M829.84,372.91l-.71.28c-.27.1-.54.22-.8.34a5.83,5.83,0,0,0-.69.39c-.24.15-.46.31-.7.45s-.59.32-.88.47-.59.3-.87.46l-.81.45-.9.4.06,0c-.69.28-1.38.55-2,.86l-2,.95-1.19.52L817,379l-1.1.49-1.26.54.06,0c-.91.37-1.84.72-2.76,1.07l-1.34.54-1.28.5c-.94.37-1.88.76-2.81,1.17l-1.43.65c-.42.2-.85.39-1.28.57l-1.81.79-1.89.85-1.79.83c-.64.3-1.29.58-1.94.86l.06,0c-.79.33-1.6.63-2.39,1-.47.19-.95.39-1.41.63-.23.12-.45.26-.67.4l-.3.2-.2.13a.28.28,0,0,0-.11.15.25.25,0,0,0,0,.19.25.25,0,0,0,.34.09l.4-.26a5.5,5.5,0,0,1,.57-.36,14.24,14.24,0,0,1,1.31-.61l-.06,0c.77-.32,1.56-.62,2.34-.94l1.35-.58,1.16-.53,1.19-.55,1.23-.55,1.24-.57,1.21-.52c.64-.28,1.27-.55,1.9-.84s1.43-.65,2.15-1l-.06,0c.91-.38,1.83-.74,2.75-1.1l1.32-.53,1.39-.53c.45-.18.91-.35,1.36-.54l1.27-.54,1.3-.57,1.26-.54,1.1-.48c.33-.14.66-.29,1-.45.63-.29,1.26-.6,1.9-.87l-.06,0c.53-.22,1.08-.43,1.61-.66.31-.13.61-.26.91-.42s.56-.31.84-.46l.95-.5a8.74,8.74,0,0,0,.89-.5l.7-.45a8.22,8.22,0,0,1,.84-.42l-.06,0c.35-.15.72-.28,1.07-.42a.26.26,0,0,0,.15-.12.24.24,0,0,0,0-.19.26.26,0,0,0-.12-.15.28.28,0,0,0-.13,0Z" transform="translate(-209.55 -307.37)"/>
    <path class="cls-1" d="M833.22,373.86a.91.91,0,0,0-.33.15l-.4.22a3.24,3.24,0,0,0-.71.5,1,1,0,0,0-.25.35.57.57,0,0,0,.09.56c.08.12.18.23.27.34l.31.33a1.21,1.21,0,0,0,.35.24,1.08,1.08,0,0,0,.31.07.58.58,0,0,0,.29-.06,2.91,2.91,0,0,0,.35-.2l.44-.32c.13-.11.25-.23.37-.35a.85.85,0,0,0,.29-.51,1.12,1.12,0,0,0-.15-.53,2.25,2.25,0,0,0-.12-.21,1.46,1.46,0,0,0-.36-.34.25.25,0,0,0-.19,0,.29.29,0,0,0-.15.12.25.25,0,0,0,0,.19.28.28,0,0,0,.11.15l0,0,.13.14a2.69,2.69,0,0,1,.16.29.93.93,0,0,1,0,.13v0h0l0,0a4,4,0,0,1-.6.56,3.2,3.2,0,0,1-.53.34h-.09l-.1,0-.12-.07a3.7,3.7,0,0,1-.28-.28l-.28-.32-.07-.11v-.05h0l0-.05a2.37,2.37,0,0,1,.28-.27,3.71,3.71,0,0,1,.54-.33l.3-.16.2-.12h0a.27.27,0,0,0,.13-.22.25.25,0,0,0-.24-.25Zm.84,1.14,0,0s0,0,0,0Zm.05.11v0Zm0,.07v0Zm-2.08,0v0s0,0,0,0Z" transform="translate(-209.55 -307.37)"/>
    <path class="cls-1" d="M833,370.89a3.1,3.1,0,0,0-.73.17.27.27,0,0,0-.18.18,1.14,1.14,0,0,0-.26,0,1,1,0,0,0-.29.09,3.07,3.07,0,0,0-.31.17,3.45,3.45,0,0,0-1,1.15,2.61,2.61,0,0,0-.38,1.47,4.1,4.1,0,0,0,.27,1.2,5.74,5.74,0,0,0,.55,1.11,4.45,4.45,0,0,0,.86,1,2.77,2.77,0,0,0,.48.34,1.59,1.59,0,0,0,.29.15,2.13,2.13,0,0,0,.43.13,2.23,2.23,0,0,0,.73.05,3.41,3.41,0,0,0,.75-.18,4,4,0,0,0,1.16-.65,5.45,5.45,0,0,0,.5-.46,3.08,3.08,0,0,0,.46-.63,2.64,2.64,0,0,0,.25-.66,3.74,3.74,0,0,0,0-.75,5.7,5.7,0,0,0-.28-1.47,3.84,3.84,0,0,0-.55-1.11,3.29,3.29,0,0,0-.87-.79,3.23,3.23,0,0,0-1.27-.49l-.32,0H833Zm.43.49a3.16,3.16,0,0,1,.76.21h0l.3.15a3.15,3.15,0,0,1,.33.22l.12.1a2.79,2.79,0,0,1,.38.39l.16.24c.06.11.12.22.17.33l0-.06c.1.24.19.49.27.74a6.6,6.6,0,0,1,.17.77.06.06,0,0,1,0,0,3.38,3.38,0,0,1,0,.84.13.13,0,0,0,0-.06,1.59,1.59,0,0,1-.06.3c0,.1-.06.19-.09.29a3.6,3.6,0,0,1-.29.5l-.27.3c-.1.1-.21.19-.32.28a4.75,4.75,0,0,1-1,.56l.06,0a3.77,3.77,0,0,1-.75.2,2.37,2.37,0,0,1-.46,0H833a1.45,1.45,0,0,1-.3-.06l-.25-.08-.32-.17-.21-.15h0c-.12-.1-.24-.2-.36-.32s-.25-.28-.37-.43l0,0a5.8,5.8,0,0,1-.34-.52c-.09-.17-.17-.35-.25-.53,0,0,0,0,0,.05-.07-.18-.14-.36-.2-.54s-.09-.38-.13-.58v0c0-.09,0-.18,0-.28a1.94,1.94,0,0,1,0-.24,2.93,2.93,0,0,1,0-.29c0-.09.06-.19.1-.29h0a3.49,3.49,0,0,1,.4-.67h0v0l0,0,0,0a2.37,2.37,0,0,1,.89-.73l.18-.05h.11a.23.23,0,0,0,.32,0,.23.23,0,0,0,.07-.2,4.37,4.37,0,0,1,.49-.12,3.37,3.37,0,0,1,.55,0Zm-1.38.35h0Zm0,0h0Zm0,0Zm3.3.71,0,0,0,0Zm.62,3.3v0Zm-2.51,1.86h0Zm0,0h0Zm-2.73-2.17h0Zm-.34-1.13Zm.56-1.78h0Z" transform="translate(-209.55 -307.37)"/>
    <path class="cls-1" d="M830.59,375.7l-.54,0-.61,0a4.63,4.63,0,0,0-.65.1l-.28.08-.12,0a.44.44,0,0,0-.18.09.25.25,0,0,0,0,.35.26.26,0,0,0,.3.05,3.7,3.7,0,0,1,.86-.2l.6-.05.62,0a.3.3,0,0,0,.18-.08.25.25,0,0,0-.17-.42Zm-2.06.78h0Z" transform="translate(-209.55 -307.37)"/>
    <path class="cls-1" d="M840.69,368.57a5.34,5.34,0,0,0-.8.13,11.39,11.39,0,0,0-2,.66,8.53,8.53,0,0,0-.91.45l-.93.51c-.28.17-.55.35-.82.54l-.37.28-.11.1a.35.35,0,0,0-.1.11.25.25,0,0,0,.09.34.24.24,0,0,0,.31-.05l.26-.23h0l0,0h0c.2-.15.39-.29.6-.42s.49-.29.74-.43a16.73,16.73,0,0,1,1.52-.78l-.06,0a10.12,10.12,0,0,1,1.31-.45,10,10,0,0,1,1.11-.25h0a2.09,2.09,0,0,1,.5,0l.1,0,0,0s0,0,0,0l.1.17a1.17,1.17,0,0,1,.05.2,1,1,0,0,1-.11.58,2.46,2.46,0,0,1-.28.46,5.22,5.22,0,0,1-.79.77l-.57.41-.47.35-1,.7-.55.39-.53.34c-.25.15-.5.28-.75.42a.25.25,0,0,0-.09.34.26.26,0,0,0,.34.09c.26-.13.5-.27.75-.41s.76-.51,1.14-.78l1-.68.5-.37.62-.45a4.72,4.72,0,0,0,.86-.87,2.29,2.29,0,0,0,.41-.79,1.55,1.55,0,0,0,0-.71,1,1,0,0,0-.12-.29l-.06-.12-.08-.1a.93.93,0,0,0-.15-.13.7.7,0,0,0-.2-.08l-.19,0h-.33Zm-5.66,3Zm.24-.19h0a.05.05,0,0,0,0,0l0,0Zm5.26-2.32h0Z" transform="translate(-209.55 -307.37)"/>
    <path class="cls-1" d="M839.14,369.73l-.5.2-.71.35-.91.49c-.32.18-.62.39-.92.6l-.37.26c-.08.06-.17.11-.25.18a.26.26,0,0,0,0,.35.23.23,0,0,0,.2.07.25.25,0,0,0,.2.45l.23-.06a3.49,3.49,0,0,0,.34-.15l.53-.32c.18-.1.35-.21.52-.32.35-.23.7-.47,1-.72l.77-.61.39-.28a.33.33,0,0,0,.12-.25.35.35,0,0,0-.23-.29l-.13,0a1.14,1.14,0,0,0-.32.07Zm.23.12h0Zm0,0Zm0,0Zm0,0h0Zm0,.16Zm.13.13h0Zm-1,.38h0l0,0,0,0Zm-2,1.19c.32-.22.65-.43,1-.62a10.28,10.28,0,0,1,.93-.49h0c-.37.29-.76.55-1.15.81l-.7.43a3.67,3.67,0,0,1-.52.27l-.18.06h0l.62-.44Zm-.61.43Z" transform="translate(-209.55 -307.37)"/>
    <path class="cls-1" d="M829.75,374.08a1,1,0,0,0-.33.21l-.31.28a3.78,3.78,0,0,0-.39.41.91.91,0,0,0-.19.29.74.74,0,0,0,0,.14.92.92,0,0,0,0,.16.29.29,0,0,0,.12.16.25.25,0,0,0,.19,0,.25.25,0,0,0,.15-.11.22.22,0,0,0,0-.13s0,0,0-.06l.09-.14a6.09,6.09,0,0,1,.44-.44l.32-.28,0,0a.26.26,0,0,0,.17-.31.26.26,0,0,0-.24-.18Zm-.67,1.24h0Zm-.11.12Z" transform="translate(-209.55 -307.37)"/>
    <path class="cls-1" d="M213.63,312a4.64,4.64,0,0,0-.74.73,1.83,1.83,0,0,0-.13.16.78.78,0,0,0-.11.2.55.55,0,0,0,0,.31.73.73,0,0,0,.07.19l0-.06a3.09,3.09,0,0,0,.14.32,2.71,2.71,0,0,0,.24.35,5.3,5.3,0,0,0,.8.84,4.76,4.76,0,0,0,1.2.73,2.83,2.83,0,0,0,.81.2,1.53,1.53,0,0,0,.3,0,.77.77,0,0,0,.36-.23,3.68,3.68,0,0,0,.45-.59l.15-.21a.7.7,0,0,0,.14-.37.9.9,0,0,0-.2-.47,5.6,5.6,0,0,0-.36-.49,4.78,4.78,0,0,0-1.36-1.21,2.6,2.6,0,0,0-.66-.29,1.67,1.67,0,0,0-.31-.05,1.38,1.38,0,0,0-.29,0,.34.34,0,0,0-.14,0,.31.31,0,0,0-.15-.1h-.06a.2.2,0,0,0-.13,0Zm.26.43,0,0a.22.22,0,0,0,.2.11,1.71,1.71,0,0,1,.32,0l.33.09a4.22,4.22,0,0,1,.79.47,5.56,5.56,0,0,1,.86.89v0a3.14,3.14,0,0,1,.38.57v0h0a2.51,2.51,0,0,1-.2.29l-.28.39h0v0h0l-.16.18,0,0h-.29a3.06,3.06,0,0,1-.54-.15l-.45-.22a5.36,5.36,0,0,1-.49-.34h0a4.41,4.41,0,0,1-.51-.46q-.19-.21-.36-.42a2.58,2.58,0,0,1-.29-.51h0v0l0,0a.49.49,0,0,1,0-.11v0l.06-.09a4.7,4.7,0,0,1,.7-.71Zm.88.19,0,0,0,0Zm2,1.86v0Zm0,0v0Zm0,0v0Zm-1,1h0Zm.31,0h0Zm.23-.21h0Z" transform="translate(-209.55 -307.37)"/>
    <path class="cls-1" d="M213.45,313.14a.27.27,0,0,0,.18.31l.12,0,.22.06a3.71,3.71,0,0,1,.47.16,3.41,3.41,0,0,1,.57.36,1.5,1.5,0,0,1,.29.27,3.78,3.78,0,0,1,.22.4.25.25,0,0,0,.43-.25c0-.09-.09-.19-.13-.28a1.57,1.57,0,0,0-.19-.26,2.29,2.29,0,0,0-.23-.21l-.33-.24a2.92,2.92,0,0,0-.68-.35L214,313l-.16,0-.1,0h-.06a.27.27,0,0,0-.25.19Z" transform="translate(-209.55 -307.37)"/>
    <path class="cls-1" d="M210.43,308.25a1.3,1.3,0,0,0-.79.7,1.34,1.34,0,0,0-.09.45,1.62,1.62,0,0,0,0,.2.48.48,0,0,0,0,.17,2.39,2.39,0,0,0,.13.28,4.4,4.4,0,0,0,.3.45,3.63,3.63,0,0,0,.49.47c.2.16.41.3.62.45s.4.28.6.43l0,0,.78.62h0l.27.22a.24.24,0,0,0,.18.07.21.21,0,0,0,.17-.07.23.23,0,0,0,.08-.18.21.21,0,0,0-.08-.17l-.19-.16a1.84,1.84,0,0,0-.22-.17l-.77-.61-.53-.38-.5-.35a5.11,5.11,0,0,1-.48-.45,3,3,0,0,1-.33-.54,1.94,1.94,0,0,1-.05-.2.75.75,0,0,1,0-.15,1.21,1.21,0,0,1,.05-.18l.07-.11.11-.11.27-.16h0a.29.29,0,0,0,.15-.12.3.3,0,0,0,0-.19.35.35,0,0,0-.12-.15.31.31,0,0,0-.13,0Zm1.35,3.61h0Zm-1.22-3.13.06,0-.06,0Z" transform="translate(-209.55 -307.37)"/>
    <path class="cls-1" d="M210.7,308.12a.21.21,0,0,0-.15.11.32.32,0,0,0,0,.19.23.23,0,0,0,.12.15l.3.13-.06,0,.15.06h0a3.91,3.91,0,0,1,.65.4l1,.73c.38.27.76.54,1.15.8s.66.46,1,.7h0l0,0v0h0l1,.75c.42.32.83.64,1.25.94l1.32.93c.41.28.82.55,1.22.84s.74.53,1.11.8l.93.66.95.67.95.63c.62.41,1.24.84,1.83,1.29l0,0,1.13.86c.29.22.56.45.84.67s.57.42.86.64l1,.77.49.4.54.41c.32.25.65.49,1,.73l1.09.8.76.62.47.37a1.61,1.61,0,0,0,.34.24.26.26,0,0,0,.34-.09.26.26,0,0,0-.09-.35,1.32,1.32,0,0,1-.25-.16h0l0,0,0,0h0c-.3-.23-.59-.47-.88-.71s-.67-.52-1-.77-.63-.45-.93-.68-.57-.43-.85-.65h0c-.41-.32-.81-.65-1.21-1l-.61-.47-.58-.43h0l0,0,0,0h0l-.81-.65c-.27-.22-.56-.43-.84-.64h0l0,0h0c-.3-.23-.59-.46-.9-.68l-.95-.66-1-.65c-.31-.21-.63-.43-.93-.65l-.93-.65-1-.73-1.23-.86-.61-.42-.7-.49c-.36-.25-.72-.51-1.07-.78l-1-.73c-.34-.26-.67-.53-1-.78l-.7-.48-.71-.49-.65-.47-.61-.44a5,5,0,0,0-.47-.33,2.64,2.64,0,0,0-.38-.18h0l-.12-.05.06,0-.22-.09a.28.28,0,0,0-.13,0Zm4.92,3.26,0,0,0,0Zm18.12,13.39h0l0,0v0Zm-6.09-4.72h0l0,0Zm-1.71-1.32,0,0,0,0Zm-11.12-7.35h0l0,0Zm-3.68-3.13,0,0,0,0Z" transform="translate(-209.55 -307.37)"/>
    <path class="cls-1" d="M217.27,314.31a.26.26,0,0,0-.15.12.24.24,0,0,0,0,.19.28.28,0,0,0,.11.15l.81.66c.38.3.79.57,1.2.84.72.47,1.45.94,2.17,1.43.21.15.44.3.65.46l.62.47c.39.3.79.58,1.18.87l1,.75,1.21.91c.55.43,1.07.87,1.62,1.27s1,.75,1.56,1.14.82.66,1.24,1,1,.72,1.45,1.09l.48.41.3.26a1,1,0,0,0,.22.14.21.21,0,0,0,.19,0,.26.26,0,0,0,.15-.12.26.26,0,0,0-.09-.34A.36.36,0,0,1,233,326h0c-.16-.12-.31-.26-.46-.39s-.28-.24-.43-.35c-.36-.28-.73-.54-1.09-.81h0l0,0,0,0h0c-.59-.46-1.16-.95-1.76-1.4s-1.17-.83-1.74-1.27l-1-.81-1.25-1c-.36-.26-.7-.53-1-.79l-1.14-.85-.62-.46c-.23-.17-.46-.34-.7-.5l-1-.71-1.2-.77q-.6-.39-1.17-.81c-.3-.24-.59-.49-.89-.72a.15.15,0,0,0-.11,0Zm13.78,10.09h0l0,0Z" transform="translate(-209.55 -307.37)"/>
    <path class="cls-1" d="M211.25,309.87a.26.26,0,0,0,0,.36c.37.31.73.63,1.1.93.17.15.35.29.53.43a2.43,2.43,0,0,0,.52.3.25.25,0,0,0,.31-.17.3.3,0,0,0,0-.19.21.21,0,0,0-.12-.11,3.42,3.42,0,0,1-.51-.33c-.24-.19-.47-.37-.7-.57l-.74-.65a.29.29,0,0,0-.18-.07.31.31,0,0,0-.18.07Z" transform="translate(-209.55 -307.37)"/>
    <path class="cls-2" d="M473.28,565.64c.49.51,1,1,1.5,1.52s1.15,1.1,1.71,1.67c1.1,1.13,2.19,2.29,3.18,3.53.52.72,1.05,1.42,1.51,2.19.22.38.43.76.64,1.14s.45.81.64,1.22a7.8,7.8,0,0,1,.48,1.58l0,.2a.13.13,0,0,1,0-.06v.06a6.17,6.17,0,0,1,0,.86h0a5.31,5.31,0,0,1-.24.89s0,0,0,0l.06-.1h0a3.22,3.22,0,0,0,.42-.62,3.38,3.38,0,0,0,.26-.69,4.54,4.54,0,0,0,.14-1.47,5.23,5.23,0,0,0-.37-1.56,14,14,0,0,0-.69-1.53,13.19,13.19,0,0,0-1.91-2.76,26.73,26.73,0,0,0-2.4-2.24c-.73-.62-1.47-1.22-2.23-1.79s-1.49-1.07-2.22-1.62h0a6,6,0,0,1-.54-.46h0s0,0,0,0Zm9.7,13.92v0a0,0,0,0,1,0,0Zm0-.87Z" transform="translate(-209.55 -307.37)"/>
    <path class="cls-2" d="M726.76,341.66c-1,.1-2,.13-2.93.19-.5,0-1,.08-1.5.14-.25,0-.49.06-.73.11a1.59,1.59,0,0,0-.3.06,1.22,1.22,0,0,0-.57.28.7.7,0,0,0-.2.54,2.52,2.52,0,0,0,.1.46c.08.27.19.53.28.8.19.52.37,1.05.56,1.58l.54,1.6a10.12,10.12,0,0,1,.41,1.62h0c0,.11,0,.22,0,.33s0,0,0,0c0-.44,0-.89-.09-1.33s-.17-1-.26-1.57c-.18-1-.37-2-.51-3a1.94,1.94,0,0,1,0-.24l.33-.07c.91-.1,1.82-.11,2.73-.12h1.41c.42,0,.86-.08,1.28,0,0,.31,0,.61,0,.92s0,.81.06,1.22a14,14,0,0,0,.39,2.49,8.35,8.35,0,0,0,1,2.32c.43.67.94,1.28,1.43,1.91h0l.15.2h0a10.4,10.4,0,0,0,.91,1.08s0,0,0,0a10.3,10.3,0,0,1-.52-1l-.52-1a21.46,21.46,0,0,1-1-1.91c-.12-.31-.22-.61-.31-.92s-.15-.65-.21-1c0-.14,0-.29-.05-.43a15.72,15.72,0,0,1,0-3c0-.24.05-.47.08-.71a1.42,1.42,0,0,0-.14-1,1.4,1.4,0,0,0-.91-.56,1.61,1.61,0,0,0-.37,0,5.54,5.54,0,0,0-.56.05Zm.7,1.33h0v0Zm-5.85,0v0Zm8.7,9h0Zm-.14-.19,0,0,0,0Z" transform="translate(-209.55 -307.37)"/>
  </g>
  <g id="Draw_Layer" data-name="Draw Layer">
    <path class="cls-2" d="M465.45,350.3a.85.85,0,0,0-.06.19h0a1.09,1.09,0,0,1,.05-.17h0s0,0,0,0Z" transform="translate(-209.55 -307.37)"/>
    <path class="cls-2" d="M465.54,355.81a.64.64,0,0,0,0-.07v-.09h0l0,.17Z" transform="translate(-209.55 -307.37)"/>
    <path class="cls-2" d="M779.74,399.57c-1.16.66-2.36,1.26-3.56,1.85l-3.66,1.84c-.55.28-1.09.56-1.62.85l.09.08a1.6,1.6,0,0,1,.25.27c.09.11.19.22.27.34a1,1,0,0,1,.19.32,1.22,1.22,0,0,1,0,.38l3.19-2.29c1.64-1.16,3.28-2.34,4.84-3.62,0,0,0,0,0,0Z" transform="translate(-209.55 -307.37)"/>
    <path class="cls-2" d="M267.23,312.67a12.56,12.56,0,0,0-2.69.78,15.31,15.31,0,0,0-4.74,2.9l-1.28,1.16c-.41.37-.83.73-1.25,1.09s-.73.69-1.12,1a12,12,0,0,1-2.08,1.14c-1.62.67-3.28,1.19-4.94,1.72-1.13.35-2.24.71-3.37,1a20.77,20.77,0,0,1-2.93.57h0l-.91.09s0,0,0,0h0c.6,0,1.21-.09,1.81-.16s1.26-.15,1.89-.25c1.43-.21,2.84-.52,4.26-.8a32.8,32.8,0,0,0,5.76-1.6c.34-.14.67-.3,1-.47a8.15,8.15,0,0,0,1-.69l2-1.47c.72-.52,1.42-1.08,2.16-1.58a16.4,16.4,0,0,1,2.38-1.26,15.76,15.76,0,0,1,3.53-1.06,7,7,0,0,1,1,0,13.66,13.66,0,0,1,2.67.79c.32.14.63.28.94.44a8.94,8.94,0,0,1,1.14.7c1.54,1.26,2.74,2.87,4.23,4.19a18.85,18.85,0,0,0,2.61,1.92,19.52,19.52,0,0,0,3.26,1.56,32.58,32.58,0,0,0,3.49,1.05c1.41.36,2.83.67,4.26,1s2.67.53,4,.88,2.5.73,3.73,1.16,2.52.87,3.79,1.26c1,.31,2,.59,2.94.86,2.06.56,4.12,1.07,6.2,1.52s4.44.87,6.66,1.26c2.52.43,5,.76,7.59,1a60.43,60.43,0,0,0,10.42,0c2.06-.15,4.11-.38,6.15-.67,1.73-.25,3.45-.59,5.17-.84a36,36,0,0,1,4.75-.29c.76,0,1.52,0,2.28.07s1.35.07,2,.15c.46.07.91.15,1.36.25.61.15,1.21.33,1.81.5a39.82,39.82,0,0,1,3.85,1.34l2.59,1.11,0,0,.13.06.21.09-.09,0c1.17.5,2.32,1,3.48,1.53,1.48.64,3,1.24,4.5,1.76.83.28,1.67.51,2.51.77s1.72.55,2.58.84,1.74.59,2.6.91c.57.21,1.14.45,1.7.68,2.2.94,4.4,1.88,6.63,2.75,1.15.46,2.31.89,3.47,1.34s2.55,1,3.83,1.47,2.56,1,3.84,1.43c1.46.53,2.91,1.07,4.38,1.58,1.23.43,2.46.84,3.69,1.22s2.67.72,4,1a76,76,0,0,0,8.24,1.19c2.45.25,4.9.48,7.36.55,1,0,2.08,0,3.12,0s2.27-.15,3.4-.28c2.31-.28,4.63-.64,6.92-1.09a42.71,42.71,0,0,0,7.24-2.16c1.1-.43,2.17-.93,3.25-1.41l3.57-1.57c.74-.31,1.49-.59,2.26-.83a12.15,12.15,0,0,1,1.69-.38l.78,0a4.21,4.21,0,0,1,.5,0,8.41,8.41,0,0,1,1.63.46c.65.29,1.26.64,1.89,1a28,28,0,0,1,2.44,1.5c1.39.92,2.69,2,4,3a56.2,56.2,0,0,0,5,3.23A22.51,22.51,0,0,0,480,358a35.77,35.77,0,0,0,3.45,1.15c1.15.35,2.28.75,3.4,1.18s2.33.85,3.49,1.29c2.24.84,4.45,1.77,6.69,2.61,1.09.41,2.19.76,3.3,1.1s2.46.72,3.7,1,2.46.57,3.69.85,2.71.59,4.07.85c2.54.48,5.11.82,7.68,1.05a58.66,58.66,0,0,0,7.14.18c1.21-.05,2.42-.15,3.63-.25s2.64-.26,3.95-.44,2.41-.47,3.6-.76,2.62-.73,3.92-1.14c2.15-.68,4.28-1.41,6.42-2.12,2.31-.77,4.64-1.48,7-2.22,2.64-.84,5.25-1.78,7.79-2.87,1.1-.47,2.18-1,3.26-1.53s2.1-1,3.16-1.49l.57-.25c.6-.24,1.21-.46,1.83-.64a13.71,13.71,0,0,1,1.55-.31,17.54,17.54,0,0,1,3.24-.13,3.45,3.45,0,0,1,.46.12l.15.09a5.2,5.2,0,0,1,.61.63,5.83,5.83,0,0,0,1,.89,7.85,7.85,0,0,0,2.37,1c1.11.31,2.26.51,3.4.72s2.19.37,3.29.53c2.37.36,4.75.68,7.13,1,2.61.36,5.21.73,7.82,1.05,2.43.29,4.87.49,7.3.7l3.48.29c1.4.1,2.8.17,4.2.25,5.59.3,11.18.58,16.78.74,2.46.06,4.92.11,7.39.11s4.87,0,7.31-.09,5-.21,7.5-.31c2.73-.11,5.47-.15,8.21-.26,1.36-.05,2.71-.16,4.06-.28s2.87-.29,4.3-.5c2.65-.4,5.28-.89,7.9-1.45,1.3-.29,2.6-.57,3.9-.89s2.82-.72,4.23-1.06c2.75-.68,5.52-1.28,8.27-1.93,3.42-.79,6.82-1.64,10.24-2.42l4.77-1.06,2.67-.57c.87-.17,1.75-.3,2.62-.43a27.88,27.88,0,0,1,5.77-.28q.4.06.81.15a5.32,5.32,0,0,1,.77.25c.36.17.7.35,1,.55s.74.48,1.1.72a26.59,26.59,0,0,0,2.68,1.67c1,.54,2.09,1,3.13,1.53,1.27.61,2.53,1.25,3.78,1.91,2.48,1.31,4.91,2.73,7.37,4.07,1.11.6,2.25,1.15,3.38,1.7.93.45,1.85.93,2.78,1.39,4,2,8.19,3.77,12.18,5.89l2.42,1.28c.8.41,1.63.76,2.46,1.1,1.61.66,3.25,1.27,4.9,1.81l2.4.75s0,0,0,0c-1.6-.78-3.19-1.59-4.75-2.46l-2.09-1.2c-.8-.45-1.59-.91-2.35-1.42s-1.52-1-2.28-1.56-1.82-1.17-2.76-1.7q-3.14-1.77-6.31-3.47c-1.79-.95-3.56-1.95-5.38-2.85-1.18-.59-2.34-1.18-3.49-1.8s-2.55-1.4-3.82-2.1-2.39-1.28-3.62-1.87-2.54-1.2-3.82-1.78c-1-.48-2.07-1-3.07-1.55-.43-.24-.86-.5-1.29-.76s-.9-.61-1.34-.92l-.92-.59a9.08,9.08,0,0,0-1.2-.62,7.69,7.69,0,0,0-1.47-.49,15.2,15.2,0,0,0-1.65-.22,12.68,12.68,0,0,0-1.51,0c-.57,0-1.14.08-1.71.13-1.13.11-2.25.29-3.37.46-2.35.38-4.66.93-7,1.45s-4.82,1.1-7.22,1.69-4.85,1.19-7.29,1.72-4.91,1.07-7.34,1.68l-3.61.9c-1.29.32-2.6.59-3.9.86-2.51.53-5,.95-7.58,1.32s-5.35.61-8,.72-5.63.16-8.43.25c-2.49.09-5,.22-7.46.29s-4.74.08-7.11.08q-8,0-15.92-.35c-5.39-.25-10.76-.64-16.13-1.09-2.79-.24-5.58-.46-8.36-.77-1.42-.15-2.84-.35-4.26-.53l-3.88-.49h.07l-.13,0h0l-.12,0q-3.1-.4-6.19-.89c-1-.16-2.06-.34-3.08-.54a16.73,16.73,0,0,1-2.79-.78,7.59,7.59,0,0,1-1-.57,6.57,6.57,0,0,1-.59-.59,5.77,5.77,0,0,0-.67-.64,2.49,2.49,0,0,0-.47-.33,3.32,3.32,0,0,0-.75-.32,4.16,4.16,0,0,0-.86-.13,3.7,3.7,0,0,0-.47,0c-.65,0-1.3.05-1.95.1a17.9,17.9,0,0,0-2.52.32,20.61,20.61,0,0,0-5.09,2.12c-1.79.92-3.58,1.82-5.43,2.64-2.5,1-5.06,1.94-7.64,2.76-2.29.72-4.58,1.41-6.86,2.13s-4.29,1.4-6.46,2c-1.24.36-2.5.64-3.76.9s-2.34.46-3.53.63a65.42,65.42,0,0,1-8.28.55,71.13,71.13,0,0,1-8.63-.64l.33,0c-1.52-.22-3-.46-4.54-.74s-3.22-.67-4.82-1-3.29-.78-4.91-1.26-2.92-.93-4.36-1.45-2.81-1.08-4.22-1.64-3-1.15-4.48-1.72-2.82-1.07-4.26-1.54-2.72-.8-4-1.32a34,34,0,0,1-3.46-1.89,33.06,33.06,0,0,1-3.31-2.17c-.89-.67-1.76-1.35-2.67-2s-2-1.32-3-1.92c-.51-.3-1-.58-1.56-.87s-1-.56-1.5-.78c-.26-.1-.51-.21-.77-.3a5.75,5.75,0,0,0-.71-.2,8.11,8.11,0,0,0-1.78-.23,5.66,5.66,0,0,0-.82.06c-.33,0-.65.09-1,.15a19.52,19.52,0,0,0-2.37.7c-.92.33-1.81.73-2.7,1.13-.66.3-1.33.59-2,.88l.26-.11c-1.11.47-2.22.94-3.35,1.37s-2.26.8-3.41,1.12-2.55.66-3.84.94-2.65.47-4,.66-2.94.32-4.41.43-2.83.15-4.25.1c-1.63,0-3.27-.16-4.9-.3-1.87-.15-3.75-.35-5.61-.59-1.28-.19-2.55-.41-3.81-.64s-2.56-.56-3.82-.89-2.45-.75-3.66-1.15c-1.38-.47-2.76-1-4.13-1.46s-2.59-.95-3.88-1.45-2.74-1.06-4.1-1.59c-2.37-.93-4.75-1.82-7.09-2.79l.32.13c-1.28-.53-2.55-1.09-3.82-1.64s-2.83-1.14-4.27-1.66c-1.59-.57-3.2-1.07-4.8-1.59-1.39-.44-2.74-1-4.07-1.52l.12.05-.13-.06-.21-.08.2.08c-1.38-.6-2.75-1.22-4.13-1.81s-2.64-1.18-4-1.73c-1.15-.48-2.33-.88-3.52-1.25a19.27,19.27,0,0,0-3-.72,34.26,34.26,0,0,0-3.65-.26c-.62,0-1.25,0-1.88,0s-1.44,0-2.16.08c-1.4.09-2.79.27-4.18.49-1.54.25-3.08.54-4.63.75s-3.2.39-4.8.53-3,.2-4.47.23a63.7,63.7,0,0,1-9.36-.6h0c-1.59-.21-3.18-.46-4.76-.74s-3.18-.61-4.77-.92c-2.93-.58-5.82-1.33-8.69-2.13-1.77-.49-3.5-1.08-5.24-1.65-.85-.28-1.71-.54-2.57-.77s-1.92-.46-2.88-.65a59.87,59.87,0,0,1-10.91-2.73c-.55-.25-1.09-.51-1.61-.81a16.22,16.22,0,0,1-1.51-1,20.07,20.07,0,0,1-1.61-1.45c-.58-.59-1.14-1.2-1.71-1.8a13.78,13.78,0,0,0-1.73-1.6,8.85,8.85,0,0,0-.87-.59c-.27-.16-.56-.3-.84-.45a14.79,14.79,0,0,0-2.85-1.05,12.25,12.25,0,0,0-1.47-.27l-.37,0a7.32,7.32,0,0,0-1,.1Zm.72,2.13h0Zm-3.52,1-.21.09.21-.09Zm120,26.91.11,0-.11,0Zm333.42,9.38-.21,0,.21,0Zm-156.46,5.7-.21.08.21-.08Zm31.77-.27h0ZM366.86,336.13l-.12-.05-.09,0,.21.09Zm5.56-.63h0Z" transform="translate(-209.55 -307.37)"/>
    <path class="cls-2" d="M243,336.09c.33.29.65.59,1,.9l0-.22s0,0,0,.06l0-.28-.2-.15c-.25-.17-.49-.35-.75-.52l0,.21Z" transform="translate(-209.55 -307.37)"/>
    <path class="cls-2" d="M462.18,338.63a2.11,2.11,0,0,0-1,1.62,5.81,5.81,0,0,0-.08,1.18,9.42,9.42,0,0,0,.14,1.29,15.79,15.79,0,0,0,.56,2.15c.23.68.54,1.33.75,2,0,0,0,0,0,0a19,19,0,0,1-.39-2.13s0,0,0,.06a14.08,14.08,0,0,1-.11-3.55v0a5.89,5.89,0,0,1,.27-1,2.21,2.21,0,0,1,.18-.34l.15-.15.07,0,.06,0h.09a2.64,2.64,0,0,1,.4.12,10.39,10.39,0,0,0,1.1.42,6.47,6.47,0,0,0,1.17.17h.89q-.07.68-.12,1.35a11,11,0,0,0,.13,2.69,12,12,0,0,0,.82,2.5c.18.37.36.74.56,1.1a5.76,5.76,0,0,1,.38.69h0a.4.4,0,0,0,.09.17s0,0,0,0,0,0,0,0h0a0,0,0,0,1,0,0h0a5.23,5.23,0,0,0-.12-.54c-.11-.32-.21-.65-.31-1a19.26,19.26,0,0,1-.53-2.34h0a11.73,11.73,0,0,1-.1-1.32,11.91,11.91,0,0,1,.11-1.34c.06-.43.13-.85.22-1.28a6,6,0,0,1,.27-1.11s0-.07,0-.11a.64.64,0,0,0-.07-.52.68.68,0,0,0-.58-.33.42.42,0,0,0-.29.07l-.07,0a9.62,9.62,0,0,1-1.78,0,5.39,5.39,0,0,1-1-.27,3.3,3.3,0,0,0-1.24-.35,1.36,1.36,0,0,0-.61.14Zm2.74.47h0Zm-2.12.59h0Zm.11,0h0Zm-.15,0h0Zm.05,0Zm-.76,1.45s0,0,0,.08v-.08Z" transform="translate(-209.55 -307.37)"/>
    <path class="cls-2" d="M572.94,346.13a.79.79,0,0,0-.5.54,1.46,1.46,0,0,0,0,.59c0,.2,0,.4.05.59l.12,1.13c.09.81.14,1.63.18,2.45,0,.39,0,.77,0,1.16a7.7,7.7,0,0,0,.1,1.17h0c0,.1,0,.2,0,.3a1.8,1.8,0,0,0,.06.32s0,0,0,0a.13.13,0,0,1,0-.06h0a3.55,3.55,0,0,1,0-.86h0c.08-.52.21-1,.31-1.54a15.11,15.11,0,0,0,.22-1.76c.05-.58.07-1.15.09-1.73,0-.31,0-.63,0-.95.31.07.62.15.93.2a16.69,16.69,0,0,0,1.73.22l1.43.17.65.05c-.08.47-.17.95-.21,1.43a9.93,9.93,0,0,0,0,2,5.89,5.89,0,0,0,.22,1,9.35,9.35,0,0,0,.38.92,7.3,7.3,0,0,0,.47.87,4.4,4.4,0,0,1,.39.66h0a3.17,3.17,0,0,0,.14.4s0,0,0,0a.24.24,0,0,1,0-.08h0a3.71,3.71,0,0,0,0-.47,7.19,7.19,0,0,0-.27-.78,9.8,9.8,0,0,1-.51-1.93,8.27,8.27,0,0,1,0-1.72,11.87,11.87,0,0,1,.55-2.34c.05-.14.11-.29.15-.43a.69.69,0,0,0-.69-.84h-.44a5.2,5.2,0,0,1-.68-.06l.17,0c-.49-.07-1-.14-1.48-.19s-1-.08-1.5-.14-.73-.12-1.08-.21l-.55-.13a1.26,1.26,0,0,0-.28,0,.67.67,0,0,0-.24,0Zm6.69,8.89h0ZM573,353.43h0v0Z" transform="translate(-209.55 -307.37)"/>
    <path class="cls-2" d="M265.33,308.22a3.73,3.73,0,0,0,.16.35,1.89,1.89,0,0,1,.09.34,8.36,8.36,0,0,1-.08,1.8v.06a17.72,17.72,0,0,1-.48,2.16c-.11.38-.22.75-.34,1.12-.07.2-.13.4-.19.61a3,3,0,0,0-.11.43s0,0,0,0a1.84,1.84,0,0,1,.09-.25h0c.26-.57.63-1.1.92-1.66a10.7,10.7,0,0,0,.77-1.81,12.86,12.86,0,0,0,.43-1.73,4.46,4.46,0,0,0,.09-.88c.34.07.69.15,1,.2.7.12,1.39.19,2.09.26-.08.41-.19.81-.25,1.23a5.23,5.23,0,0,0,0,1.58,2.43,2.43,0,0,0,1,1.84l0,0a4.08,4.08,0,0,1-.36-.61,2.7,2.7,0,0,1-.14-.56h0a5.62,5.62,0,0,1,0-1.16,6.53,6.53,0,0,1,.25-1.06c.1-.31.24-.61.37-.91a2.1,2.1,0,0,0,.15-.61.71.71,0,0,0-.5-.66,2.51,2.51,0,0,0-.62-.1l-.4-.05c-.79-.12-1.54-.31-2.32-.49l-.47-.11a2.75,2.75,0,0,0-.61-.16.64.64,0,0,0-.59.85Zm4.5.8,0,0h0v0Zm0,.09Zm-.15.1h0Zm.36,3.42v0Zm-4.58-1.86h0v-.05a.13.13,0,0,0,0,.06Z" transform="translate(-209.55 -307.37)"/>
    <path class="cls-2" d="M263.49,314.35c-.54.17-1.06.35-1.61.49s-1,.22-1.5.31a19.44,19.44,0,0,0-2.84.75,23.92,23.92,0,0,0-2.77,1.28,22.83,22.83,0,0,0-2.63,1.77c-.31.23-.62.46-.92.7v0l-.25.2h0l-.31.24-.23.14s0,0,0,0h0c.76-.41,1.54-.77,2.32-1.14s1.73-.89,2.63-1.27c.58-.24,1.16-.46,1.73-.71h0l.29-.12-.12.05.38-.16-.12.05c.44-.18.87-.37,1.31-.54s1.05-.37,1.57-.54a14.33,14.33,0,0,0,1.53-.61c.54-.24,1-.57,1.53-.86a0,0,0,0,0,0,0Zm-6.45,2.8.09,0-.09,0Z" transform="translate(-209.55 -307.37)"/>
    <path class="cls-2" d="M250.61,319.86a2.69,2.69,0,0,0-.61.19,5.44,5.44,0,0,0-1.27.75,11.88,11.88,0,0,0-2,2.29,19.13,19.13,0,0,0-1.58,2.5A20,20,0,0,0,244,328.5a19.08,19.08,0,0,0-.75,3,18,18,0,0,0-.31,3.19c0,.29,0,.59,0,.89,0,.1,0,.2,0,.3l.06.44v0a8.58,8.58,0,0,0,1.59,4l.51.62h0a.74.74,0,0,1,.13.21,0,0,0,0,0,0,0,1.79,1.79,0,0,0-.19-.52c-.09-.2-.18-.4-.26-.61,0,0,0,0,0,.05a11.35,11.35,0,0,1-.56-1.77l-.09-.24a5.54,5.54,0,0,1-.17-.58c0-.24-.06-.48-.09-.72,0,0,0,0,0,.06s0-.23,0-.34a1.27,1.27,0,0,1,0-.28c0-.13,0-.26.05-.4a17.11,17.11,0,0,1,.12-2.37,25.45,25.45,0,0,1,1.66-6c.47-1.09,1-2.15,1.54-3.19a22.7,22.7,0,0,1,1.77-3,6.29,6.29,0,0,1,1-1h0a4.14,4.14,0,0,1,.67-.41h0a1,1,0,0,1,.25-.07h0a.11.11,0,0,1,.08,0h0s0,0,0,0h-.1a1.64,1.64,0,0,0-.32.05Z" transform="translate(-209.55 -307.37)"/>
    <path class="cls-2" d="M249.48,320.69c-.19.07-.38.18-.57.26h0a4.81,4.81,0,0,1-1.09.31h0a8.36,8.36,0,0,1-2,0c-1.05-.15-2.09-.33-3.15-.42a8.55,8.55,0,0,0-1.43,0,10.06,10.06,0,0,0-4.6,1.23,9.08,9.08,0,0,0-1.4,1,9.31,9.31,0,0,0-1.15,1.28,12.9,12.9,0,0,0-.85,1.28,13.18,13.18,0,0,0-.74,1.62,16,16,0,0,0-.75,2.87c0,.23-.1.45-.15.67a2.7,2.7,0,0,0-.1.8,1.8,1.8,0,0,0,.13.61,2.45,2.45,0,0,0,.49.78,3.38,3.38,0,0,0,.63.5c.11.08.23.15.35.22l.75.42c.88.46,1.8.85,2.69,1.28.74.36,1.46.74,2.17,1.14a17.07,17.07,0,0,1,2,1.3c.67.52,1.29,1.1,1.93,1.67s1.29,1.06,2,1.57h0c.27.21.51.43.77.65h0c-.14-.19-.25-.39-.39-.58s-.27-.35-.42-.52c-.33-.38-.69-.75-1-1.13-.68-.75-1.32-1.54-2-2.27a18.36,18.36,0,0,0-2.29-1.94,21.15,21.15,0,0,0-2.56-1.5,17.57,17.57,0,0,1-1.84-1.06,4.4,4.4,0,0,1-.62-.6,1.37,1.37,0,0,1-.13-.2s0-.06,0-.09a6.35,6.35,0,0,1,.09-1.07,1.5,1.5,0,0,1,0,.22l.18-1.32a12.33,12.33,0,0,1,.76-2.86,10.48,10.48,0,0,1,.53-1.06,9.7,9.7,0,0,1,.62-.91,10.46,10.46,0,0,1,1.23-1.26,8,8,0,0,1,1.36-.79,13,13,0,0,1,2.62-.64c1.44-.17,2.87-.14,4.32-.17a6.91,6.91,0,0,0,2.07-.3,6.13,6.13,0,0,0,.91-.4c.26-.16.51-.33.77-.47h0s0,0,0,0Zm-15.15,8.57a.68.68,0,0,0,0,.14l0-.14ZM244.62,341h0Zm-10.53-10,0-.11,0,.11Z" transform="translate(-209.55 -307.37)"/>
    <path class="cls-2" d="M241.08,337.34a13.06,13.06,0,0,1,.9,1.07h0l0,0v0l.12.16h0l.33.43h0c.61.78,1.24,1.53,1.9,2.26.35.39.71.77,1.06,1.15a11.22,11.22,0,0,1,.13-1.3l-.54-.42c-.7-.54-1.37-1.11-2-1.71l-1-.88c-.3-.26-.6-.51-.89-.79h0s0,0,0,0Z" transform="translate(-209.55 -307.37)"/>
    <polygon class="cls-2" points="32.43 31.05 32.43 31.04 32.43 31.05 32.43 31.05 32.43 31.05"/>
    <polygon class="cls-2" points="32.57 31.23 32.57 31.23 32.57 31.23 32.57 31.23 32.57 31.23"/>
    <path class="cls-2" d="M242.14,338.61h0Z" transform="translate(-209.55 -307.37)"/>
    <path class="cls-2" d="M777.51,374.79s0,0,0,.08h0a2.33,2.33,0,0,1-.21.68,6,6,0,0,1-.58,1l0,0a5,5,0,0,1-.89.89l.06,0a7,7,0,0,1-1,.63,2.17,2.17,0,0,0-.61.43,1.92,1.92,0,0,0-.31.72v0h0c-.25,0-.49-.13-.74-.19a1.86,1.86,0,0,0-.78,0,1.32,1.32,0,0,0-.43.21,1.58,1.58,0,0,0-.38.35,2.65,2.65,0,0,0-.55,1.16,3.61,3.61,0,0,0,0,1.31v-.07a8.85,8.85,0,0,0,.27,1.24c.11.38.27.73.35,1.12a2.81,2.81,0,0,1,0,.29c-.08.39-.21.76-.32,1.14a6.85,6.85,0,0,0-.24,1.09c-.06.42-.14.82-.24,1.23a11,11,0,0,0-.29,1.52,12.47,12.47,0,0,0,.12,2.86c.12.81.29,1.61.41,2.42a7.89,7.89,0,0,1,0,.84c0,.22,0,.43,0,.65a7.8,7.8,0,0,1-.26,1.06c-.11.38-.27.75-.36,1.14a4,4,0,0,0,.14,2.38,5.17,5.17,0,0,0,.36.75l.06.09a8.62,8.62,0,0,0-.44,1l0,.2s0,0,0,0h0v0h0a2.62,2.62,0,0,0,0,.56,1.25,1.25,0,0,0,.08.32.3.3,0,0,0,.06.11,2.85,2.85,0,0,0,.26.23,1.6,1.6,0,0,1,.25.27c.09.11.19.22.27.34a1,1,0,0,1,.19.32.89.89,0,0,1,0,.28,3.31,3.31,0,0,0,.12.45,2.51,2.51,0,0,0,.71,1.13l.07,0a1.92,1.92,0,0,0,.75.39,2.22,2.22,0,0,0,1.81-.43c.32-.19.65-.37,1-.55a7.05,7.05,0,0,0,1.1-.7,23.54,23.54,0,0,0,2.11-1.89,24.36,24.36,0,0,1,1.79-1.73,5.3,5.3,0,0,1,.76-.46c.33-.11.66-.2,1-.32a3.9,3.9,0,0,0,1.13-.66c.56-.46,1.1-.95,1.67-1.4a9.3,9.3,0,0,0,1.83-1.65,1.41,1.41,0,0,0,.29-.95,1.06,1.06,0,0,0-.45-.74,4.69,4.69,0,0,0-1.44-.56s0,0,0,0l.1,0h0a5.1,5.1,0,0,1,1,.55h0a2.39,2.39,0,0,1,.22.23l.09.15v0h0a.83.83,0,0,1,0,.15s0,.09,0,.14a.07.07,0,0,1,0-.05.88.88,0,0,1-.1.35l0-.06a2.13,2.13,0,0,1-.16.25.1.1,0,0,1,0-.05,4,4,0,0,1-.36.35c-.6.45-1.29.76-1.91,1.17a18.59,18.59,0,0,1-1.86,1.15,8.16,8.16,0,0,1-1.29.34,4.74,4.74,0,0,0-1.56.65,27,27,0,0,0-2.61,2.05,9.68,9.68,0,0,1-1.4.88,3.58,3.58,0,0,1-.71.2,6.31,6.31,0,0,0-.87.14h0a2.31,2.31,0,0,0-.25-.68,1.84,1.84,0,0,0-.41-.51l0-.05a4.27,4.27,0,0,0,.24-.53,2,2,0,0,0-.51-2.09l-.28-.28-.08-.13a2.5,2.5,0,0,1-.07-.26v-.25c.1-.55.23-1.09.33-1.64a9.05,9.05,0,0,0,.15-1.15,5.35,5.35,0,0,0,0-1,11.51,11.51,0,0,0-.54-2.23,13.86,13.86,0,0,1-.43-1.8c0-.24,0-.47-.07-.71a5.81,5.81,0,0,1,0-.83s0,.09,0,.13l0-.25c.12-.59.31-1.16.44-1.75s.16-1.3.25-1.94h0a.51.51,0,0,1,0-.13h0a4.06,4.06,0,0,0,0-2.24c-.22-.53-.5-1-.73-1.54a4,4,0,0,1-.27-.89,2,2,0,0,1,0-.42,1.7,1.7,0,0,1,.1-.37c0-.09.09-.18.14-.27l-.09.13a1.16,1.16,0,0,1,.2-.24l.07,0,.08,0a1.63,1.63,0,0,1,.31,0,2.36,2.36,0,0,0,1.15,0,.92.92,0,0,0,.55-.57,1.63,1.63,0,0,0,.09-.49l0-.1s0,0,0,0a7.07,7.07,0,0,1,.65-.56c.2-.19.39-.4.58-.61a5.78,5.78,0,0,0,.89-1.41h0a5.45,5.45,0,0,0,.36-1.33h0a2.11,2.11,0,0,0,0-.25,0,0,0,0,0,0,0s0,0,0,0Zm-2.44,4.09,0,0,0,0Zm-1,.21s0,0,0,0a.05.05,0,0,1,0,0Zm-.08.09-.06,0,.06,0Zm-1,.9-.07,0,.07,0Zm-.24.12,0,0,0,0Zm.72,5.94h0Zm0,.08,0,.18a.69.69,0,0,1,0-.13v0Zm-.63,3.34,0,.17,0-.17Zm14.12,7.92,0,0,0,0Zm-3.66,2.26-.05,0,.05,0Z" transform="translate(-209.55 -307.37)"/>
    <path class="cls-2" d="M773.41,386.05v0Z" transform="translate(-209.55 -307.37)"/>
    <path class="cls-2" d="M770.58,403h0v0h0v0Z" transform="translate(-209.55 -307.37)"/>
    <path class="cls-2" d="M773.4,386.07v0Z" transform="translate(-209.55 -307.37)"/>
    <polygon class="cls-2" points="577.83 89.02 577.82 89.01 577.83 89.02 577.83 89.02 577.83 89.02"/>
    <polygon class="cls-2" points="567.6 68.98 567.6 68.97 567.6 68.98 567.6 68.98 567.6 68.98"/>
    <polygon class="cls-2" points="567.59 68.99 567.6 68.98 567.59 68.99 567.59 68.99 567.59 68.99"/>
    <path class="cls-2" d="M777.14,376.36v0Z" transform="translate(-209.55 -307.37)"/>
    <path class="cls-2" d="M771.07,381.93a.2.2,0,0,0,0-.07.2.2,0,0,1,0,.07Z" transform="translate(-209.55 -307.37)"/>
    <path class="cls-2" d="M773.4,386.14h0l0-.08v.07Z" transform="translate(-209.55 -307.37)"/>
    <path class="cls-2" d="M778.82,375.59a2.17,2.17,0,0,0-.77.32l-.29.16a1,1,0,0,0-.2.11s0,0,0,0h0l.13-.06h0a4,4,0,0,1,.83-.26,1.51,1.51,0,0,1,.3,0,1.25,1.25,0,0,1,.26.07l.14.08h0a1.09,1.09,0,0,1,.24.24,6.61,6.61,0,0,1,.65,1.27c.18.4.36.79.57,1.18a12.38,12.38,0,0,0,1.65,2.25,14.41,14.41,0,0,0,2,1.82c.65.5,1.34.94,2,1.44.31.24.62.49.92.75l.44.39.26.22-.05.07a7.88,7.88,0,0,1-1,1,9.53,9.53,0,0,0-1.21,1.08,6.27,6.27,0,0,0-1.5,3.09,5.88,5.88,0,0,0,.45,3.36,5.23,5.23,0,0,0,.8,1.35,3.77,3.77,0,0,0,1.15.91,4.23,4.23,0,0,0,.78.27s0,0,0,0a5.11,5.11,0,0,1-.48-.33,4.25,4.25,0,0,1-.62-.65,5.81,5.81,0,0,1-.4-.74,8.45,8.45,0,0,1-.38-1.56,8,8,0,0,1,0-1.55,9,9,0,0,1,.32-1.16,6.07,6.07,0,0,1,.59-1,6.65,6.65,0,0,1,.66-.64,19.47,19.47,0,0,0,2.46-1.78c.11-.11.21-.23.31-.35s.24-.32.36-.49a3.07,3.07,0,0,0,.25-.59,1.67,1.67,0,0,0-.12-1.28,2.1,2.1,0,0,0-.7-.72c-.36-.27-.74-.53-1.12-.78s-.81-.48-1.22-.71-.85-.47-1.28-.68-.87-.43-1.3-.67a11.47,11.47,0,0,1-1.25-.85l.14.1c-.37-.29-.74-.58-1.09-.9a10.21,10.21,0,0,1-1-1c-.22-.29-.43-.59-.64-.89s-.42-.66-.65-1a1.73,1.73,0,0,0-1.27-.9Zm.43.44h0Zm2.3,2.34,0,0,0,0Zm6.51,6.9a.17.17,0,0,0,0,.07v-.07Zm.13.5h0v0Z" transform="translate(-209.55 -307.37)"/>
    <path class="cls-2" d="M774.22,379.7a.78.78,0,0,0,.21.16l.36.24.61.4c.46.29.89.6,1.33.92a17.38,17.38,0,0,1,1.54,1.43c.49.5,1,1,1.43,1.54a13.41,13.41,0,0,0,1.42,1.4,8.28,8.28,0,0,0,.89.67,12.8,12.8,0,0,0,1.13.66s0,0,0,0a22,22,0,0,1-1.94-2.16c-.09-.12-.18-.23-.26-.35l0,0-.35-.45,0,.07h0l-.07-.08a19.14,19.14,0,0,0-1.23-1.47,8.51,8.51,0,0,0-1.4-1.21,10.67,10.67,0,0,0-1.69-.93c-.53-.24-1.1-.41-1.64-.64h0a2.93,2.93,0,0,1-.39-.21h0s0,0,0,0Zm6.73,4.9a.1.1,0,0,1,0-.05l0,.05Zm-.27-.34h0Zm-6-4.35h0Z" transform="translate(-209.55 -307.37)"/>
    <path class="cls-2" d="M776.44,385.42a6.3,6.3,0,0,0-1.05.3c-.92.3-1.72.87-2.6,1.24h0l-.13.05h0s0,0,0,0a.61.61,0,0,0,.18,0l.37-.13.82-.28a10.78,10.78,0,0,1,1.49-.36,7.85,7.85,0,0,1,1.61,0,7.27,7.27,0,0,1,1.22.31c.18.06.35.14.52.21.46.21.92.42,1.37.65s1,.5,1.45.73a13.17,13.17,0,0,0,1.46.6c.55.19,1.13.25,1.69.41,0,0,0,0,0,0a24.19,24.19,0,0,1-2.52-1.45,24.36,24.36,0,0,0-2.57-1.59,6.76,6.76,0,0,0-1.75-.62,4,4,0,0,0-.7-.06,6.38,6.38,0,0,0-.87.07Zm.59.75h0Zm-4.24.79h0Z" transform="translate(-209.55 -307.37)"/>
    <path class="cls-2" d="M779.3,396.06a5.34,5.34,0,0,0-2.25,1.14c-.5.38-1,.78-1.46,1.17l.06,0c-.41.3-.81.61-1.23.88a8.44,8.44,0,0,1-1.22.74s0,0,0,0l.12-.05h0c.43-.17.88-.31,1.32-.49a12.9,12.9,0,0,0,1.35-.65l1.37-.85a10.42,10.42,0,0,1,1.75-1l-.1,0a6.52,6.52,0,0,1,1.21-.31c.43-.05.85-.08,1.28-.14a6,6,0,0,0,1.43-.4s0,0,0,0a7.58,7.58,0,0,1-1.78,0c-.34,0-.68-.06-1-.06a5.93,5.93,0,0,0-.84.06Z" transform="translate(-209.55 -307.37)"/>
    <path class="cls-2" d="M764.37,372.86c.17.22.37.44.56.65l.78.87c.48.52,1,1,1.51,1.49a10.58,10.58,0,0,0,1.77,1.27c.32.18.66.35,1,.5s.82.31,1.24.45c0,0,0,0,0,0-.82-.55-1.63-1.13-2.43-1.72l.06,0-.48-.38-1.65-1.32c-.58-.46-1.18-.88-1.76-1.34h0a4.22,4.22,0,0,1-.59-.53h0s0,0,0,0Zm.62.51h0Z" transform="translate(-209.55 -307.37)"/>
    <path class="cls-2" d="M747.13,373.27s0,0,0,0a1.18,1.18,0,0,0,.28.22l.42.31h0l.28.22h0l.48.37,0,0c1.68,1.3,3.4,2.57,5.16,3.76.87.59,1.77,1.13,2.67,1.67s1.84,1.05,2.79,1.51c2,1,4,1.79,6.07,2.59a16.51,16.51,0,0,0,6,1.37l.58,0a5.78,5.78,0,0,1,.71-.05s0,0,0,0a5.12,5.12,0,0,0-.68-.14c-.22,0-.43-.07-.64-.12-.4-.08-.79-.19-1.18-.29-.85-.24-1.68-.58-2.51-.9l-.56-.24c-1.94-.87-3.85-1.82-5.77-2.72-1-.44-1.93-.88-2.87-1.35s-1.93-1-2.89-1.5c-1.38-.75-2.74-1.55-4.1-2.34-.7-.4-1.4-.8-2.11-1.18l-1.07-.56c-.33-.18-.66-.35-1-.55,0,0,0,0,0,0Zm.69.55h0Z" transform="translate(-209.55 -307.37)"/>
    <path class="cls-2" d="M774.72,406.14a4.75,4.75,0,0,0-1,.5l-.94.55a1.37,1.37,0,0,1,.13.2l.82-.58a8.26,8.26,0,0,1,1-.65s0,0,0,0Z" transform="translate(-209.55 -307.37)"/>
    <path class="cls-2" d="M772.62,402c-.44.27-.88.55-1.34.8-.23.13-.47.25-.71.37a2.36,2.36,0,0,0,0,.37v.05c.29-.19.58-.4.87-.61s.77-.65,1.16-1a0,0,0,0,0,0,0Z" transform="translate(-209.55 -307.37)"/>
    <path class="cls-2" d="M770.73,401c-.43.06-.87.11-1.31.19-.87.17-1.7.45-2.54.7s-1.81.52-2.73.74-1.77.34-2.66.47l-.58.08-.74.1c-1.62.2-3.25.35-4.88.49l-2.56.22-1.19.12-.59.06c-.19,0-.38,0-.57,0,0,0,0,0,0,0h0a4.45,4.45,0,0,1,.73,0l.84,0,1.49.08c1.1.06,2.2.12,3.3.16a28.18,28.18,0,0,0,6.42-.46,19,19,0,0,0,3.05-.87c1-.38,2-.87,2.95-1.29h0c.47-.19,1-.36,1.44-.53a11.9,11.9,0,0,1,1.39-.46s0,0,0,0h0a8,8,0,0,0-1.2.11Z" transform="translate(-209.55 -307.37)"/>
    <path class="cls-2" d="M760.42,370.15s0,0,0,0l.22,0h0a2.49,2.49,0,0,1,.6.2h0a9.25,9.25,0,0,1,1.36.79c.41.27.81.58,1.2.88.84.64,1.67,1.29,2.57,1.86a19.92,19.92,0,0,0,2.67,1.4,14.48,14.48,0,0,0,3.12,1,9.87,9.87,0,0,0,3,.08,6.63,6.63,0,0,0,1.47-.31c.38-.14.75-.33,1.12-.51h0l.16-.05h.16s0,0,0,0a1.4,1.4,0,0,0-.73.05l-.78.14h0a11.14,11.14,0,0,1-2.58-.06,15.67,15.67,0,0,1-1.83-.41c-.62-.18-1.22-.43-1.82-.67l.15.05c-1.35-.58-2.69-1.19-4-1.88s-2.56-1.45-3.91-2h0a9,9,0,0,0-1.1-.39,4.09,4.09,0,0,0-1.09-.19Zm.81.23Z" transform="translate(-209.55 -307.37)"/>
    <path class="cls-2" d="M357.21,326a.52.52,0,0,0-.16.37,1.27,1.27,0,0,0,.05.43c.16.66.34,1.31.44,2a6.31,6.31,0,0,1,0,1.23,3.85,3.85,0,0,1-.25.88h0l-.09.19c0,.08-.11.15-.15.24s0,0,0,0,.21-.29.3-.44a4.94,4.94,0,0,0,.45-1,5.85,5.85,0,0,0,.2-1.17,8.52,8.52,0,0,0,0-1.13c0-.26-.05-.53-.07-.8l.3.09a4.4,4.4,0,0,0,.86.14c.49,0,1,0,1.48.05a3.34,3.34,0,0,1,.4.1,4.17,4.17,0,0,1,.44.29l.16.09c0,.33-.07.67-.09,1a5.73,5.73,0,0,0,.07,1.37,4.17,4.17,0,0,0,.68,1.59,8.77,8.77,0,0,0,1.13,1.15s0,0,0,0c-.14-.22-.29-.41-.43-.61a4.35,4.35,0,0,1-.48-.8,5.38,5.38,0,0,1-.3-1c0-.19,0-.37,0-.57a5.33,5.33,0,0,1,0-.56c.08-.46.2-.9.31-1.35a1.19,1.19,0,0,0,.06-.45.62.62,0,0,0-.31-.5l-.15-.07-.11-.07-.16-.14a1.9,1.9,0,0,0-.59-.33,3.07,3.07,0,0,0-.91-.12h-.55a8.18,8.18,0,0,1-1,0l-.85-.2a1.86,1.86,0,0,0-.33,0,.64.64,0,0,0-.41.18Zm3.48,1.12h0Zm-3.13,2.9h0Zm4.94,1.23s0,0,0,0v0Z" transform="translate(-209.55 -307.37)"/>
    <path class="cls-3" d="M232.75,333.11a1.74,1.74,0,0,0-.05.22c0,.12,0,.24,0,.35a4.62,4.62,0,0,0-.06.74c0,.51,0,1,0,1.54s.07,1.05.11,1.57.1.93.17,1.39.2,1.08.32,1.62.23,1,.36,1.49c.24,1,.49,2,.74,3s.51,1.91.79,2.86.57,2,.78,3c.11.5.21,1,.31,1.52s.22,1,.35,1.55.28,1,.44,1.45.36.92.55,1.38l.12.27h0l0,.06,0,.07a1.11,1.11,0,0,0,.07.16h0c0,.09.08.18.11.27l.16.39c.1.25.2.51.29.76.19.53.36,1.05.5,1.59.06.25.12.49.16.74s.1.55.14.83v-.07c0,.46.09.93.11,1.39s0,.88,0,1.31,0,1,0,1.44.06.93.1,1.4a22.43,22.43,0,0,0,.41,2.71c.1.43.21.84.3,1.27s.16.83.22,1.26v0c.06.53.11,1.05.2,1.57a6.31,6.31,0,0,0,.2.86,2.29,2.29,0,0,0,.12.37c0,.07,0,.13.07.2a1,1,0,0,0,.07.15,1.1,1.1,0,0,0,.15.26.35.35,0,0,0,.15.12.3.3,0,0,0,.19,0,.24.24,0,0,0,.09-.34l-.07-.11a1.15,1.15,0,0,1-.12-.25s0,0,0,.05a5.51,5.51,0,0,1-.28-.87,9.1,9.1,0,0,1-.16-.91v.07c-.06-.43-.1-.87-.17-1.3a13.34,13.34,0,0,0-.25-1.38c-.09-.4-.2-.8-.28-1.21s-.18-.93-.25-1.39v.07c-.07-.52-.12-1-.17-1.57s-.06-1-.08-1.55,0-1,0-1.47,0-1-.08-1.49a12.58,12.58,0,0,0-.55-2.86c-.15-.49-.32-1-.5-1.44l-.27-.68-.13-.33-.1-.22s0-.05,0-.08,0-.12-.08-.19-.13-.3-.2-.45l0,0a14.33,14.33,0,0,1-.53-1.37c-.15-.5-.3-1-.42-1.52-.24-1-.41-2-.64-3s-.51-2-.79-2.92c-.13-.45-.27-.91-.39-1.37s-.27-1-.4-1.55c-.26-1-.52-2-.77-3.06-.12-.5-.24-1-.34-1.52s-.2-1.05-.27-1.58c-.1-.77-.17-1.55-.2-2.33,0-.41,0-.82,0-1.24a7,7,0,0,1,.07-1.12.06.06,0,0,1,0,0c0-.13,0-.27.08-.4a.26.26,0,0,0-.17-.31H233a.26.26,0,0,0-.24.18Zm8.68,42.35v0Zm-1.07-2.8v0a.06.06,0,0,0,0,0ZM237.67,357h0v0Z" transform="translate(-209.55 -307.37)"/>
    <path class="cls-3" d="M233.92,334.1a.27.27,0,0,0-.11.15,2,2,0,0,0-.08.33c0,.11,0,.22,0,.32a2.72,2.72,0,0,0,0,.28v.36a12.46,12.46,0,0,0,.11,1.36c.14,1,.3,1.89.52,2.83.1.45.23.89.36,1.33s.26.86.4,1.29.29.85.43,1.27l.21.67a5.25,5.25,0,0,1,.13.69v0c0,.12,0,.24,0,.36a2.54,2.54,0,0,1,0,.39c0,.25,0,.5,0,.75,0,.5,0,1,0,1.49s0,1,.09,1.53.12,1.09.18,1.63.11,1,.17,1.45.14,1.06.19,1.59.08,1,.1,1.46,0,1,.05,1.55c.06,1.41.1,2.82.3,4.22a8.83,8.83,0,0,0,.48,2c.14.35.28.69.44,1s.29.64.43,1h0c.2.48.38,1,.54,1.46s.37,1.07.57,1.59a15.05,15.05,0,0,0,.62,1.43c.24.48.54.93.77,1.41a4.6,4.6,0,0,1,.22.72,7.93,7.93,0,0,1,.14.85v0c0,.4.1.8.14,1.2s.13.84.19,1.27a.17.17,0,0,1,0-.07c0,.16,0,.33,0,.49s0,.35,0,.52a2.38,2.38,0,0,0,.11.38c.06.15.14.29.21.44a.08.08,0,0,1,0,0c.1.26.18.53.26.8s.09.28.13.41a2.81,2.81,0,0,0,.24.59.24.24,0,0,0,.34.09.26.26,0,0,0,.09-.34l-.06-.11,0,.06a11,11,0,0,1-.36-1.11,4.56,4.56,0,0,0-.18-.52c-.06-.16-.14-.31-.21-.46s-.06-.2-.08-.3,0-.24,0-.37a3.88,3.88,0,0,0,0-.48c0-.36-.1-.72-.16-1.09a.09.09,0,0,1,0,.05c-.06-.47-.11-.94-.17-1.41q0-.37-.12-.75a4,4,0,0,0-.17-.68,4.08,4.08,0,0,0-.32-.71c-.12-.22-.25-.44-.38-.66a13.93,13.93,0,0,1-.62-1.29s0,0,0,.05c-.18-.44-.34-.89-.5-1.33s-.28-.85-.43-1.27-.32-.87-.51-1.29-.42-.91-.62-1.37v0c-.07-.2-.15-.4-.22-.61s-.11-.35-.16-.52c-.1-.43-.18-.86-.24-1.28v.06c-.06-.51-.11-1-.14-1.55s-.06-1-.08-1.52-.05-1-.06-1.52,0-1.05-.07-1.58c-.06-1-.2-2-.32-3l-.18-1.58c-.06-.53-.12-1.05-.15-1.58s-.05-1,0-1.52,0-1,.06-1.5a6.26,6.26,0,0,0,0-.75,5.34,5.34,0,0,0-.13-.8,15,15,0,0,0-.46-1.44c-.17-.48-.32-1-.47-1.47s-.29-.93-.41-1.4-.23-1-.32-1.47c-.05-.25-.09-.5-.13-.75s-.09-.5-.12-.75l-.05-.33v.07c0-.34-.07-.67-.09-1a8.29,8.29,0,0,1,0-1,1.55,1.55,0,0,1,.08-.36.25.25,0,0,0,0-.19.23.23,0,0,0-.15-.11h-.07a.31.31,0,0,0-.13,0Zm.29.59v0Zm7.85,41.69v0ZM235.84,345Z" transform="translate(-209.55 -307.37)"/>
    <path class="cls-3" d="M241.54,376a.23.23,0,0,0-.12.15.25.25,0,0,0,0,.19h0l0-.05a10.92,10.92,0,0,1,.4,1.69v0h0c0,.09,0,.18,0,.27a1.79,1.79,0,0,1,0,.4,1.22,1.22,0,0,1-.06.26.49.49,0,0,1,0,.11c-.05.12-.11.23-.17.35l-.22.41a.27.27,0,0,0,.09.35.26.26,0,0,0,.34-.09c.14-.29.32-.56.43-.86a2.29,2.29,0,0,0,.09-.28,2.22,2.22,0,0,0,.06-.46,3.57,3.57,0,0,0,0-.47c0-.33-.11-.66-.18-1,0-.16-.07-.31-.12-.47l-.06-.23c0-.07-.05-.15-.08-.22a.26.26,0,0,0-.34-.09Zm.3,2.67v0Zm0-.67h0v0Z" transform="translate(-209.55 -307.37)"/>
    <path class="cls-3" d="M241.49,375.52a1.06,1.06,0,0,0-.19.06l-.14.11a.54.54,0,0,0-.1.16l0,.06a.49.49,0,0,0,0,.12.4.4,0,0,0,0,.19.61.61,0,0,0,.13.22.27.27,0,0,0,.18.26,1.29,1.29,0,0,0,.34,0h.09a.66.66,0,0,0,.2-.06l.06,0,.11-.09.05-.06a1,1,0,0,0,.08-.11.59.59,0,0,0,0-.45.37.37,0,0,0-.09-.16l-.05,0a.24.24,0,0,0-.11-.06l-.06,0h-.12l0,0a.39.39,0,0,0-.18-.06h-.19Z" transform="translate(-209.55 -307.37)"/>
    <path class="cls-3" d="M786,398.67a.32.32,0,0,0-.14.12.22.22,0,0,0,0,.19.26.26,0,0,0,.12.15.22.22,0,0,0,.18,0h0a3.81,3.81,0,0,1,.65.38,4.28,4.28,0,0,1,.55.49.43.43,0,0,0,0,.07v0h0l0,0a1.33,1.33,0,0,1-.3.28,7.32,7.32,0,0,0-1.3,1.12,6,6,0,0,0-.53.71c-.15.23-.3.46-.46.67a3.94,3.94,0,0,1-.44.47,1.22,1.22,0,0,1-.19.12l-.09,0H784l-.18,0a2.71,2.71,0,0,1-.45-.3,2.59,2.59,0,0,1-.37-.37l-.06-.09a1.14,1.14,0,0,1-.1-.19,1.42,1.42,0,0,1,0-.22s0,0,0,.07a1.85,1.85,0,0,1,0-.33.59.59,0,0,1,0-.14h0a.88.88,0,0,1,.06-.28.26.26,0,0,0-.18-.31.25.25,0,0,0-.31.17c0,.07,0,.15-.05.23s0,.25,0,.38a1.2,1.2,0,0,0,0,.33,1.11,1.11,0,0,0,.09.31.61.61,0,0,0,0,.12,2.39,2.39,0,0,0,.13.21,1.71,1.71,0,0,1,.11.14,2.37,2.37,0,0,0,.5.45,1.51,1.51,0,0,0,.77.35.86.86,0,0,0,.45-.08,1,1,0,0,0,.24-.15l.13-.1a2.83,2.83,0,0,0,.24-.25c.09-.1.17-.21.26-.32s.22-.32.33-.49l.38-.55,0,0,0,0h0a5.72,5.72,0,0,1,.4-.46,6,6,0,0,1,.46-.4l.32-.24a5.07,5.07,0,0,0,.46-.35,1.63,1.63,0,0,0,.17-.2.55.55,0,0,0,.11-.29.57.57,0,0,0-.07-.29,1.34,1.34,0,0,0-.16-.23c-.09-.1-.19-.18-.28-.27a3.9,3.9,0,0,0-.4-.31,1.63,1.63,0,0,0-.4-.24,2.06,2.06,0,0,0-.26-.12.35.35,0,0,0-.14,0H786Zm.15.49h0Zm1.21.9,0,0,0,0Zm0,0s0,0,0,0h0s0,0,0,0Zm-.59,1.17h0Zm-3.53,1.93h0Zm.44.31h0Zm.36.06h0Zm1.87-1.44h0Z" transform="translate(-209.55 -307.37)"/>
    <path class="cls-3" d="M787.16,397.72a.26.26,0,0,0,.09.34.57.57,0,0,1,.13.08l0,0,.39.37c.11.11.2.23.3.35h0l0,0h0l.43.56a3.22,3.22,0,0,1-.44-.14l-.29-.17-.14-.13-.14-.16h0a1.22,1.22,0,0,1-.12-.19,1,1,0,0,1-.12-.23,1,1,0,0,1-.06-.23h0a.26.26,0,0,0-.25-.21.25.25,0,0,0-.25.25,1.78,1.78,0,0,0,.16.51,2.16,2.16,0,0,0,.29.45,2.46,2.46,0,0,0,.48.43,2.76,2.76,0,0,0,.83.3l.21,0a.65.65,0,0,0,.3-.06l.07-.06a.39.39,0,0,0,.08-.14.29.29,0,0,0,0-.13.34.34,0,0,0,0-.17,2.86,2.86,0,0,0-.3-.41v0l0,0,0,0h0c-.16-.21-.32-.42-.49-.62A4.12,4.12,0,0,0,788,398a2.45,2.45,0,0,0-.47-.38.31.31,0,0,0-.13,0,.25.25,0,0,0-.22.12Zm1.6,1.24h0l0,0v0Zm-.7-.1h0l0,0,0,0Z" transform="translate(-209.55 -307.37)"/>
    <path class="cls-3" d="M786.29,401.53a.25.25,0,0,0,0,.35l.45.42c.17.17.32.35.47.53v0l0,0,0,0v0c.12.17.23.33.34.51s.11.21.17.32l.13.3.09.25a2.68,2.68,0,0,1,.07.27,3.7,3.7,0,0,1,.11.54h0c0,.17,0,.34.05.51s0,.49,0,.73c0,.43,0,.87,0,1.3s0,.82,0,1.22,0,.87-.11,1.31c0,0,0-.05,0-.07-.08.49-.2,1-.3,1.45s-.21,1-.34,1.48c-.24.95-.63,1.85-.93,2.78-.05.19-.11.39-.16.59s-.05.24-.07.36,0,.3-.07.45a7,7,0,0,0,0,.79c0,.25,0,.49.05.73.06.46.13.91.2,1.37s.15.9.21,1.35c.16,1.07.3,2.15.54,3.2.12.53.26,1,.39,1.56a15.07,15.07,0,0,1,.3,1.63,12.54,12.54,0,0,1,.1,1.84q0,.51-.06,1c0,.31-.06.62-.11.93l0-.07c-.09.53-.18,1.06-.29,1.59s-.24,1-.37,1.52c-.26,1-.55,2-.82,3-.14.48-.27,1-.4,1.44-.06.23-.12.45-.17.67s-.12.61-.17.91a12.7,12.7,0,0,0-.12,3.2,14,14,0,0,0,.2,1.43c.09.46.18.92.3,1.38.24,1,.53,1.94.8,2.91.13.48.26,1,.38,1.43s.24.94.34,1.42.18.95.26,1.43.17.95.24,1.43c0,.2.06.39.09.58a.06.06,0,0,0,0,0,11,11,0,0,1,.11,1.14,3.15,3.15,0,0,1,0,.53c0,.21,0,.42-.06.64l0-.07c0,.31-.1.61-.17.92s-.13.58-.22.87a12.54,12.54,0,0,1-.57,1.55.14.14,0,0,0,0-.06c-.09.22-.19.44-.29.65a5.5,5.5,0,0,0-.3.72.16.16,0,0,1,0,.07.26.26,0,0,0,.09.34A.24.24,0,0,0,787,463c0-.07.08-.12.12-.18a.83.83,0,0,0,.07-.13,3.49,3.49,0,0,0,.15-.34c.09-.21.17-.44.26-.65.18-.48.38-.94.54-1.42a12.06,12.06,0,0,0,.38-1.43q.07-.37.12-.75a6.48,6.48,0,0,0,.06-.76,15.81,15.81,0,0,0-.33-2.9c-.16-1-.34-1.92-.53-2.89-.11-.59-.24-1.17-.4-1.76s-.33-1.16-.49-1.75-.34-1.23-.49-1.85-.24-1.16-.33-1.75a.25.25,0,0,0,0,.08c0-.29-.07-.57-.1-.86s0-.58,0-.87a12.69,12.69,0,0,1,.1-1.74v.08c0-.25.07-.51.12-.76s.11-.56.18-.84c.11-.48.24-.95.37-1.42.28-1,.57-2,.83-3,.13-.5.26-1,.37-1.51s.22-1,.3-1.53.14-1,.19-1.58a13,13,0,0,0,0-1.53c0-.41-.05-.82-.1-1.22a11.89,11.89,0,0,0-.24-1.35c-.09-.4-.2-.79-.29-1.19s-.22-.88-.31-1.33c-.17-.83-.28-1.67-.4-2.52s-.25-1.57-.37-2.35a.15.15,0,0,1,0,.06c0-.33-.08-.66-.1-1a5.81,5.81,0,0,1,0-.59,3.41,3.41,0,0,1,.05-.55s0,0,0,.06a9.07,9.07,0,0,1,.34-1.34c.16-.47.34-.92.49-1.39a13.29,13.29,0,0,0,.42-1.4c.13-.49.23-1,.34-1.48.05-.24.1-.47.14-.71s.09-.51.13-.76a12.4,12.4,0,0,0,.08-1.36c0-.46,0-.91,0-1.37s0-1,0-1.53a6.46,6.46,0,0,0-.15-1.16,5.76,5.76,0,0,0-.18-.59,6,6,0,0,0-.26-.58,5.28,5.28,0,0,0-.66-1,6.72,6.72,0,0,0-.8-.8.25.25,0,0,0-.17-.08.25.25,0,0,0-.18.08Zm.94,1.32h0l0,0Z" transform="translate(-209.55 -307.37)"/>
    <path class="cls-3" d="M786.83,401.11a.25.25,0,0,0-.09.34c.07.1.15.18.22.27s.22.27.34.4l.6.78c.16.21.32.41.47.63s.28.43.42.65a11.6,11.6,0,0,1,.64,1.27,10.79,10.79,0,0,1,.62,2.45v0c.06.49.11,1,.14,1.47s0,1,0,1.45c-.05,1-.16,2-.28,3-.23,1.91-.42,3.83-.63,5.74-.09.95-.19,1.89-.25,2.84,0,.48-.06,1-.07,1.47s0,1,0,1.56,0,.94-.06,1.42-.07,1-.11,1.51l-.12,1.48c0,.47-.07.94-.11,1.41s-.07,1-.09,1.45,0,1,0,1.53,0,1,.08,1.45.09,1,.13,1.46q.14,1.49.18,3c0,1,0,2,0,3,0,.82-.09,1.64-.15,2.45s-.17,1.74-.28,2.61v-.07c-.07.47-.13.94-.19,1.42s-.11.86-.16,1.29c0,.27-.07.53-.11.8s-.05.46-.08.7l-.15,1.3c0,.41-.09.83-.11,1.24s0,.93,0,1.4,0,.92,0,1.38,0,.82,0,1.23c0,0,0,0,0-.06,0,.16-.06.31-.1.47a5.52,5.52,0,0,1-.18.53v0a6.33,6.33,0,0,1-.6,1.08,5.43,5.43,0,0,1-.78.81h0l0,0,0,0v0c-.26.19-.53.36-.79.54a.25.25,0,0,0,.25.43,9.38,9.38,0,0,0,1.09-.78,3.5,3.5,0,0,0,.38-.39c.13-.15.26-.31.38-.47a5.64,5.64,0,0,0,.31-.53,6.62,6.62,0,0,0,.3-.66,4.1,4.1,0,0,0,.26-1.25c0-.2,0-.4,0-.61s0-.47,0-.72c0-.49,0-1,0-1.47a26.67,26.67,0,0,1,.21-2.67c0-.3.07-.6.11-.9h0c.16-1,.26-2.07.39-3.1v0c.07-.48.14-1,.2-1.44s.12-1,.17-1.54c.09-.93.16-1.87.2-2.81s0-2,0-3-.07-2-.15-2.95-.2-1.93-.23-2.91q0-.76,0-1.53c0-.49,0-1,.09-1.46s.07-.94.1-1.41l.12-1.46c0-.5.07-1,.11-1.52s0-.93.06-1.4,0-1.05,0-1.57,0-.95.06-1.42.07-1,.11-1.48.09-1,.14-1.46c.11-.95.2-1.9.31-2.85s.19-1.87.3-2.8.25-2.07.3-3.11a14.22,14.22,0,0,0,0-1.46c0-.48-.07-1-.12-1.43a12.71,12.71,0,0,0-.27-1.52c-.05-.22-.12-.44-.19-.66a6,6,0,0,0-.26-.71,10.23,10.23,0,0,0-.67-1.32c-.28-.46-.6-.9-.93-1.34l-.6-.75c-.16-.21-.33-.4-.5-.6h0v0l0,0h0a.27.27,0,0,0-.12-.09H787a.28.28,0,0,0-.13,0Zm-1,60.57h0Zm2.92-12.5v0Zm-1.61-48v0l0,0Z" transform="translate(-209.55 -307.37)"/>
    <path class="cls-3" d="M787.1,458.78a.53.53,0,0,0-.17,0,1.18,1.18,0,0,0-.18.13l0,.05-.06.13s0,.05,0,.07a.77.77,0,0,1,0,.15l0,.06a.51.51,0,0,0,.09.13l.05,0v.12l0,.06a.58.58,0,0,0,.14.24.76.76,0,0,0,.2.2l.13.09.2.09.14,0a.45.45,0,0,0,.2,0h.06l.12-.05.13,0h.11l.16,0a.84.84,0,0,0,.19-.09.48.48,0,0,0,.12-.17.31.31,0,0,0,0-.13.59.59,0,0,0,0-.14l0-.06a.6.6,0,0,0-.09-.13l-.12-.09-.09,0a.5.5,0,0,0,0-.12.14.14,0,0,1,0-.06.36.36,0,0,0-.08-.15h0a.23.23,0,0,0-.07-.07l0,0a.76.76,0,0,0-.16-.11l-.07,0a.58.58,0,0,0-.19,0h-.15l-.09,0-.14,0a.68.68,0,0,0-.2,0Z" transform="translate(-209.55 -307.37)"/>
    <path class="cls-3" d="M787.33,458.41a1,1,0,0,0-.68.32.79.79,0,0,0-.07.73,1.87,1.87,0,0,0,.47.76,1.73,1.73,0,0,0,.77.43.85.85,0,0,0,.32,0,.64.64,0,0,0,.3-.11l.11-.08a1.07,1.07,0,0,0,.14-.16,1.09,1.09,0,0,0,.17-.34l0-.14a.81.81,0,0,0,0-.22.66.66,0,0,0,0-.15l-.06-.12v0a.64.64,0,0,0-.06-.18,1.43,1.43,0,0,0-.31-.38,1.83,1.83,0,0,0-.38-.23l-.27-.1a1,1,0,0,0-.3,0Zm.22.5.2.06a.24.24,0,0,0,0,.12.26.26,0,0,0,.12.15l.37.25-.06,0,.1.07h0a.12.12,0,0,1,0,.05l-.06,0-.13,0h-.28l-.21,0a.23.23,0,0,0-.28.11,2.09,2.09,0,0,1-.16-.29,1.82,1.82,0,0,1-.07-.25.19.19,0,0,1,0-.08v0l0,0h0l.11-.06.16,0Zm0,0h0Zm.61.7,0,0,0,0Zm.07.5a.33.33,0,0,1-.1.06l.06,0-.08,0H788l-.12,0a1,1,0,0,0,.24,0l.11,0,0,0,0,0Zm-.28.07h0Z" transform="translate(-209.55 -307.37)"/>
    <path class="cls-2" d="M767.61,409.76c-1.13.46-2.28.9-3.42,1.34a27.25,27.25,0,0,0-3.47,1.71c-1.11.62-2.17,1.32-3.24,2s-2.07,1.33-3.1,2-2.1,1.47-3.15,2.2-2.33,1.57-3.49,2.36l-3.2,2.15c-1.13.76-2.25,1.52-3.33,2.33s-2.33,1.78-3.45,2.72-2.17,1.79-3.26,2.68c-2.11,1.74-4.21,3.51-6.28,5.3s-4.16,3.53-6.25,5.27-4.18,3.55-6.18,5.43c-3.95,3.7-7.62,7.68-11.49,11.46-1.86,1.8-3.76,3.57-5.59,5.4-1,1-2,2-2.91,3S694,469,693.13,470c-1.75,1.94-3.49,3.89-5.27,5.81-2,2.17-4.09,4.29-6.17,6.39q-2.87,2.9-5.86,5.66c-2,1.88-4.13,3.67-6.22,5.47-1.64,1.41-3.3,2.79-5,4.17s-3.5,2.95-5.23,4.45-3.42,2.95-5.14,4.4-3.51,2.85-5.29,4.24l.25-.19c-1.12.84-2.24,1.67-3.37,2.48l-3.36,2.35c-2.28,1.59-4.56,3.17-6.82,4.78s-4.79,3.39-7.17,5.12-4.44,3.28-6.63,4.95q-2.45,1.88-4.85,3.81c-1.4,1.14-2.81,2.28-4.24,3.4-2.18,1.66-4.4,3.27-6.6,4.91s-4.37,3.27-6.6,4.83-4.46,3-6.79,4.33-4.92,2.81-7.43,4.11c-1.38.72-2.75,1.39-4.16,2h0c-2,.84-4,1.63-6.08,2.31-2.31.76-4.63,1.47-7,2.1-2.2.59-4.41,1.13-6.64,1.57-1.24.25-2.47.48-3.71.69s-2.29.36-3.43.51l.22,0c-1.43.17-2.85.31-4.28.42s-2.66.13-4,.17-2.55,0-3.82.07q-2.25.06-4.5.18c-1.28.08-2.56.18-3.84.28s-2.77.2-4.16.29c-2.68.17-5.36.38-8,.78-1.91.29-3.8.77-5.67,1.24-1,.23-1.91.48-2.85.77a27.73,27.73,0,0,0-2.93,1.07,14.93,14.93,0,0,0-4.74,3,9.28,9.28,0,0,0-1.52,2,8.36,8.36,0,0,0-.87,2.47,10,10,0,0,0-.18,1.34,10.24,10.24,0,0,0-.07,1.36h0c0-.43.05-.85.1-1.28h0a9.93,9.93,0,0,1,.62-2.19h0v0h0a9.36,9.36,0,0,1,1-1.67l0,0,0,0v0a11.62,11.62,0,0,1,.89-1,7.57,7.57,0,0,1,.75-.63,15.51,15.51,0,0,1,1.54-1c.47-.26,1-.49,1.45-.71,1-.4,2-.75,3-1,1.19-.34,2.4-.59,3.61-.84l3.26-.66c1.2-.23,2.39-.43,3.6-.6h0l.16,0-.15,0c2.55-.31,5.12-.52,7.69-.68,2.73-.17,5.46-.42,8.19-.58s5.51-.17,8.26-.25a75.73,75.73,0,0,0,8.24-.74c2.8-.4,5.58-.92,8.34-1.49s5.45-1.26,8.14-2c1.32-.37,2.64-.79,3.94-1.23s2.59-.89,3.87-1.4,2.51-1,3.73-1.56,2.71-1.3,4-2c2.49-1.3,4.94-2.69,7.39-4.06,1.15-.64,2.29-1.29,3.39-2s2.34-1.54,3.48-2.34c2.2-1.57,4.38-3.17,6.57-4.75s4.52-3.19,6.76-4.82c1.26-.91,2.49-1.88,3.71-2.83s2.62-2.06,3.94-3.08l-.26.19c2.23-1.71,4.45-3.42,6.72-5.07s4.57-3.26,6.86-4.89,4.67-3.34,7-5,4.5-3.16,6.7-4.83,4.45-3.47,6.61-5.3,4.28-3.7,6.43-5.54c4.16-3.58,8.42-7,12.56-10.61,2.08-1.8,4.11-3.63,6.09-5.53s4.13-4.07,6.17-6.14c3.78-3.82,7.28-7.9,11-11.74,1.8-1.85,3.68-3.62,5.55-5.41s3.82-3.66,5.68-5.54,3.71-3.82,5.6-5.7,4.15-3.92,6.31-5.78c1.57-1.34,3.17-2.64,4.77-4s3.29-2.79,4.92-4.19c.83-.71,1.68-1.4,2.52-2.09l2.38-2c1.67-1.38,3.36-2.73,5.07-4.07.76-.59,1.53-1.17,2.31-1.73l2.82-2c1.84-1.32,3.64-2.7,5.41-4.12,1.6-1.28,3.19-2.58,4.77-3.88s3.05-2.58,4.61-3.82a33.65,33.65,0,0,1,3-2.13l1.48-.88c.57-.34,1.14-.7,1.71-1.05,0,0,0,0,0,0ZM612.67,537.37l-.07,0,.07,0ZM503.93,576.54h0v0Zm1-1.69h0l0,0Zm18.14-6.47h0Z" transform="translate(-209.55 -307.37)"/>
    <path class="cls-2" d="M777.09,404.29l-.7.32h0a4.31,4.31,0,0,1-.87.24h0l-.59.07a4,4,0,0,0-.74.17l-.52.19c-.22.08-.43.15-.64.25a27.08,27.08,0,0,0-2.56,1.2c-.42.23-.81.48-1.21.73s-.84.52-1.27.75-.85.48-1.26.74-.86.58-1.28.87c-.85.59-1.71,1.17-2.59,1.72l-1.25.78-1.31.83c-1.78,1.11-3.53,2.28-5.28,3.45-.84.57-1.69,1.12-2.52,1.69s-1.81,1.28-2.66,2a37.86,37.86,0,0,0-4.49,4.28L744,426.09c-.26.28-.52.56-.79.83l-.34.36a3.28,3.28,0,0,0-.31.34s-.07.06-.07.1h0a6.72,6.72,0,0,1,.8-.8l.81-.72,1.41-1.25c.94-.83,1.89-1.63,2.87-2.4l0,0,.06,0,0,0h0c.81-.61,1.63-1.22,2.46-1.81s1.78-1.19,2.7-1.75,1.74-1,2.6-1.59l2.71-1.69,2.1-1.3,2-1.23c.71-.43,1.4-.87,2.09-1.34s1.32-1,2-1.47,1.26-.89,1.9-1.33,1.27-1,1.93-1.45,1.26-.81,1.92-1.19a18.46,18.46,0,0,1,1.86-1h0c.41-.15.83-.22,1.24-.37a6.35,6.35,0,0,0,1.21-.7s0,0,0,0Zm-28.64,18.25h0l0,0Z" transform="translate(-209.55 -307.37)"/>
    <path class="cls-2" d="M463.47,350a12.62,12.62,0,0,0-.08,1.38c0,.59,0,1.18,0,1.77,0,1.09,0,2.18.12,3.26.2,2.37.55,4.72.77,7.09s.27,4.56.28,6.85a64.55,64.55,0,0,1-.21,6.52,16.49,16.49,0,0,1-.34,1.7c-.2.77-.44,1.52-.71,2.27-.5,1.4-1.07,2.79-1.64,4.17-.88,2-1.87,4-2.91,6s-2.19,4-3.34,6-2.44,4.07-3.65,6.1-2.39,4-3.53,6.07c-2.25,4-4.47,8.08-6.46,12.24A55,55,0,0,0,437,435a63.73,63.73,0,0,0-.89,7.28,65.18,65.18,0,0,0-.12,7c.05,1.27.15,2.53.3,3.79s.33,2.47.51,3.7c.36,2.36.74,4.73,1.2,7.08a66.45,66.45,0,0,0,1.59,6.66c.69,2.27,1.45,4.51,2.21,6.75s1.54,4.51,2.38,6.73c.9,2.38,1.87,4.72,2.88,7.05.92,2.12,2,4.18,3.07,6.22,1.19,2.21,2.39,4.41,3.62,6.58,2.36,4.14,4.9,8.16,7.58,12.08,1.94,2.82,3.93,5.59,5.87,8.4a43,43,0,0,1,2.55,4.09c.77,1.43,1.45,2.9,2.1,4.4,1.1,2.72,2,5.49,2.89,8.31.44,1.47.83,3,1.16,4.46s.54,2.86.75,4.3c0-.18-.05-.35-.07-.53,0,.29.07.58.11.87.29,2.25.57,4.5.94,6.73a55.6,55.6,0,0,0,1.38,6.55,27.59,27.59,0,0,0,2.44,6.14,23.54,23.54,0,0,0,1.93,2.83c.34.41.71.82,1.07,1.22a8.09,8.09,0,0,0,1.28,1.2l.21.14s0,0,0,0l-.33-.36h0a14.78,14.78,0,0,1-1.1-1.89c-.33-.62-.64-1.25-.92-1.9a24.87,24.87,0,0,1-1.18-3.57,36.55,36.55,0,0,1-.7-3.73c-.27-2.13-.46-4.26-.59-6.4s-.23-4.42-.42-6.62c-.11-1.24-.24-2.47-.43-3.7s-.42-2.21-.68-3.31a64.64,64.64,0,0,0-2-6.52c-.83-2.33-1.75-4.61-2.75-6.87-.46-1-1-2-1.48-3a28.77,28.77,0,0,0-1.67-2.83c-2.59-3.86-5.44-7.53-8.08-11.35s-5.2-8-7.57-12.09c-1.24-2.14-2.45-4.29-3.61-6.48s-2.13-4.26-3.09-6.45-1.76-4.33-2.58-6.52-1.58-4.34-2.28-6.54-1.38-4.43-2-6.69-1.1-4.55-1.56-6.85-.94-4.86-1.28-7.31c-.16-1.33-.3-2.66-.37-4s-.1-3-.08-4.46c0-1.33,0-2.67.12-4s.22-2.66.39-4c.17-1.06.37-2.12.59-3.17s.53-2.15.83-3.22a57.38,57.38,0,0,1,2.24-6.25c.94-2.11,2-4.16,3-6.21s2.19-4.19,3.33-6.26,2.24-4,3.42-6,2.38-3.95,3.6-5.92c1.49-2.42,3-4.83,4.38-7.32.64-1.16,1.26-2.34,1.83-3.55.65-1.38,1.24-2.79,1.84-4.2-.05.13-.11.25-.16.38a48.16,48.16,0,0,0,2.43-6.55,21,21,0,0,0,.35-6.66c-.16-2.28-.41-4.56-.79-6.81-.2-1.2-.44-2.4-.72-3.58s-.59-2.34-.89-3.5a62.06,62.06,0,0,1-1.43-6.6h0a9.31,9.31,0,0,1-.09-2.11h0Zm-20,74.64-.08.2.08-.2Zm5.88,63.4c0,.06,0,.11.07.17l-.07-.17Zm36.24,86.56h0Zm-22-222.49v0Z" transform="translate(-209.55 -307.37)"/>
    <path class="cls-2" d="M242.88,338.75a5.78,5.78,0,0,0,.62.85c.32.41.66.8,1,1.21a.08.08,0,0,0,0,0c.67.88,1.29,1.8,1.93,2.71s1.4,1.86,2.12,2.79l-.1-.13c.68.89,1.35,1.79,2,2.74s1.2,1.88,1.83,2.82c1.35,2,2.89,3.95,4.42,5.86s3,3.67,4.54,5.48,3.1,3.33,4.71,4.94,3.38,3.51,5,5.33c.87,1,1.75,1.91,2.62,2.86l2.53,2.76c3.28,3.55,6.67,7,10.07,10.44,1.62,1.63,3.22,3.28,4.78,5s3.32,3.63,5,5.44c.89,1,1.77,1.94,2.67,2.89s1.64,1.69,2.48,2.53c1.77,1.76,3.58,3.48,5.32,5.27s3.54,3.69,5.26,5.57,3.31,3.59,5,5.38,3.34,3.68,5,5.58,3.3,4,5,5.93,3.34,3.84,5,5.77,3.21,3.8,4.78,5.73,3.23,4,4.87,6,3.16,3.77,4.73,5.66c1,1.21,2,2.42,3,3.66l-.15-.19c1.53,2,3,4,4.49,6.07s3.08,4.23,4.69,6.3,3.11,4,4.7,5.94,3,3.61,4.63,5.36,3.24,3.57,4.86,5.36,3.4,3.67,5.16,5.45,3.7,3.65,5.54,5.49,3.65,3.73,5.51,5.57l5.27,5.23c1.75,1.75,3.49,3.5,5.27,5.21s3.62,3.45,5.5,5.1,3.71,3.23,5.62,4.78,3.81,3,5.79,4.36,4.27,2.9,6.42,4.32,4.43,2.91,6.69,4.29,4.36,2.62,6.52,4,4.21,2.71,6.31,4.09,4.05,2.59,6.11,3.83c2.22,1.35,4.44,2.69,6.69,4s4.3,2.42,6.39,3.74c1.05.66,2.09,1.37,3.13,2s2,1.3,3,2,1.88,1.21,2.8,1.84,1.86,1.28,2.77,1.95a53,53,0,0,1,5.66,5c.92,1,1.79,2,2.64,3s1.62,2,2.48,2.93a0,0,0,1,0,0,0h0c-.18-.2-.36-.41-.53-.62h0c-.75-1-1.41-2-2.1-3s-1.4-2-2.16-2.92a36,36,0,0,0-2.41-2.68c-.83-.84-1.69-1.66-2.57-2.46a58.9,58.9,0,0,0-5.75-4.34c-2.06-1.43-4.1-2.88-6.19-4.24s-4.29-2.64-6.47-3.9-4.42-2.62-6.62-4c-2-1.25-4.08-2.51-6.1-3.81s-4.22-2.79-6.36-4.15c-2-1.24-4-2.44-6-3.65s-3.91-2.41-5.83-3.69-4-2.63-6-4c-1.77-1.2-3.5-2.44-5.19-3.74l.2.15c-1.94-1.53-3.85-3.09-5.73-4.7s-3.69-3.19-5.47-4.86-3.63-3.46-5.43-5.22-3.45-3.42-5.18-5.12c-.93-.91-1.85-1.81-2.76-2.73s-1.73-1.79-2.61-2.68c-1.83-1.87-3.7-3.71-5.53-5.58s-3.62-3.73-5.39-5.62-3.3-3.57-4.94-5.37c-1-1.14-2.08-2.28-3.1-3.44s-2.1-2.45-3.12-3.7C362,474.17,360,471.61,358,469c-3-4-5.93-8.07-9-12-1.56-2-3.13-4-4.73-6s-3.27-4-4.9-6-3.08-3.85-4.66-5.74-3.23-3.73-4.85-5.58c-.88-1-1.77-2-2.63-3.05s-1.59-1.9-2.39-2.84c-1.67-2-3.35-3.88-5.09-5.77s-3.42-3.66-5.11-5.49-3.2-3.54-4.82-5.27q-2.68-2.87-5.47-5.64c-1.73-1.72-3.45-3.45-5.12-5.23s-3.41-3.75-5.11-5.63c-.79-.86-1.57-1.73-2.37-2.58s-1.59-1.66-2.39-2.49c-1.67-1.7-3.33-3.41-5-5.15s-3.39-3.61-5.08-5.41-3.35-3.63-5-5.45c-.87-1-1.75-1.91-2.61-2.88s-1.63-1.83-2.47-2.72c-1.6-1.68-3.28-3.28-4.82-5-.75-.84-1.48-1.7-2.2-2.56s-1.53-1.81-2.31-2.69c-1.25-1.42-2.47-2.86-3.7-4.28-.65-.75-1.29-1.5-1.93-2.26s-1.12-1.37-1.66-2.06l0,0c-.76-1-1.53-2-2.34-2.9s-1.82-1.88-2.71-2.83-1.48-1.65-2.25-2.45c-.41-.43-.84-.83-1.29-1.23a14.39,14.39,0,0,1-1.07-1h0l-.08-.1h0s0,0,0,0Zm9.62,10.31a1.47,1.47,0,0,0,.1.13l-.1-.13ZM482.83,576.11h0Z" transform="translate(-209.55 -307.37)"/>
    <path class="cls-2" d="M480.41,566.56c.06.35.11.7.2,1s.17.54.22.82a1,1,0,0,1,0,.25s0,.06,0,.09l-.06.23a3,3,0,0,1-.25.37l.06-.08a2.68,2.68,0,0,1-.28.3l-.2.12-.36.09a2.16,2.16,0,0,1-.44,0h.06a4.35,4.35,0,0,1-.71-.18,5.85,5.85,0,0,1-.91-.53h0l0,0h0a7.44,7.44,0,0,1-1.36-1.33h0a1.37,1.37,0,0,1-.13-.2s0,0,0,0a3.38,3.38,0,0,0,.24.41l.26.45a6,6,0,0,0,.75,1,2.87,2.87,0,0,0,2.73,1.05,1.81,1.81,0,0,0,1.28-1.46,2.81,2.81,0,0,0,0-.41,1.83,1.83,0,0,0-.34-.83,10.57,10.57,0,0,1-.7-1.23h0l0,0Zm.42,2.14v0a.09.09,0,0,1,0,0Zm-2.17.94h0Zm1,.16h0Zm-2-.71h0v0Z" transform="translate(-209.55 -307.37)"/>
    <path class="cls-2" d="M481.35,565.61a.48.48,0,0,0,.07.2c0,.1.08.2.11.3s.2.45.3.68a9.21,9.21,0,0,0,.77,1.33,9.43,9.43,0,0,0,.88,1.1,7.81,7.81,0,0,0,1.23,1.14,8.16,8.16,0,0,0,1.38.78,13.75,13.75,0,0,0,1.51.57c.95.31,1.91.59,2.86.88s2,.56,3,.8,2,.42,3,.63,2.1.42,3.16.56a15.12,15.12,0,0,0,3.08.15,10.93,10.93,0,0,0,1.8-.31,5.71,5.71,0,0,0,.75-.28,4.83,4.83,0,0,0,.76-.44,0,0,0,0,0,0,0,4.12,4.12,0,0,1-1,.27h0a12.28,12.28,0,0,1-2.71-.09,25.46,25.46,0,0,1-3-.66c-1-.26-2-.55-2.93-.84s-2-.63-3-.88-2-.47-3-.69a28.55,28.55,0,0,1-4.84-1.3c-.28-.13-.55-.26-.81-.41a9.17,9.17,0,0,1-.83-.55s.06,0,.08.07a11.82,11.82,0,0,1-1.9-1.84h0a6.42,6.42,0,0,1-.72-1.09h0s0,0,0,0h0Zm0,0Z" transform="translate(-209.55 -307.37)"/>
    <path class="cls-2" d="M485.32,577.41l-.2.16h0c-.07,0-.13.1-.2.15h0c-.73.56-1.38,1.2-2.06,1.82s-1.44,1.19-2.14,1.79a14,14,0,0,0-1.87,1.9,10.21,10.21,0,0,0-.81,1.14,2.3,2.3,0,0,0-.46,1.5s0,0,0,0a.59.59,0,0,1,.05-.23h0a2.71,2.71,0,0,1,.21-.37h0l0,0h0a28.2,28.2,0,0,1,3.77-3.3,11.93,11.93,0,0,0,1.81-2c.54-.72,1-1.5,1.52-2.21h0a3.05,3.05,0,0,1,.43-.45h0s0,0,0,0h0s-.09.06-.12.08Zm.13-.06h0Zm-7.57,7.93Zm7-7.55h0Z" transform="translate(-209.55 -307.37)"/>
    <path class="cls-2" d="M503.34,579.06s0,0,0,0a2.72,2.72,0,0,1,.38-.11h0a2.62,2.62,0,0,1,.74,0,1.38,1.38,0,0,1,.29.08,1,1,0,0,1,.23.13l0,0,0,0,0,0h0a1.14,1.14,0,0,1,.16.15l.09.15a.36.36,0,0,1,0-.09,1.28,1.28,0,0,1,.11.31,1.93,1.93,0,0,1,0,.34,2.44,2.44,0,0,1-.14.46,2.77,2.77,0,0,1-.33.55,6.21,6.21,0,0,1-.72.73,15.49,15.49,0,0,1-1.39.88c-.43.24-.89.43-1.34.63a42.48,42.48,0,0,1-8.55,2.48h0l-.61.09.24,0a12.32,12.32,0,0,1-1.61.11c-.48,0-1,0-1.44-.1-.76-.13-1.51-.29-2.26-.47l-1.07-.29c-.36-.09-.73-.16-1.09-.23a9.89,9.89,0,0,0-2.23-.3,4.36,4.36,0,0,0-1.13.17,3.85,3.85,0,0,0-1.23.7h0c-.48.36-.89.82-1.35,1.2h0a1.7,1.7,0,0,1-.22.15s0,0,0,0c.29-.15.55-.34.83-.51a7.9,7.9,0,0,1,.91-.48h0a3.25,3.25,0,0,1,2-.29,17.18,17.18,0,0,1,2.7.92c.48.18,1,.39,1.44.56s1,.33,1.56.47a10.37,10.37,0,0,0,3.28.32,21.88,21.88,0,0,0,3.59-.6,33.68,33.68,0,0,0,6.3-2.22,13.59,13.59,0,0,0,2.88-1.73,5.63,5.63,0,0,0,1.54-1.82,2.62,2.62,0,0,0,.27-1.53,1.67,1.67,0,0,0-.31-.74,1.45,1.45,0,0,0-.8-.5,1.21,1.21,0,0,0-.38-.06,2.64,2.64,0,0,0-1.35.49Zm1.1-.1h0Zm.73.39,0,0,0,0Zm0,1.19,0,.06a.14.14,0,0,0,0-.06Zm-.34.56,0,0,0,0Zm-3.55,2.25-.05,0,.05,0Zm-22.17,3.26Zm1.3-1.17,0,0,0,0ZM505,579.19h0Z" transform="translate(-209.55 -307.37)"/>
    <path class="cls-2" d="M506.35,580.12c.84,1.39,1.68,2.79,2.41,4.25s1.49,3.19,2.2,4.81l.22.52-.06-.14c.39,1,.74,1.92,1.11,2.88s.75,1.9,1.11,2.86a31.61,31.61,0,0,1,1.8,5.87,5.84,5.84,0,0,1,.05.73,7.45,7.45,0,0,1-.06,1.15c0,.12,0,.24,0,.36a4,4,0,0,1-.16.59,7.4,7.4,0,0,1-.56.93,15.86,15.86,0,0,1-2.25,2.08c-.68.52-1.35,1-2,1.58s-1.28,1.06-1.94,1.58-1.34,1-2.05,1.41a24.59,24.59,0,0,1-2.27,1.2c-.51.21-1,.39-1.55.55a14.25,14.25,0,0,1-1.72.38,16.43,16.43,0,0,1-2.22.12c-.85,0-1.7-.11-2.55-.21a25.6,25.6,0,0,1-2.61-.51,18.93,18.93,0,0,1-2.34-.79,13.15,13.15,0,0,1-1.29-.67c-.4-.25-.79-.52-1.18-.79s-.52-.42-.78-.65-.6-.56-.9-.85a19.06,19.06,0,0,1-1.53-1.71,10.81,10.81,0,0,1-.85-1.27c-.27-.49-.52-1-.76-1.48s-.43-1.07-.59-1.62-.39-1.28-.55-1.93c-.33-1.26-.58-2.53-.79-3.81a40.07,40.07,0,0,1-.36-6.09c0-1,.09-2,.14-3a11.2,11.2,0,0,0,0-1.42c0-.5-.17-1-.25-1.45h0c0,.34,0,.68,0,1a8.14,8.14,0,0,1-.08.85h0c-.15,1-.39,2-.55,3a25.88,25.88,0,0,0-.31,3.4,26.26,26.26,0,0,0,.09,3.2c.1,1.14.22,2.29.42,3.42a27.51,27.51,0,0,0,2.06,6.7,17.47,17.47,0,0,0,1.77,2.81c.38.52.79,1,1.2,1.49a13.85,13.85,0,0,0,1.17,1.13,17.76,17.76,0,0,0,1.46,1.13c.44.32.89.62,1.36.9a14.07,14.07,0,0,0,3.28,1.43,29.31,29.31,0,0,0,3.36.65,16,16,0,0,0,3.46.21,15.6,15.6,0,0,0,3.71-.71,18.5,18.5,0,0,0,3.26-1.5c.95-.54,1.85-1.13,2.76-1.73s1.82-1.21,2.72-1.84,2-1.36,2.89-2.1a12.8,12.8,0,0,0,1.18-1,9.85,9.85,0,0,0,1.27-1.62,8.61,8.61,0,0,0,.79-1.75,5.81,5.81,0,0,0,.35-1.9,8.61,8.61,0,0,0-.26-2,11.94,11.94,0,0,0-.67-1.81c-.42-1-.93-1.95-1.45-2.9s-1-1.84-1.46-2.78-1-2-1.5-3-1.06-1.92-1.62-2.86c-.37-.62-.77-1.22-1.18-1.81s-.81-1.19-1.25-1.77-.88-1.12-1.34-1.67-.94-1.08-1.38-1.65h0l-.28-.41h0s0,0,0,0Zm8.74,20.65,0,.23,0-.23Zm-2.71,6-.21.17.21-.17Z" transform="translate(-209.55 -307.37)"/>
    <path class="cls-2" d="M492.29,590.68a4.25,4.25,0,0,0-.71.06,3.47,3.47,0,0,0-1.56.82,6.79,6.79,0,0,0-1.09,1.18,10.55,10.55,0,0,0-.85,1.35c-.26.49-.5,1-.71,1.5a18.68,18.68,0,0,0-1,3.11,17.09,17.09,0,0,0-.36,3.35c0,.26,0,.52,0,.78s0,.53.06.79.07.69.14,1,.08.51.15.76a12.15,12.15,0,0,0,.56,1.74,10.64,10.64,0,0,0,.7,1.44,13.64,13.64,0,0,0,1.07,1.54l.51.61c.17.2.37.39.56.58s.4.36.59.53a8.49,8.49,0,0,0,.9.68,7.09,7.09,0,0,0,.95.58,14.13,14.13,0,0,0,2.17.89,11.74,11.74,0,0,0,1.56.35,9,9,0,0,0,3.47-.07,7,7,0,0,0,1.33-.47,6.24,6.24,0,0,0,1.87-1.4,7.75,7.75,0,0,0,1.25-1.75,9.81,9.81,0,0,0,1.1-4.32,15,15,0,0,0-.29-3.13c0-.25-.12-.5-.18-.74s-.12-.49-.2-.74a17.82,17.82,0,0,0-1.32-3.2c-.23-.44-.49-.85-.75-1.27l-.3-.43c-.16-.21-.3-.43-.47-.63-.28-.35-.56-.7-.87-1-.14-.15-.29-.33-.44-.47l-.61-.58-.43-.35c-.18-.15-.35-.3-.54-.43l-.63-.43c-.21-.14-.44-.26-.65-.38a8.93,8.93,0,0,0-3-1,7.66,7.66,0,0,0-1.79-.09,6.68,6.68,0,0,0-1.65.37s0,0,0,0l.37-.06h0a6.91,6.91,0,0,1,1.76,0,9.7,9.7,0,0,1,2.18.62h0a8.61,8.61,0,0,1,1.61.87l.65.46.63.5c.12.09.23.21.34.31s.24.2.35.31l.64.68c.23.23.42.5.63.74l.52.71a9.9,9.9,0,0,1,.56.87c.2.29.35.61.52.91s.3.61.45.91.23.58.34.86a4.32,4.32,0,0,1,.16.51c.05.17.11.34.16.51s.08.35.12.52l.12.52c0,.16,0,.34.08.51s0,.24.05.36l.06.88a10.75,10.75,0,0,1-.08,2,11,11,0,0,1-.66,2.45,8.56,8.56,0,0,1-.8,1.38,6.57,6.57,0,0,1-.87.88,6.84,6.84,0,0,1-.9.53,6.45,6.45,0,0,1-1.27.34,10.08,10.08,0,0,1-2,0,10.4,10.4,0,0,1-1.08-.23c-.37-.09-.72-.22-1.09-.34l-.61-.28a11.52,11.52,0,0,1-1.64-1c-.29-.24-.58-.49-.85-.75s-.55-.59-.82-.89a14.47,14.47,0,0,1-.91-1.35c-.29-.52-.55-1-.79-1.6a17,17,0,0,1-.57-1.75c-.14-.55-.24-1.12-.33-1.69s-.1-1.28-.1-1.93.05-1.26.1-1.9c0-.31.09-.61.15-.92s.15-.77.24-1.15a16.19,16.19,0,0,1,.67-2l-.05.1c.18-.39.34-.78.55-1.15a9,9,0,0,1,.77-1.16l0,0a4.92,4.92,0,0,1,.68-.69l0,0a3.73,3.73,0,0,1,.65-.41h0a2.46,2.46,0,0,1,.59-.16h.2s0,0,0,0Zm.69,1.07h0Zm7,4.38.07.1-.07-.1Zm2.08,3.39,0,.1a.42.42,0,0,1,0-.1Zm-11.41,9,.06.09-.06-.09Zm5.72,3.35.18,0-.18,0Z" transform="translate(-209.55 -307.37)"/>
    <path class="cls-2" d="M492,594.1a7.54,7.54,0,0,0-1.93,3.6,8.64,8.64,0,0,0,.29,4.07,9.74,9.74,0,0,0,1.89,3.55,6.82,6.82,0,0,0,3.72,2.24,4.35,4.35,0,0,0,2.12,0,3.32,3.32,0,0,0,1-.51,3.94,3.94,0,0,0,.93-1,4.17,4.17,0,0,0,.49-1,6.43,6.43,0,0,0,.22-.89,9.55,9.55,0,0,0,.12-2.14,7.73,7.73,0,0,0-1.34-3.88,11.79,11.79,0,0,0-1.15-1.39c-.15-.16-.33-.31-.49-.47a7.37,7.37,0,0,0-.61-.5,9.22,9.22,0,0,0-1.54-.92,4,4,0,0,0-1.76-.37,2.38,2.38,0,0,0-.79.17,6.13,6.13,0,0,0-.82.49,0,0,0,1,0,0,0l.4-.18h0a2.72,2.72,0,0,1,.49-.13,2.86,2.86,0,0,1,.51,0,3.73,3.73,0,0,1,.81.22,5.76,5.76,0,0,1,1.09.66,11.59,11.59,0,0,1,1,.86,8.86,8.86,0,0,1,.87,1c.13.18.27.36.38.55a9.42,9.42,0,0,1,.75,1.35,8.73,8.73,0,0,1,.51,1.93,8.35,8.35,0,0,1,0,1.87,6.58,6.58,0,0,1-.3,1.18,5.32,5.32,0,0,1-.37.66,5,5,0,0,1-.4.4,3.3,3.3,0,0,1-.41.23,4.94,4.94,0,0,1-.55.15,5.06,5.06,0,0,1-.87,0,6.44,6.44,0,0,1-1.35-.37,7.38,7.38,0,0,1-1.35-.8,7.76,7.76,0,0,1-1.1-1.12,8.4,8.4,0,0,1-.93-1.62,11.93,11.93,0,0,1-.73-2.63,8.94,8.94,0,0,1,0-2.13v.07a7.38,7.38,0,0,1,.47-1.79,5.74,5.74,0,0,1,.59-1.09h0l.18-.22a0,0,0,0,0,0,0Zm-.76,1.35h0Zm4.45.25h0Zm3.44,5.47v0Zm.07,1.87,0,.08s0-.06,0-.08Zm-6.81.39,0,0,0,0Zm4.91,2.38h0Z" transform="translate(-209.55 -307.37)"/>
    <path class="cls-2" d="M478.17,585.92c0,.2.05.4.07.6s0,.48.06.72c0,.54.06,1.09.08,1.64,0,1,.06,2.11.06,3.16,0,2.12-.11,4.24-.11,6.37a49.83,49.83,0,0,1-.23,5.32s0-.07,0-.1c0,.22-.07.46-.1.69-.19,1.19-.4,2.39-.68,3.57a0,0,0,0,0,0,0c.24-.64.5-1.27.75-1.89s.39-1,.56-1.53a17.22,17.22,0,0,0,.63-3.1c.13-1.1.18-2.2.21-3.3s0-2.09,0-3.13c-.08-1.59-.19-3.18-.41-4.75-.1-.73-.24-1.46-.38-2.19-.07-.36-.15-.71-.24-1.06a9.05,9.05,0,0,1-.24-1h0l0,0v0Z" transform="translate(-209.55 -307.37)"/>
    <path class="cls-2" d="M477,604.68a.4.4,0,0,0-.1.33,1.49,1.49,0,0,0-.83-.25.58.58,0,0,0-.36.17.35.35,0,0,0-.05.08.66.66,0,0,0-.05.37,1.7,1.7,0,0,0,.39.78v0l.31.41c.06.08.16.25.25.28a0,0,0,0,0,0,0h0l-.11-.12h0a4.46,4.46,0,0,1-.43-.77h0a3.18,3.18,0,0,1-.1-.33h0a1.5,1.5,0,0,1,0-.2l0-.13,0,0h.11l.06,0a3.4,3.4,0,0,1,.48.29l-.06,0,.26.2,0,0,0,0h0c.23.19.46.38.68.58a.66.66,0,0,1-.2-.06h0l-.11-.06s0,0,0,0a1.24,1.24,0,0,0,.46.27l.21.25a2.14,2.14,0,0,0,.61.59.49.49,0,0,0,.7-.29c.11-.36-.22-.62-.47-.82l-.38-.27-.06,0v-.05a1.51,1.51,0,0,0-.42-.88.92.92,0,0,0-.58-.38.35.35,0,0,0-.27.13Zm-1.07.88v0Zm1.39.65h0Zm-.47-.52h0Z" transform="translate(-209.55 -307.37)"/>
    <path class="cls-2" d="M493.52,576.9a22.68,22.68,0,0,0-3.16.64,21.1,21.1,0,0,0-2.77,1,10.51,10.51,0,0,0-1.29.67,5.08,5.08,0,0,0-.53.38l-.32.29s-.08.07-.08.1a0,0,0,0,0,0,0h0a1.12,1.12,0,0,1,.2-.17h0a5.68,5.68,0,0,1,.77-.41h0a16,16,0,0,1,2.62-.75c.91-.19,1.82-.33,2.74-.47l-.12,0a44.91,44.91,0,0,1,4.77-.41,37.9,37.9,0,0,1,4.77.17,10,10,0,0,1,1.79.38s0,0,0,0a9.12,9.12,0,0,0-3.05-1.13,19.18,19.18,0,0,0-3-.38l-1,0a18.89,18.89,0,0,0-2.38.15Z" transform="translate(-209.55 -307.37)"/>
  </g>
</svg>
